<?xml version="1.0" encoding="utf-8"?>
<!-- Generator: Adobe Illustrator 15.0.0, SVG Export Plug-In . SVG Version: 6.00 Build 0)  -->
<!DOCTYPE svg PUBLIC "-//W3C//DTD SVG 1.1//EN" "http://www.w3.org/Graphics/SVG/1.1/DTD/svg11.dtd">
<svg version="1.1" xmlns="http://www.w3.org/2000/svg" xmlns:xlink="http://www.w3.org/1999/xlink" x="0px" y="0px"
	 width="195.667px" height="199.667px" viewBox="0 0 195.667 199.667" enable-background="new 0 0 195.667 199.667"
	 xml:space="preserve">
<g id="etch_deep">
	<g id="_x37___x28_robber_x29__4_">
		<g>
			<path d="M84.743,151.852c-4.79-14.146,17.598-7.587,26.495-8.756c-2.479,4.762-6.212,9.711-8.757,14.669
				c-2.554,4.958-3.387,10.75-4.491,17.514c-2.011,0.973-3.583,2.404-5.838,3.144c0.393-13.014,4.902-23.8,11.741-31.126
				c-4.64,0-8.448-0.383-13.088-0.383C90.562,150.336,87.334,150.776,84.743,151.852z M109.891,144.489c-0.524,0-1.347,0-1.88,0
				c-2.096,3.359-4.547,6.549-6.427,10.132c0.823-0.075,0.907-0.889,2.021-0.674C105.438,150.692,107.935,147.624,109.891,144.489z
				 M100.46,156.417c0.879-0.252,2.741-0.692,2.246-1.571C102.079,155.492,100.628,155.314,100.46,156.417z M99.562,158.214
				c1.02-0.178,2.096-0.299,2.245-1.347C100.788,157.044,99.814,157.269,99.562,158.214z M100.909,159.112
				c-0.047-0.178-0.009-0.44-0.225-0.449c-0.496,0.178-0.879,0.468-1.572,0.449c-2.077,4.659-3.012,10.459-3.817,16.391
				c2.694-0.954,2.591-4.996,3.144-7.858C99.066,164.436,99.618,161.301,100.909,159.112z M89.683,148.746c0-0.673,0-1.347,0-2.021
				c-0.599,0-1.197,0-1.796,0c0.141,0.907-0.29,2.385,0.225,2.919C88.56,149.27,88.943,148.831,89.683,148.746z"/>
		</g>
		<g>
		</g>
	</g>
	<g>
		<path fill="#010101" d="M85.435,52.758c0.332-0.393,1.686-2.158,1.83-2.66c0.047-0.158,3.92-5.257,5.108-8.631
			c0.747-2.119,0.586-5.043,0.96-7.68c0.727-5.113,1.422-10.105,2.16-15.12c0.342-2.325,0.066-6.451,1.92-6.96
			c1.767,6.801,2.608,14.854,3.601,21.84c0.367,2.591,0.825,5.301,1.462,7.461c1.709,5.791,5.791,9.807,6.373,10.688
			c-0.09-0.416-0.197-0.83-0.31-1.244c-0.278-0.35-0.539-0.715-0.798-1.08c-0.002,0.006-0.006,0.01-0.008,0.016
			c-8.147-8.092-5.586-26.895-10.08-38.64c-2.707,0.79-2.318,4.173-2.641,6.479c-0.71,5.1-1.424,10.414-2.159,16.08
			c-0.346,2.66-0.506,5.871-1.2,7.92c-1.163,3.435-5.313,9.219-5.561,9.689C86.211,51.08,85.307,52.601,85.435,52.758z"/>
		<path fill="#010101" d="M101.82,88.227c0.33-0.141,0.921-0.417,0.873-0.439c1.928-1.505,4.925-5.736,1.2-7.439
			C101.962,82.223,101.569,85.166,101.82,88.227z M102.453,86.347c0.472-1.848,0.245-4.395,2.16-4.8
			C105.774,83.526,104.266,85.868,102.453,86.347z"/>
		<path fill="#010101" d="M123.379,124.77c0.301-3.196,0.8-6.257,1.746-9.52c0.001-0.004,0-0.006-0.001-0.011
			c0.012-0.926,0.275-1.898,0.193-2.82c-0.133,0.382-0.404,1.18-0.44,1.151c-0.104,0.56-0.873,2.591-0.918,2.638
			c-0.687,1.985-1.428,8.149-1.375,8.208c-0.065,1.223-0.114,2.479-0.099,3.639C122.789,127.145,123.222,125.968,123.379,124.77z"/>
		<path fill="#010101" d="M136.314,108.9c-0.369-0.007-2.631,0.28-2.689,0.256c-2.893,0.615-4.16,0.903-7.192,1.627
			c-0.9,0.546-1.277,0.586-1.942,0.924c0.481-0.003,0.96-0.023,1.417-0.094c0.467-0.211,0.926-0.368,1.429-0.494
			c0.025-0.088,7.259-1.499,7.269-1.503c0-0.002,2.141-0.274,3.116-0.297C137.226,109.148,136.835,108.946,136.314,108.9z"/>
		<path fill="#010101" d="M132.606,120.649c-0.017-0.051,0.462-3.873,0.852-4.544c-0.014-0.271,0.339-1.006,0.375-1.272
			c-0.344,0.177-0.676,0.645-0.996,1.275c-0.65,1.958-1.237,4.667-1.191,7.34c0.033,1.882,0.583,3.199,1.085,5.329
			c0.359,0.941,1.179,2.18,1.671,2.692C134.035,130.273,131.646,123.448,132.606,120.649z"/>
		<path fill="#010101" d="M126.127,101.952c0.843,0.136,0.734,0.195,1.589,0.219c0.066,0.002,0.781-0.015,0.834,0.005
			c3.019-0.56,6.85-0.875,9.918-1.957c1.072-0.301,0.703-0.354,1.317-0.828c-0.735,0.08-5.86,1.249-6.567,1.39
			C133.232,100.75,127.304,101.753,126.127,101.952z"/>
		<path fill="#010101" d="M58.668,109.913c-0.547,0.166-1.111,0.277-1.677,0.391c0.354,0.059,0.708,0.116,1.062,0.179
			c1.014,0.054,2.007,0.12,2.99,0.349c5.487,1.034,8.38,1.102,8.9,1.226c-0.115-0.141-0.235-0.271-0.362-0.396
			c-0.182-0.077-0.361-0.167-0.544-0.242c-2.052-0.137-5.957-1.124-8.025-1.405C60.062,109.76,59.558,109.847,58.668,109.913z"/>
		<path fill="#010101" d="M70.21,154.749c-0.391,1.855-0.592,3.754-0.592,5.685c0,1.075,0.068,2.139,0.189,3.192
			c0.401-0.572,1.063-0.948,1.814-0.948c1.225,0,2.217,0.993,2.217,2.218s-0.992,2.218-2.217,2.218
			c-0.478,0-0.917-0.154-1.279-0.411c0.352,1.504,0.824,2.98,1.431,4.415c0.828,1.957,1.895,3.777,3.138,5.477
			c0.166-1.061,1.075-1.875,2.183-1.875c1.225,0,2.217,0.992,2.217,2.217s-0.992,2.217-2.217,2.217
			c-0.024,0-0.047-0.006-0.071-0.007c0.215,0.23,0.411,0.474,0.634,0.697c2.524,2.524,5.459,4.504,8.726,5.885
			c0.535,0.226,1.077,0.428,1.623,0.619c-0.302-0.379-0.49-0.852-0.49-1.374c0-1.225,0.993-2.218,2.218-2.218
			s2.218,0.993,2.218,2.218c0,0.984-0.646,1.809-1.534,2.098c2.16,0.538,4.383,0.812,6.649,0.812c2.363,0,4.68-0.298,6.927-0.883
			c-0.78-0.343-1.326-1.12-1.326-2.027c0-1.225,0.992-2.218,2.217-2.218s2.217,0.993,2.217,2.218c0,0.417-0.122,0.803-0.323,1.137
			c0.325-0.123,0.65-0.247,0.971-0.382c3.266-1.381,6.202-3.361,8.725-5.885c0.226-0.226,0.423-0.472,0.64-0.704
			c-0.049,0.003-0.097,0.015-0.147,0.015c-1.225,0-2.217-0.993-2.217-2.218s0.992-2.217,2.217-2.217
			c1.136,0,2.062,0.858,2.191,1.959c1.271-1.725,2.36-3.573,3.201-5.561c0.588-1.39,1.05-2.818,1.398-4.273
			c-0.311,0.166-0.66,0.269-1.036,0.269c-1.225,0-2.217-0.993-2.217-2.218s0.992-2.217,2.217-2.217c0.648,0,1.226,0.283,1.631,0.727
			c0.105-0.981,0.162-1.971,0.162-2.97c0-1.996-0.217-3.957-0.634-5.871c-1.336-1.114-2.551-2.628-3.516-4.05
			c-1.007-1.484-2.583-5.112-2.865-5.88c-0.512-1.391-1.058-2.787-1.606-4.137c-2.394-2.262-5.119-4.076-8.143-5.354
			c-3.382-1.431-6.977-2.156-10.683-2.156c-3.708,0-7.302,0.725-10.684,2.156c-2.583,1.092-4.948,2.572-7.078,4.386
			c-0.814,2.277-1.623,4.29-2.513,6.515c-0.315,0.788-2.23,4.047-2.93,4.938C72.795,152.337,71.598,153.748,70.21,154.749z
			 M94.851,137.486c9.299-0.992,17.316,3.967,21.105,9.206c2.021,2.788,4.004,8.308,4.268,11.9
			c1.02,14.239-10.151,25.737-24.699,24.698c-11.825-0.852-22.238-10.563-21.33-24.475c0.402-6.1,2.918-10.262,4.266-12.124
			C81.753,142.154,87.188,138.31,94.851,137.486z"/>
		<path fill="#010101" d="M62.965,120.375c-0.137-1.2-0.613-2.682-0.932-3.832c-0.332-0.346-0.808-1.432-1.2-1.709
			c0.078,0.385,0.104,1.463,0.079,1.851c2.024,3.422,1.273,9.028,0.365,12.353c-0.199,0.727-0.88,1.654-1.037,2.145
			c-0.179,0.563,0.009,0.825-0.02,0.954c0.756-0.868,1.403-2.551,1.93-3.563C63.145,125.314,63.291,123.2,62.965,120.375z"/>
		<path fill="#010101" d="M44.587,144.888c0.938-0.146,0.6-0.523,1.922-0.401c0.292,0.027,0.723,0.093,1.104-0.042
			c0.517-0.183,1.88-2.31,1.92-2.356c-0.03,0.005,0.009-0.332-0.024-0.332c-0.222,0.089-0.876,0.844-0.955,0.846
			c-0.549,0.391-1.043,1.129-1.42,1.155c-0.938,0.063-0.551,0.121-1.396-0.021c-0.769-0.129-0.566,0.396-1.167,0.375
			c-0.478-0.016-0.693-0.997-1.083-2.368c-0.226-0.11-0.251-0.582-0.479-0.694C43.173,142.16,43.603,145.041,44.587,144.888z"/>
		<path fill="#010101" d="M45.571,149.966c-1.875-0.563-1.906-0.656-3.406-0.531c-1.204,0.1-3.438-0.563-4.969-0.438
			c-0.249,0.03-0.208,0.262-0.344,0.344c-0.29,0.174,0.023,0.328,0.594,0.25c0.504-0.069,0.816-0.054,1.594,0.094
			c1.071,0.204,2.573,0.438,3.625,0.563c0.236,0.028,0.778-0.227,0.916-0.175c1.566,0.59,2.202,0.909,3.209,1.144
			c0.938,0.219,1.469,0.156,2.594,0.406c0.443,0.099,0.254,0.47,0.826,0.438c0.075-0.018,0.205-0.046,0.455-0.094
			C50.103,150.528,46.259,150.903,45.571,149.966z"/>
		<path fill="#010101" d="M50.259,152.06c-0.02,0.002-0.031,0-0.049,0C49.932,152.127,50.565,152.031,50.259,152.06z"/>
		<path fill="#010101" d="M146.676,144.424c0.381,0.134,0.813,0.068,1.104,0.042c1.322-0.122,0.984,0.255,1.922,0.401
			c0.984,0.153,1.414-2.728,1.578-3.838c-0.228,0.113-0.254,0.584-0.479,0.694c-0.39,1.372-0.605,2.352-1.083,2.368
			c-0.601,0.021-0.398-0.504-1.167-0.375c-0.845,0.142-0.458,0.083-1.396,0.021c-0.377-0.025-0.872-0.764-1.42-1.155
			c-0.079-0.002-0.733-0.757-0.955-0.846c-0.033,0,0.005,0.336-0.024,0.332C144.795,142.114,146.159,144.241,146.676,144.424z"/>
		<path fill="#010101" d="M157.696,149.318c-0.135-0.082-0.095-0.314-0.344-0.344c-1.531-0.125-3.765,0.538-4.969,0.438
			c-1.5-0.125-1.531-0.031-3.406,0.531c-0.688,0.938-4.531,0.563-5.094,2c0.25,0.048,0.379,0.076,0.455,0.094
			c0.572,0.031,0.383-0.339,0.826-0.438c1.125-0.25,1.656-0.188,2.594-0.406c1.007-0.235,1.643-0.553,3.209-1.144
			c0.138-0.052,0.68,0.203,0.916,0.175c1.052-0.125,2.554-0.358,3.625-0.563c0.777-0.148,1.09-0.163,1.594-0.094
			C157.672,149.646,157.985,149.492,157.696,149.318z"/>
		<path fill="#010101" d="M144.338,152.037c-0.018-0.001-0.029,0.001-0.049,0C143.983,152.008,144.616,152.104,144.338,152.037z"/>
		<path fill="#010101" d="M69.478,113.784c-0.056-0.306-0.129-0.587-0.214-0.855c-0.11,0.377-0.263,0.739-0.305,1.136
			c-0.044,0.417,1.648,7.326,2.3,11.651c0.467,0.986,0.7,1.017,1,2.063c-0.25-4.344-2.091-12.951-2.771-14.003
			C69.485,113.779,69.481,113.781,69.478,113.784z"/>
		<path fill="#010101" d="M67.56,102.402c-0.096-0.117-0.71-0.433-0.792-0.562c-0.056,0.022-0.121,0.034-0.196,0.034
			c-0.563,0-8.625-1.564-8.65-1.621c-0.473,0.005-1.932-0.068-2.386-0.17c0.038,0.13-1.046-0.135-1.018,0
			c0.367,0.207,3.455,0.779,3.833,0.965C63.851,102.633,67.563,102.414,67.56,102.402z"/>
		<path fill="#010101" d="M90.214,80.587c-3.33,2.079-0.487,5.458,1.193,7.396c0.41,0.137,0.791,0.326,1.108,0.65
			C92.823,85.416,92.444,82.306,90.214,80.587z M89.733,81.787h0.72c0.741,1.338,1.271,2.889,1.44,4.8
			C90.081,86.108,88.572,83.767,89.733,81.787z"/>
		<path fill="#010101" d="M58.55,156.966c-0.913-0.792-2.508-3.029-3.667-4.038c-0.195-0.158-0.333,0.034-0.486-0.006
			c-0.327-0.086-0.219,0.246,0.236,0.599c0.401,0.313,0.609,0.546,1.046,1.206c0.602,0.91,1.935,1.94,2.58,2.78
			C58.403,157.697,59.687,157.952,58.55,156.966z"/>
		<path fill="#010101" d="M69.459,155.135c-1.238,0.908-3.178,1.553-5.067,2.021c-0.216,0.127-0.085,0.323-0.176,0.453
			c-0.195,0.275,0.153,0.291,0.644-0.011c0.433-0.267,0.774-0.2,1.546-0.378c1.063-0.246,2.5-1,3.458-1.621
			C70.064,155.469,70.75,154.188,69.459,155.135z"/>
		<path fill="#010101" d="M82,133.271c-0.625,1.271-1.875,4.188-2.625,6.104c-0.058,0.244,0.153-0.064,0.479-0.292
			c0.276-0.193,0.447-0.248,0.659-0.784c0.299-0.757,1.758-3.945,2.091-5.278C82.662,132.79,82.753,131.74,82,133.271z"/>
		<path fill="#010101" d="M112.688,133.625c0.667,1.25,2.343,4.797,3.156,6.688c0.065,0.242-0.155-0.059-0.489-0.275
			c-0.282-0.184-0.455-0.233-0.685-0.762c-0.324-0.747-2.218-4.559-2.595-5.88C112.01,133.167,111.884,132.12,112.688,133.625z"/>
		<path fill="#010101" d="M124.594,154.938c1.238,0.908,3.178,1.553,5.067,2.021c0.216,0.127,0.085,0.323,0.176,0.453
			c0.195,0.275-0.153,0.291-0.644-0.011c-0.433-0.267-0.774-0.2-1.546-0.378c-1.063-0.246-2.5-1-3.458-1.621
			C123.989,155.271,123.303,153.99,124.594,154.938z"/>
		<path fill="#010101" d="M139.703,153.089c-0.153,0.04-0.291-0.152-0.486,0.006c-1.159,1.008-2.755,3.246-3.667,4.038
			c-1.137,0.986,0.147,0.731,0.292,0.542c0.645-0.84,1.978-1.871,2.58-2.78c0.437-0.66,0.645-0.894,1.046-1.206
			C139.921,153.334,140.029,153.003,139.703,153.089z"/>
	</g>
	<g>
		<path d="M86.519,131.467h-1.501l-0.208-0.134c2.831-1.103,7.26-2.261,10.285-2.511l0.256,0.412l-1.461,0.538
			C90.936,130.017,89.282,130.391,86.519,131.467z"/>
	</g>
	<g>
		<path d="M108.101,131.467c-3.044-0.953-5.086-1.512-7.971-1.793l-0.9-0.365l0.371-0.299c2.957,0.288,7.162,1.289,9.917,2.386
			l0.167,0.368L108.101,131.467z"/>
	</g>
</g>
<g id="CUT">
	<path fill="none" stroke="#ED1F24" stroke-width="0.001" stroke-miterlimit="10" d="M70.707,143.631"/>
	<path fill="none" stroke="#ED1F24" stroke-width="0.001" stroke-miterlimit="10" d="M68.514,147.661"/>
	<path fill="none" stroke="#ED1F24" stroke-width="0.001" stroke-miterlimit="10" d="M128.153,156.677
		c0.18,1.359,0.238,2.474,0.238,3.882c0,17.301-14.023,31.324-31.324,31.324c-17.299,0-31.324-14.023-31.324-31.324
		c0-1.313,0.045-2.297,0.201-3.566"/>
	<path fill="none" stroke="#ED1F24" stroke-width="0.001" stroke-miterlimit="10" d="M108.522,131.396
		c1.355,0.532,2.572,1.103,3.828,1.812"/>
	<path fill="none" stroke="#ED1F24" stroke-width="0.001" stroke-miterlimit="10" d="M94.278,129.356
		c0.919-0.081,1.85-0.122,2.789-0.122c1.033,0,2.055,0.051,3.063,0.148"/>
	<path fill="none" stroke="#ED1F24" stroke-width="0.001" stroke-miterlimit="10" d="M82.195,132.982
		c1.38-0.744,2.744-1.307,3.614-1.649"/>
	<g>
		<g>
			<path fill-rule="evenodd" clip-rule="evenodd" fill="none" stroke="#3A53A4" stroke-width="0.001" stroke-linecap="round" d="
				M122.813,70.227c-1.043-8.791,6.899-12.52,11.103-5.223c0.099,0.171,0.207,0.334,0.306,0.502
				c6.563,11.253-2.579,25.656-6.437,36.373c-2.351,0.958-3.331,0.787-5.769,1.014c8.316-6.827,6.151-14.649,3.021-23.672
				c-0.586-1.689-0.558-3.342-1.148-4.95C123.379,72.881,123.04,71.608,122.813,70.227"/>
			<path fill-rule="evenodd" clip-rule="evenodd" fill="none" stroke="#3A53A4" stroke-width="0.001" stroke-linecap="round" d="
				M57.733,75.507c0.033-4.47,1.26-10.089,5.097-12.903c5.085-3.729,9.366,1.131,8.942,7.622c-0.164,0.486-0.518,2.147-0.715,2.642
				c-4.244,10.648-9.572,21.368,1.291,30.273c-2.484-0.251-3.408-0.051-5.787-1.022C63.229,92.855,57.286,82.836,57.733,75.507"/>
			<path fill-rule="evenodd" clip-rule="evenodd" fill="none" stroke="#3A53A4" stroke-width="0.001" stroke-linecap="round" d="
				M120.094,112.188c-0.177-0.081-0.226-0.241-0.291-0.353c1.944-0.491,4.307-0.118,6.457-0.295
				c-0.252,1.132-0.316,1.692-1.003,2.582C123.726,112.789,121.815,113.21,120.094,112.188"/>
			<path fill-rule="evenodd" clip-rule="evenodd" fill="none" stroke="#3A53A4" stroke-width="0.001" stroke-linecap="round" d="
				M68.013,112.427c0.754,0.726,0.246,1.307,1.077,1.936c1.579-1.494,3.907-0.888,5.454-2.287c-1.943-0.492-4.307-0.118-6.457-0.295
				C68.036,111.971,68.029,112.203,68.013,112.427"/>
			<path fill-rule="evenodd" clip-rule="evenodd" fill="none" stroke="#3A53A4" stroke-width="0.001" stroke-linecap="round" d="
				M94.279,129.356c0.555-2.356,1.47-4.573,2.364-6.819c0.081-0.079,0.154-0.166,0.227-0.253c0.346-0.1,0.591-0.131,0.842,0.01
				c0.913,2.341,1.869,4.638,2.417,7.088"/>
			<path fill-rule="evenodd" clip-rule="evenodd" fill="none" stroke="#3A53A4" stroke-width="0.001" stroke-linecap="round" d="
				M112.351,133.207c-0.794-2.75-1.668-5.47-2.887-8.034c-0.111-0.064-0.199-0.093-0.286-0.12c-0.19,2.127-0.595,4.178-0.671,6.338"
				/>
			<path fill-rule="evenodd" clip-rule="evenodd" fill="none" stroke="#ED1F24" stroke-width="0.001" stroke-linecap="round" d="
				M136.798,156.69c-2.971,0.238-7.434,0.364-8.645-0.013"/>
			<path fill-rule="evenodd" clip-rule="evenodd" fill="none" stroke="#ED1F24" stroke-width="0.001" stroke-linecap="round" d="
				M145.374,151.508c-13.189,0.563-22.049-10.469-22.558-26.044c-2.16-1.544-1.588-1.146-3.754-2.532
				c2.456,9.222,3.735,18.406,9.816,25.531c1.304,1.527,7.485,3.726,10.453,5.235"/>
			<path fill-rule="evenodd" clip-rule="evenodd" fill="none" stroke="#3A53A4" stroke-width="0.001" stroke-linecap="round" d="
				M156.384,149.532c0.585-0.015,1.267,0.001,2.08,0.065c0.115-0.039,0.929,0.026,0.929,0.026c5.227,0.292,2.715,4.395,7.027,4.37
				c8.214,3.055,15.913-0.573,15.047-6.778c-0.75-4.083-4-6.25-9.25-5.25c-2.494,0.839-7.214,2.103-9.25,3.583
				c-3.252,2.365-5.092,3.45-6.655,4.037"/>
			<path fill-rule="evenodd" clip-rule="evenodd" fill="none" stroke="#ED1F24" stroke-width="0.001" stroke-linecap="round" d="
				M139.419,153.616c0.205-0.292,0.402-0.591,0.589-0.9c0.819-0.109,1.419-0.017,1.754-0.163c0.429-0.187,2.961-0.776,3.608-1.072"
				/>
			<path fill-rule="evenodd" clip-rule="evenodd" fill="none" stroke="#ED1F24" stroke-width="0.001" stroke-linecap="round" d="
				M151.132,141.528c5.025-1.733,9.063-5.885,14.502-8.396c0.915-0.423,5.486-1.847,6.417-2
				c15.027-2.479,26.477,13.449,17.651,25.822c-3.43,5.693-13.651,8.844-22.985,7.428c-0.839,0.674-0.131,0.827-1,2
				c-2.388,2.262-9.656-1.5-15.26-3.326c-5.174-1.725-10.86-1.896-15.501-1.635c-0.079-0.08-0.418-0.023-0.506-0.095
				c-0.048-0.271-0.053-0.596-0.054-0.904c0.026-0.297,1.196-2.27,1.309-2.557c0.372-0.382,0.744-0.766,1.113-1.154"/>
			<path fill-rule="evenodd" clip-rule="evenodd" fill="none" stroke="#3A53A4" stroke-width="0.001" stroke-linecap="round" d="
				M145.822,142.624c-1.628-1.097-6.585-7.854-7.22-9.001c-1.109-0.129-2.013-1.08-2.167-2.153c-0.454-0.253-2.78-1.977-3.31-1.753
				c-0.041,0.126,0.142,0.527,0.131,0.672c1.317,4.877,2.952,9.178,8.25,10.946c1.549,0.768,3,1.184,4.379,1.327"/>
			<path fill-rule="evenodd" clip-rule="evenodd" fill="none" stroke="#ED1F24" stroke-width="0.001" stroke-linecap="round" d="
				M145.863,142.65c-0.014-0.009-0.027-0.018-0.041-0.027"/>
			<path fill-rule="evenodd" clip-rule="evenodd" fill="none" stroke="#ED1F24" stroke-width="0.001" stroke-linecap="round" d="
				M43.07,141.466c-1.524-7.831,11.511-19.162,16.437-23.186c3.156-2.578,0.982-2.538,0.515-6.941
				c-0.222-0.178-0.349-0.452-0.476-0.724c-2.461-0.637-4.914-1.187-7.389-1.729c-1.975-0.075-2.344,0.028-3.823,0.223
				c-2.671,0.352-3.989,3.302-7.118,1.507c-1.813-8.32,8.471-11.878,14.447-10.305C49.255,85.384,41.812,59.848,59.667,51
				c4.34-2.482,9.649-2.822,13.796-0.463c7.925,4.508,8.747,11.023,7.526,18.649c-0.818,5.111-3.099,9.882-4.486,14.69
				c-1.822,6.318-0.395,13.225,6.447,13.371c4.256,0.091,8.791-2.521,8.403-7.77c-4.12,1.404-9.374,4.065-13.309,0.293
				c-0.292-0.424-0.512-1.063-0.36-1.553c0.081-0.079,0.152-0.168,0.225-0.257c9.884,2.654,8.121-14.527,7.433-23.624
				c-0.837-4.54-0.128-9.293,0.731-13.742c-0.096-1.602-3.126-3.775-4.09-5.459c-0.035-0.431-0.133-0.906,0.021-1.318
				c2.316-0.894,4.684-1.748,6.115-3.965c0.413-4.398-3.577-6.659-7.332-7.201c0.855-4.277,2.775-6.133-2.641-10.799
				c-0.047-0.508-0.135-1.064,0.018-1.555c0.149-0.171,0.313-0.327,0.462-0.498c2.752-1.135,6.03-1.813,4.915-4.542
				c-0.572-0.153-0.863-0.743-1.314-1.085c-0.047-0.509-0.135-1.065,0.018-1.555c0.225-0.258,0.464-0.52,1.105-0.693
				c2.938-0.227,5.613,0.281,8.352-0.65c3.997-2.203,1.891-10.891,6.479-9.697c1.922,2.861,1.408,7.041,4.445,9.475
				c2.749,0.896,5.55,0.328,8.465,0.584c0.521,0.169,0.774,0.494,1.028,0.724c0.046,0.509,0.013,0.93-0.14,1.419
				c-0.414,0.395-0.584,0.664-1.176,1.238c-1.114,2.75,2.82,4.113,4.897,4.561c0.17,0.149,0.326,0.313,0.497,0.463
				c0.047,0.508-0.166,0.997-0.318,1.486c-2.005,1.811-2.992,2.711-3.419,4.748c-0.482,2.308,1.122,3.463,1.079,6.119
				c-0.164,0.236-0.164,0.236-0.698,0.502c-4.683,0.203-6.886,3.025-6.598,6.699c1.013,2.262,4.221,2.984,6.104,4.09
				c-0.113,2.48-3.087,4.219-3.862,6.539c-0.306,0.912,0.258,0.336,0.442,2.537c0.005,0.06,0.04,0.584,0.074,0.635
				c1.545,8.043-1.338,20.568,0.042,29.039c0.761,4.671,2.26,6.62,7.377,5.304c0.079,0.08,0.168,0.151,0.256,0.223
				c0.051,0.508-0.18,1.242-0.332,1.73c-3.862,3.807-9.263,0.949-13.327-0.453c-0.442,5.258,4.064,7.72,8.308,7.618
				c6.731-0.161,8.219-6.451,6.68-12.516c-1.276-5.027-3.026-8.737-4.344-13.764c-2.326-8.875,0.314-17.305,8.164-20.777
				c4.27-1.484,9.854-0.689,13.836,0.978c17.725,10.755,9.231,34.549,2.865,49.447c0.702-0.077,1.248-0.22,1.553-0.217
				c6.173-0.75,9.013,0.886,12.558,4.413c0.196,0.195,0.235,0.466,0.412,0.794c0.284,1.519,0.506,3.876,0.155,5.382
				c-0.165,0.234-0.33,0.171-0.522,0.378c-2.02,0.362-3.786-0.667-5.28-1.819c-1.73-0.663-2.901-0.46-5.596-0.432
				c-2.458,0.56-4.571,0.002-6.998,0.658c-0.091,0.309-0.105,0.792-0.306,0.992c-0.695,2.955-1.175,2.935-1.169,5.81
				c0,0.084,0.063,0.184,0.133,0.303c1.039,1.785,10.932,11.31,13.5,14.978c2.107,3.01,4.981,5.619,4.167,10.063"/>
			<path fill-rule="evenodd" clip-rule="evenodd" fill="none" stroke="#3A53A4" stroke-width="0.001" stroke-linecap="round" d="
				M48.446,142.692c1.424-0.062,2.879-0.412,4.375-1.137c5.369-1.791,7.445-6.801,8.397-11.817c-0.548-0.192-2.934,1.532-3.397,1.79
				c-0.128,1.109-1.081,2.013-2.153,2.166c-1.651,2.815-4.601,6.493-7.253,9.017"/>
			<path fill-rule="evenodd" clip-rule="evenodd" fill="none" stroke="#ED1F24" stroke-width="0.001" stroke-linecap="round" d="
				M57.529,156.738c0.824,0.832,1.649,1.614,2.317,2.26c0.051,0.609,0.52,2.155,0.222,2.795c-0.08,0.079-0.152,0.167-0.223,0.256
				c-4.322-0.546-10.983-0.597-15.12,0.582c-4.707,1.022-6.842,4.335-15.46,4.262c-0.951-0.487-0.83-1.968-1.632-2.677
				c-8,2.25-19.275-1.945-22.989-7.02c-9.429-13.736,4.239-31.23,22.142-24.742c5.685,2.061,10.598,6.941,16.285,9.012"/>
			<path fill-rule="evenodd" clip-rule="evenodd" fill="none" stroke="#ED1F24" stroke-width="0.001" stroke-linecap="round" d="
				M49.409,151.664c0.351,0.214,0.641,0.55,0.985,0.738c0.465,0.253,3.592,0.647,4.114,0.814c0.09,0.138,0.186,0.277,0.288,0.419"/>
			<path fill-rule="evenodd" clip-rule="evenodd" fill="none" stroke="#3A53A4" stroke-width="0.001" stroke-linecap="round" d="
				M38.375,149.597c-1.444-0.589-2.74-1.293-3.792-2.099c-3.007-2.302-6.71-3.812-10.737-5.182
				c-7.189-2.446-14.532,2.954-8.961,10.316c2.027,2.679,8,3.333,13.77,1.406c3.236-0.733,1.777-2.95,4.73-4.229
				c0.882-0.243,1.722,0.148,2.52,0.116c0.811-0.344,1.66-0.384,2.526-0.305"/>
			<path fill-rule="evenodd" clip-rule="evenodd" fill="none" stroke="#ED1F24" stroke-width="0.001" stroke-linecap="round" d="
				M54.791,153.62c2.552-1.008,8.096-2.497,9.006-3.371c7.57-7.272,8.69-16.909,11.58-27.006c-0.12-0.024-0.409,0.011-0.615,0.094
				c-1.884,1.454-1.246,0.858-3.235,2.345c-0.744,11.333-5.922,22.896-17.643,25.536c-1.34,0.302-2.845,0.451-4.422,0.459"/>
			<path fill-rule="evenodd" clip-rule="evenodd" fill="none" stroke="#ED1F24" stroke-width="0.001" stroke-linecap="round" d="
				M65.944,156.992c-0.941,0.005-5.333,0.084-8.417-0.206"/>
			<path fill-rule="evenodd" clip-rule="evenodd" fill="none" stroke="#3A53A4" stroke-width="0.001" stroke-linecap="round" d="
				M85.81,131.334c-0.248-2.004-0.492-4.027-0.65-6.023c-0.102,0.007-0.192,0.057-0.283,0.108c-1.143,2.411-1.959,4.97-2.681,7.563"
				/>
		</g>
	</g>
</g>
<g id="alignment_mark">
	<line fill="none" stroke="#010101" stroke-width="0.25" stroke-miterlimit="10" x1="1" y1="6.64" x2="1" y2="1.129"/>
	<line fill="none" stroke="#010101" stroke-width="0.25" stroke-miterlimit="10" x1="1" y1="1.129" x2="6.283" y2="1.129"/>
</g>
</svg>
