<?xml version="1.0"?><svg width="640" height="480" xmlns="http://www.w3.org/2000/svg" xmlns:xlink="http://www.w3.org/1999/xlink">
 <defs>
  <linearGradient id="linearGradient2832">
   <stop offset="0" id="stop2834" stop-color="#b27d00"/>
   <stop offset="1" id="stop2836" stop-color="#624500"/>
  </linearGradient>
  <linearGradient y2="0.926823" x2="0.822115" y1="1.205173" x1="0.139921" id="svg_1" xlink:href="#linearGradient2832"/>
 </defs>
 <metadata id="metadata4">image/svg+xml</metadata>
 <g>
  <title>Layer 1</title>
  <g id="g3782">
   <path id="path3784" d="m420.321411,131.281403c31.806519,-35.685211 30.178314,-61.892883 14.575195,-91.418941c-24.250122,32.5033 -47.321381,48.864986 -14.575195,91.418941z" stroke-width="4" stroke="#000000" fill-rule="evenodd" fill="#ffffff"/>
   <path id="path3786" d="m416.714722,114.219917c8.37619,-47.063034 29.979218,-61.989536 62.831787,-67.985458c-10.548187,39.156982 -9.139984,67.405952 -62.831787,67.985458z" stroke-width="4" stroke="#000000" fill-rule="evenodd" fill="#ffffff"/>
   <path id="path3788" d="m412.360474,152.799179c8.37616,-47.063026 29.979218,-61.989578 62.831787,-67.985481c-10.548187,39.15699 -9.139984,67.405937 -62.831787,67.985481z" stroke-width="4" stroke="#000000" fill-rule="evenodd" fill="#ffffff"/>
   <path id="path3790" d="m418.938416,156.878433c21.378296,-42.755783 12.959381,-67.627762 -9.815979,-92.051666c-14.915771,37.710144 -32.910797,59.531326 9.815979,92.051666z" stroke-width="4" stroke="#000000" fill-rule="evenodd" fill="#ffffff"/>
   <path id="path3792" d="m409.104187,188.437973c8.37616,-47.063034 29.979218,-61.98954 62.831787,-67.985466c-10.548157,39.156975 -9.139984,67.405952 -62.831787,67.985466z" stroke-width="4" stroke="#000000" fill-rule="evenodd" fill="#ffffff"/>
   <path id="path3794" d="m414.839203,186.190491c13.742371,-45.784668 1.189392,-68.847954 -25.431396,-89.011803c-8.239014,39.707069 -22.232361,64.287056 25.431396,89.011803z" stroke-width="4" stroke="#000000" fill-rule="evenodd" fill="#ffffff"/>
   <path id="path3796" d="m403.66391,223.064194c8.37616,-47.063065 29.979187,-61.989578 62.831787,-67.985489c-10.548187,39.156967 -9.139923,67.40596 -62.831787,67.985489z" stroke-width="4" stroke="#000000" fill-rule="evenodd" fill="#ffffff"/>
   <path id="path3798" d="m412.882751,223.946487c7.766449,-47.167496 -7.636505,-68.433487 -36.620117,-85.022507c-3.0867,40.435211 -13.81723,66.604721 36.620117,85.022507z" stroke-width="4" stroke="#000000" fill-rule="evenodd" fill="#ffffff"/>
   <path id="path3800" d="m397.125641,260.630829c8.37616,-47.063034 29.979187,-61.989548 62.831787,-67.985458c-10.548187,39.156952 -9.139923,67.40593 -62.831787,67.985458z" stroke-width="4" stroke="#000000" fill-rule="evenodd" fill="#ffffff"/>
   <path id="path3802" d="m345.149048,767.662537l26.349731,12.309143c-16.054352,-166.50592 12.855072,-352.226074 40.253693,-545.056519l-19.461182,2.033157c-22.813202,147.573441 -54.02298,379.789352 -47.142242,530.714218z" stroke-width="4" stroke="#000000" fill-rule="evenodd" fill="#ffffff"/>
   <path id="path3804" d="m413.76767,262.509155c2.324554,-47.746063 -15.408112,-67.112213 -46.097809,-80.279846c1.555084,40.52301 -6.114136,67.747452 46.097809,80.279846z" stroke-width="4" stroke="#000000" fill-rule="evenodd" fill="#ffffff"/>
  </g>
  <g id="g3655">
   <path id="path1345" d="m335.796509,132.759003c-27.603546,-39.027122 -23.046295,-64.886742 -4.230286,-92.476482c20.451691,35.017826 41.542297,53.86375 4.230286,92.476482z" stroke-width="4" stroke="#000000" fill-rule="evenodd" fill="#ffffff"/>
   <path id="path1341" d="m341.293915,116.209717c-3.045013,-47.70533 -22.837646,-64.960438 -54.810394,-74.603027c6.090057,40.092789 1.522522,68.005508 54.810394,74.603027z" stroke-width="4" stroke="#000000" fill-rule="evenodd" fill="#ffffff"/>
   <path id="path1333" d="m341.293915,155.033783c-3.045013,-47.70533 -22.837646,-64.960495 -54.810394,-74.60305c6.090057,40.092796 1.522522,68.005486 54.810394,74.60305z" stroke-width="4" stroke="#000000" fill-rule="evenodd" fill="#ffffff"/>
   <path id="path1339" d="m334.300018,158.349548c-16.448181,-44.883522 -5.292938,-68.654266 20.07785,-90.369667c10.592285,39.14492 26.026459,62.84655 -20.07785,90.369667z" stroke-width="4" stroke="#000000" fill-rule="evenodd" fill="#ffffff"/>
   <path id="path1331" d="m340.532654,190.81279c-3.045013,-47.705338 -22.837646,-64.960457 -54.810394,-74.603043c6.090027,40.092789 1.522522,68.005508 54.810394,74.603043z" stroke-width="4" stroke="#000000" fill-rule="evenodd" fill="#ffffff"/>
   <path id="path1337" d="m335.085907,187.936295c-8.520752,-47.03688 6.539642,-68.546707 35.253754,-85.597687c3.733765,40.380432 14.88205,66.374649 -35.253754,85.597687z" stroke-width="4" stroke="#000000" fill-rule="evenodd" fill="#ffffff"/>
   <path id="path1329" d="m342.055176,225.830566c-3.045013,-47.705368 -22.837646,-64.960495 -54.810394,-74.603073c6.090027,40.092789 1.522491,68.005508 54.810394,74.603073z" stroke-width="4" stroke="#000000" fill-rule="evenodd" fill="#ffffff"/>
   <path id="path1335" d="m332.795563,225.67337c-2.427399,-47.740753 15.263336,-67.14502 45.924469,-80.378738c-1.467712,40.526138 6.260132,67.733902 -45.924469,80.378738z" stroke-width="4" stroke="#000000" fill-rule="evenodd" fill="#ffffff"/>
   <path id="path1327" d="m344.338959,263.893341c-3.045013,-47.705353 -22.837646,-64.96048 -54.810394,-74.603043c6.090027,40.092773 1.522491,68.005478 54.810394,74.603043z" stroke-width="4" stroke="#000000" fill-rule="evenodd" fill="#ffffff"/>
   <path id="path1323" d="m339.122467,773.553528l-27.563904,9.276245c34.627075,-163.654236 26.729248,-351.444244 21.130035,-546.130249l19.11026,4.202942c6.118439,149.200409 11.087555,383.450684 -12.676392,532.651062z" stroke-width="4" stroke="#000000" fill-rule="evenodd" fill="#ffffff"/>
   <path id="path1325" d="m327.591339,263.893341c3.045013,-47.705353 22.837646,-64.96048 54.810394,-74.603043c-6.090027,40.092773 -1.522491,68.005478 -54.810394,74.603043z" stroke-width="4" stroke="#000000" fill-rule="evenodd" fill="#ffffff"/>
  </g>
  <g id="g3668">
   <path id="path3670" d="m246.73085,187.292496c-34.072006,-33.528824 -34.161057,-59.786842 -20.522232,-90.270027c26.323715,30.847885 50.415527,45.66581 20.522232,90.270027z" stroke-width="4" stroke="#000000" fill-rule="evenodd" fill="#ffffff"/>
   <path id="path3672" d="m249.214081,170.031693c-11.435837,-46.414482 -33.968735,-59.896301 -67.143051,-63.731026c13.086243,38.383324 13.528351,66.663887 67.143051,63.731026z" stroke-width="4" stroke="#000000" fill-rule="evenodd" fill="#ffffff"/>
   <path id="path3674" d="m256.081848,208.243591c-11.435822,-46.41449 -33.968719,-59.896347 -67.143036,-63.731049c13.086243,38.383316 13.528336,66.663864 67.143036,63.731049z" stroke-width="4" stroke="#000000" fill-rule="evenodd" fill="#ffffff"/>
   <path id="path3676" d="m249.784805,212.744263c-24.128525,-41.266205 -17.35408,-66.635452 3.775314,-92.496414c17.349823,36.653976 36.733307,57.251648 -3.775314,92.496414z" stroke-width="4" stroke="#000000" fill-rule="evenodd" fill="#ffffff"/>
   <path id="path3678" d="m261.661743,243.593109c-11.435852,-46.41449 -33.96875,-59.896317 -67.143066,-63.731033c13.086212,38.383316 13.528351,66.663895 67.143066,63.731033z" stroke-width="4" stroke="#000000" fill-rule="evenodd" fill="#ffffff"/>
   <path id="path3680" d="m255.792023,241.725479c-16.706985,-44.787949 -5.689041,-68.622726 19.556091,-90.484222c10.817993,39.083237 26.388733,62.695511 -19.556091,90.484222z" stroke-width="4" stroke="#000000" fill-rule="evenodd" fill="#ffffff"/>
   <path id="path3682" d="m269.354706,277.789398c-11.435822,-46.414505 -33.968735,-59.896332 -67.143051,-63.731049c13.086212,38.383316 13.52832,66.663879 67.143051,63.731049z" stroke-width="4" stroke="#000000" fill-rule="evenodd" fill="#ffffff"/>
   <path id="path3684" d="m260.213287,279.272675c-10.834229,-46.558594 3.145081,-68.786316 30.98175,-87.235153c5.724304,40.146759 18.143219,65.558517 -30.98175,87.235153z" stroke-width="4" stroke="#000000" fill-rule="evenodd" fill="#ffffff"/>
   <path id="path3686" d="m278.335602,314.848022c-11.435822,-46.41449 -33.968735,-59.896317 -67.143051,-63.731033c13.086212,38.383316 13.528305,66.663895 67.143051,63.731033z" stroke-width="4" stroke="#000000" fill-rule="evenodd" fill="#ffffff"/>
   <path id="path3688" d="m363.357666,817.394836l-25.488342,14.00592c5.13147,-167.199219 -35.860962,-350.631104 -75.810852,-541.256836l19.552429,0.756134c32.414764,145.765533 78.743225,375.443207 81.746765,526.494781z" stroke-width="4" stroke="#000000" fill-rule="evenodd" fill="#ffffff"/>
   <path id="path3690" d="m261.852051,317.810577c-5.441833,-47.49176 10.986389,-67.976028 40.749237,-83.122375c1.098236,40.537903 10.531372,67.202545 -40.749237,83.122375z" stroke-width="4" stroke="#000000" fill-rule="evenodd" fill="#ffffff"/>
  </g>
  <g id="g3736">
   <path id="path3738" d="m490.183807,219.988129c37.880524,-29.157791 41.147675,-55.212082 31.299286,-87.122345c-29.864655,27.43454 -55.573242,39.227081 -31.299286,87.122345z" stroke-width="4" stroke="#000000" fill-rule="evenodd" fill="#ffffff"/>
   <path id="path3740" d="m489.80835,202.553543c16.970642,-44.689026 40.970032,-55.344009 74.364807,-55.134552c-17.636658,36.517105 -21.499084,64.536331 -74.364807,55.134552z" stroke-width="4" stroke="#000000" fill-rule="evenodd" fill="#ffffff"/>
   <path id="path3742" d="m478.365204,239.653259c16.970642,-44.689026 40.970062,-55.344055 74.364838,-55.134567c-17.636719,36.51709 -21.499084,64.536316 -74.364838,55.134567z" stroke-width="4" stroke="#000000" fill-rule="evenodd" fill="#ffffff"/>
   <path id="path3744" d="m484.071167,244.883179c28.946838,-38.042038 25.293274,-64.044983 7.449799,-92.273773c-21.659546,34.284302 -43.394135,52.384109 -7.449799,92.273773z" stroke-width="4" stroke="#000000" fill-rule="evenodd" fill="#ffffff"/>
   <path id="path3746" d="m468.547028,274.067566c16.970612,-44.689056 40.970032,-55.34404 74.364777,-55.134583c-17.636597,36.51709 -21.499084,64.536346 -74.364777,55.134583z" stroke-width="4" stroke="#000000" fill-rule="evenodd" fill="#ffffff"/>
   <path id="path3748" d="m474.599701,272.924225c22.006134,-42.43634 13.954529,-67.429794 -8.458618,-92.186768c-15.469818,37.486465 -33.784576,59.040283 8.458618,92.186768z" stroke-width="4" stroke="#000000" fill-rule="evenodd" fill="#ffffff"/>
   <path id="path3750" d="m456.770844,307.081299c16.970642,-44.689087 40.970032,-55.34407 74.364838,-55.134613c-17.636658,36.51709 -21.499084,64.536346 -74.364838,55.134613z" stroke-width="4" stroke="#000000" fill-rule="evenodd" fill="#ffffff"/>
   <path id="path3752" d="m465.665558,309.660278c16.390869,-44.904907 5.205109,-68.661591 -20.193665,-90.344711c-10.542267,39.158798 -25.946228,62.880417 20.193665,90.344711z" stroke-width="4" stroke="#000000" fill-rule="evenodd" fill="#ffffff"/>
   <path id="path3754" d="m443.36972,342.780396c16.970642,-44.689056 40.970032,-55.344025 74.364838,-55.134583c-17.636658,36.51709 -21.499084,64.536346 -74.364838,55.134583z" stroke-width="4" stroke="#000000" fill-rule="evenodd" fill="#ffffff"/>
   <path id="path3756" d="m298.135345,831.34198l23.60556,16.988525c15.146942,-166.591797 78.043945,-343.71344 140.776947,-528.102234l-19.500275,-1.616364c-49.822601,140.770386 -123.614838,363.152008 -144.882233,512.730072z" stroke-width="4" stroke="#000000" fill-rule="evenodd" fill="#ffffff"/>
   <path id="path3758" d="m459.373535,347.716644c11.151062,-46.484039 -2.676666,-68.806549 -30.387268,-87.444611c-5.997528,40.107086 -18.589325,65.433838 30.387268,87.444611z" stroke-width="4" stroke="#000000" fill-rule="evenodd" fill="#ffffff"/>
  </g>
  <g id="g3828">
   <path id="path3830" d="m325.519562,236.292099c-27.603546,-39.027115 -23.046326,-64.886734 -4.230316,-92.476486c20.451721,35.017838 41.542328,53.863739 4.230316,92.476486z" stroke-width="4" stroke="#000000" fill-rule="evenodd" fill="#ffffff"/>
   <path id="path3832" d="m331.016937,219.742813c-3.045013,-47.705322 -22.837646,-64.960449 -54.810364,-74.603027c6.090057,40.092789 1.522522,68.005508 54.810364,74.603027z" stroke-width="4" stroke="#000000" fill-rule="evenodd" fill="#ffffff"/>
   <path id="path3834" d="m331.016937,258.566864c-3.045013,-47.705322 -22.837646,-64.96048 -54.810364,-74.603043c6.090057,40.092804 1.522522,68.005493 54.810364,74.603043z" stroke-width="4" stroke="#000000" fill-rule="evenodd" fill="#ffffff"/>
   <path id="path3836" d="m324.023071,261.88266c-16.448212,-44.88353 -5.292938,-68.654282 20.07782,-90.369675c10.592285,39.144913 26.026459,62.846542 -20.07782,90.369675z" stroke-width="4" stroke="#000000" fill-rule="evenodd" fill="#ffffff"/>
   <path id="path3838" d="m330.255676,294.345886c-3.045013,-47.705338 -22.837646,-64.960464 -54.810364,-74.603027c6.090027,40.092773 1.522522,68.005493 54.810364,74.603027z" stroke-width="4" stroke="#000000" fill-rule="evenodd" fill="#ffffff"/>
   <path id="path3840" d="m324.808929,291.469391c-8.520752,-47.03688 6.539642,-68.546707 35.253754,-85.597687c3.733795,40.380432 14.88205,66.374664 -35.253754,85.597687z" stroke-width="4" stroke="#000000" fill-rule="evenodd" fill="#ffffff"/>
   <path id="path3842" d="m331.778198,329.363678c-3.045013,-47.705383 -22.837646,-64.96051 -54.810364,-74.603073c6.090027,40.092789 1.522491,68.005508 54.810364,74.603073z" stroke-width="4" stroke="#000000" fill-rule="evenodd" fill="#ffffff"/>
   <path id="path3844" d="m322.518585,329.206451c-2.427399,-47.740753 15.263367,-67.144989 45.924469,-80.378708c-1.467712,40.526138 6.260132,67.733902 -45.924469,80.378708z" stroke-width="4" stroke="#000000" fill-rule="evenodd" fill="#ffffff"/>
   <path id="path3846" d="m334.062012,367.426453c-3.045013,-47.705353 -22.837677,-64.96048 -54.810394,-74.603058c6.090027,40.092773 1.522491,68.005493 54.810394,74.603058z" stroke-width="4" stroke="#000000" fill-rule="evenodd" fill="#ffffff"/>
   <path id="path3848" d="m328.845001,877.086975l-27.562988,9.276001c34.626984,-163.653992 26.728973,-351.44397 21.129974,-546.129944l19.110016,4.203003c6.118011,149.199982 11.087006,383.450012 -12.677002,532.65094l0,0z" stroke-width="4" stroke="#000000" fill-rule="evenodd" fill="#ffffff"/>
   <path id="path3850" d="m317.314362,367.426453c3.045013,-47.705353 22.837677,-64.96048 54.810394,-74.603058c-6.090027,40.092773 -1.522491,68.005493 -54.810394,74.603058z" stroke-width="4" stroke="#000000" fill-rule="evenodd" fill="#ffffff"/>
  </g>
  <g id="g3874">
   <path id="path3876" d="m415.522491,193.896423c31.953156,-35.553726 30.432892,-61.767807 14.95166,-91.357796c-24.383759,32.403008 -47.522156,48.669441 -14.95166,91.357796z" stroke-width="4" stroke="#000000" fill-rule="evenodd" fill="#ffffff"/>
   <path id="path3878" d="m411.986145,176.820282c8.569916,-47.027939 30.234222,-61.865273 63.111115,-67.725769c-10.709412,39.113052 -9.417572,67.367493 -63.111115,67.725769z" stroke-width="4" stroke="#000000" fill-rule="evenodd" fill="#ffffff"/>
   <path id="path3880" d="m407.472992,215.381149c8.569946,-47.027954 30.234253,-61.865326 63.111145,-67.7258c-10.709412,39.113052 -9.417603,67.367477 -63.111145,67.7258z" stroke-width="4" stroke="#000000" fill-rule="evenodd" fill="#ffffff"/>
   <path id="path3882" d="m414.034027,219.487457c21.55423,-42.667191 13.237854,-67.573563 -9.436615,-92.091003c-15.070923,37.648239 -33.15567,59.39502 9.436615,92.091003z" stroke-width="4" stroke="#000000" fill-rule="evenodd" fill="#ffffff"/>
   <path id="path3884" d="m404.069916,251.006088c8.569946,-47.027954 30.234253,-61.86528 63.111145,-67.725769c-10.709381,39.113037 -9.417603,67.367477 -63.111145,67.725769z" stroke-width="4" stroke="#000000" fill-rule="evenodd" fill="#ffffff"/>
   <path id="path3886" d="m409.814148,248.782272c13.930817,-45.727509 1.472961,-68.842224 -25.064392,-89.115509c-8.402527,39.672638 -22.496948,64.194687 25.064392,89.115509z" stroke-width="4" stroke="#000000" fill-rule="evenodd" fill="#ffffff"/>
   <path id="path3888" d="m398.48703,285.609497c8.569946,-47.028 30.234253,-61.865326 63.111145,-67.725815c-10.709381,39.113022 -9.417542,67.367477 -63.111145,67.725815z" stroke-width="4" stroke="#000000" fill-rule="evenodd" fill="#ffffff"/>
   <path id="path3890" d="m407.702148,286.529755c7.960632,-47.134933 -7.354523,-68.464127 -36.269409,-85.172363c-3.253235,40.422012 -14.091492,66.546997 36.269409,85.172363z" stroke-width="4" stroke="#000000" fill-rule="evenodd" fill="#ffffff"/>
   <path id="path3892" d="m391.794098,323.148712c8.569916,-47.027924 30.234222,-61.865265 63.111115,-67.725754c-10.709381,39.113022 -9.417542,67.367508 -63.111115,67.725754z" stroke-width="4" stroke="#000000" fill-rule="evenodd" fill="#ffffff"/>
   <path id="path3894" d="m337.729187,829.960144l26.298706,12.417603c-15.368164,-166.570068 14.306,-352.168915 42.498749,-544.884094l-19.469269,1.952881c-23.420959,147.477661 -55.587067,379.562256 -49.328186,530.513611z" stroke-width="4" stroke="#000000" fill-rule="evenodd" fill="#ffffff"/>
   <path id="path3896" d="m408.428162,325.095551c2.52121,-47.73587 -15.131409,-67.174835 -45.766479,-80.46875c1.388092,40.528931 -6.393219,67.721466 45.766479,80.46875z" stroke-width="4" stroke="#000000" fill-rule="evenodd" fill="#ffffff"/>
  </g>
  <path id="path2072" d="m628.493591,568.437256" stroke-miterlimit="4" stroke-linejoin="round" stroke-linecap="round" stroke-width="5.03115" stroke="#000000" fill="url(#svg_1)"/>
 </g>
</svg>