  0
SECTION
  2
HEADER
  9
$ACADVER
  1
AC1014
  9
$HANDSEED
  5
FFFF
  9
$MEASUREMENT
 70
     1
  0
ENDSEC
  0
SECTION
  2
TABLES
  0
TABLE
  2
VPORT
  5
8
330
0
100
AcDbSymbolTable
 70
     4
  0
VPORT
  5
2E
330
8
100
AcDbSymbolTableRecord
100
AcDbViewportTableRecord
  2
*ACTIVE
 70
     0
 10
0.0
 20
0.0
 11
1.0
 21
1.0
 12
210.0
 22
148.5
 13
0.0
 23
0.0
 14
10.0
 24
10.0
 15
10.0
 25
10.0
 16
0.0
 26
0.0
 36
1.0
 17
0.0
 27
0.0
 37
0.0
 40
341.0
 41
1.24
 42
50.0
 43
0.0
 44
0.0
 50
0.0
 51
0.0
 71
     0
 72
   100
 73
     1
 74
     3
 75
     0
 76
     0
 77
     0
 78
     0
  0
ENDTAB
  0
TABLE
  2
LTYPE
  5
5
330
0
100
AcDbSymbolTable
 70
     1
  0
LTYPE
  5
14
330
5
100
AcDbSymbolTableRecord
100
AcDbLinetypeTableRecord
  2
BYBLOCK
 70
     0
  3

 72
    65
 73
     0
 40
0.0
  0
LTYPE
  5
15
330
5
100
AcDbSymbolTableRecord
100
AcDbLinetypeTableRecord
  2
BYLAYER
 70
     0
  3

 72
    65
 73
     0
 40
0.0
  0
LTYPE
  5
16
330
5
100
AcDbSymbolTableRecord
100
AcDbLinetypeTableRecord
  2
CONTINUOUS
 70
     0
  3
Solid line
 72
    65
 73
     0
 40
0.0
  0
ENDTAB
  0
TABLE
  2
LAYER
  5
2
100
AcDbSymbolTable
 70
1
  0
LAYER
  5
50
100
AcDbSymbolTableRecord
100
AcDbLayerTableRecord
  2
0
 70
0
  6
CONTINUOUS
  0
ENDTAB
  0
TABLE
  2
STYLE
  5
3
330
0
100
AcDbSymbolTable
 70
     1
  0
STYLE
  5
11
330
3
100
AcDbSymbolTableRecord
100
AcDbTextStyleTableRecord
  2
STANDARD
 70
     0
 40
0.0
 41
1.0
 50
0.0
 71
     0
 42
2.5
  3
txt
  4

  0
ENDTAB
  0
TABLE
  2
VIEW
  5
6
330
0
100
AcDbSymbolTable
 70
     0
  0
ENDTAB
  0
TABLE
  2
UCS
  5
7
330
0
100
AcDbSymbolTable
 70
     0
  0
ENDTAB
  0
TABLE
  2
APPID
  5
9
330
0
100
AcDbSymbolTable
 70
     2
  0
APPID
  5
12
330
9
100
AcDbSymbolTableRecord
100
AcDbRegAppTableRecord
  2
ACAD
 70
     0
  0
ENDTAB
  0
TABLE
  2
DIMSTYLE
  5
A
330
0
100
AcDbSymbolTable
 70
     1
  0
DIMSTYLE
105
27
330
A
100
AcDbSymbolTableRecord
100
AcDbDimStyleTableRecord
  2
ISO-25
 70
     0
  3

  4

  5

  6

  7

 40
1.0
 41
2.5
 42
0.625
 43
3.75
 44
1.25
 45
0.0
 46
0.0
 47
0.0
 48
0.0
140
2.5
141
2.5
142
0.0
143
0.03937007874016
144
1.0
145
0.0
146
1.0
147
0.625
 71
     0
 72
     0
 73
     0
 74
     0
 75
     0
 76
     0
 77
     1
 78
     8
170
     0
171
     3
172
     1
173
     0
174
     0
175
     0
176
     0
177
     0
178
     0
270
     2
271
     2
272
     2
273
     2
274
     3
340
11
275
     0
280
     0
281
     0
282
     0
283
     0
284
     8
285
     0
286
     0
287
     3
288
     0
  0
ENDTAB
  0
TABLE
  2
BLOCK_RECORD
  5
1
330
0
100
AcDbSymbolTable
 70
     1
  0
BLOCK_RECORD
  5
1F
330
1
100
AcDbSymbolTableRecord
100
AcDbBlockTableRecord
  2
*MODEL_SPACE
  0
BLOCK_RECORD
  5
1B
330
1
100
AcDbSymbolTableRecord
100
AcDbBlockTableRecord
  2
*PAPER_SPACE
  0
ENDTAB
  0
ENDSEC
  0
SECTION
  2
BLOCKS
  0
BLOCK
  5
20
330
1F
100
AcDbEntity
  8
0
100
AcDbBlockBegin
  2
*MODEL_SPACE
 70
     0
 10
0.0
 20
0.0
 30
0.0
  3
*MODEL_SPACE
  1

  0
ENDBLK
  5
21
330
1F
100
AcDbEntity
  8
0
100
AcDbBlockEnd
  0
BLOCK
  5
1C
330
1B
100
AcDbEntity
 67
     1
  8
0
100
AcDbBlockBegin
  2
*PAPER_SPACE
  1

  0
ENDBLK
  5
1D
330
1B
100
AcDbEntity
 67
     1
  8
0
100
AcDbBlockEnd
  0
ENDSEC
  0
SECTION
  2
ENTITIES
  0
SPLINE
  5
100
100
AcDbEntity
  8
0
 62
7
100
AcDbSpline
 70
8
 71
3
 72
8
 73
4
 74
0
 40
0
 40
0
 40
0
 40
0
 40
1
 40
1
 40
1
 40
1
 10
63.557250
 20
35.861250
 30
0.0
 10
59.964750
 20
46.470750
 30
0.0
 10
76.755750
 20
41.551500
 30
0.0
 10
83.428500
 20
42.428250
 30
0.0
  0
SPLINE
  5
101
100
AcDbEntity
  8
0
 62
7
100
AcDbSpline
 70
8
 71
3
 72
8
 73
4
 74
0
 40
0
 40
0
 40
0
 40
0
 40
1
 40
1
 40
1
 40
1
 10
83.428500
 20
42.428250
 30
0.0
 10
81.569250
 20
38.856750
 30
0.0
 10
78.769500
 20
35.145000
 30
0.0
 10
76.860750
 20
31.426500
 30
0.0
  0
SPLINE
  5
102
100
AcDbEntity
  8
0
 62
7
100
AcDbSpline
 70
8
 71
3
 72
8
 73
4
 74
0
 40
0
 40
0
 40
0
 40
0
 40
1
 40
1
 40
1
 40
1
 10
76.860750
 20
31.426500
 30
0.0
 10
74.945250
 20
27.708000
 30
0.0
 10
74.320500
 20
23.364000
 30
0.0
 10
73.492500
 20
18.291000
 30
0.0
  0
SPLINE
  5
103
100
AcDbEntity
  8
0
 62
7
100
AcDbSpline
 70
8
 71
3
 72
8
 73
4
 74
0
 40
0
 40
0
 40
0
 40
0
 40
1
 40
1
 40
1
 40
1
 10
73.492500
 20
18.291000
 30
0.0
 10
71.984250
 20
17.561250
 30
0.0
 10
70.805250
 20
16.488000
 30
0.0
 10
69.114000
 20
15.933000
 30
0.0
  0
SPLINE
  5
104
100
AcDbEntity
  8
0
 62
7
100
AcDbSpline
 70
8
 71
3
 72
8
 73
4
 74
0
 40
0
 40
0
 40
0
 40
0
 40
1
 40
1
 40
1
 40
1
 10
69.114000
 20
15.933000
 30
0.0
 10
69.408750
 20
25.693500
 30
0.0
 10
72.790500
 20
33.783000
 30
0.0
 10
77.919750
 20
39.277500
 30
0.0
  0
SPLINE
  5
105
100
AcDbEntity
  8
0
 62
7
100
AcDbSpline
 70
8
 71
3
 72
8
 73
4
 74
0
 40
0
 40
0
 40
0
 40
0
 40
1
 40
1
 40
1
 40
1
 10
77.919750
 20
39.277500
 30
0.0
 10
74.439750
 20
39.277500
 30
0.0
 10
71.583750
 20
39.564750
 30
0.0
 10
68.103750
 20
39.564750
 30
0.0
  0
SPLINE
  5
106
100
AcDbEntity
  8
0
 62
7
100
AcDbSpline
 70
8
 71
3
 72
8
 73
4
 74
0
 40
0
 40
0
 40
0
 40
0
 40
1
 40
1
 40
1
 40
1
 10
68.103750
 20
39.564750
 30
0.0
 10
67.921500
 20
36.998250
 30
0.0
 10
65.500500
 20
36.668250
 30
0.0
 10
63.557250
 20
35.861250
 30
0.0
  0
SPLINE
  5
107
100
AcDbEntity
  8
0
 62
7
100
AcDbSpline
 70
8
 71
3
 72
8
 73
4
 74
0
 40
0
 40
0
 40
0
 40
0
 40
1
 40
1
 40
1
 40
1
 10
82.418250
 20
41.383500
 30
0.0
 10
82.025250
 20
41.383500
 30
0.0
 10
81.408000
 20
41.383500
 30
0.0
 10
81.008250
 20
41.383500
 30
0.0
  0
SPLINE
  5
108
100
AcDbEntity
  8
0
 62
7
100
AcDbSpline
 70
8
 71
3
 72
8
 73
4
 74
0
 40
0
 40
0
 40
0
 40
0
 40
1
 40
1
 40
1
 40
1
 10
81.008250
 20
41.383500
 30
0.0
 10
79.436250
 20
38.864250
 30
0.0
 10
77.598000
 20
36.471750
 30
0.0
 10
76.188000
 20
33.784500
 30
0.0
  0
SPLINE
  5
109
100
AcDbEntity
  8
0
 62
7
100
AcDbSpline
 70
8
 71
3
 72
8
 73
4
 74
0
 40
0
 40
0
 40
0
 40
0
 40
1
 40
1
 40
1
 40
1
 10
76.188000
 20
33.784500
 30
0.0
 10
76.805250
 20
33.840750
 30
0.0
 10
76.868250
 20
34.451250
 30
0.0
 10
77.703750
 20
34.290000
 30
0.0
  0
SPLINE
  5
10a
100
AcDbEntity
  8
0
 62
7
100
AcDbSpline
 70
8
 71
3
 72
8
 73
4
 74
0
 40
0
 40
0
 40
0
 40
0
 40
1
 40
1
 40
1
 40
1
 10
77.703750
 20
34.290000
 30
0.0
 10
79.078500
 20
36.731250
 30
0.0
 10
80.951250
 20
39.032250
 30
0.0
 10
82.418250
 20
41.383500
 30
0.0
  0
LWPOLYLINE
  5
10b
100
AcDbEntity
  8
0
 62
7
100
AcDbPolyline
 90
1
 70
1
 10
63.557250
 20
35.861250
 30
0.0
  0
SPLINE
  5
10c
100
AcDbEntity
  8
0
 62
7
100
AcDbSpline
 70
8
 71
3
 72
8
 73
4
 74
0
 40
0
 40
0
 40
0
 40
0
 40
1
 40
1
 40
1
 40
1
 10
75.345000
 20
32.437500
 30
0.0
 10
76.004250
 20
32.626500
 30
0.0
 10
77.400750
 20
32.956500
 30
0.0
 10
77.029500
 20
33.615750
 30
0.0
  0
SPLINE
  5
10d
100
AcDbEntity
  8
0
 62
7
100
AcDbSpline
 70
8
 71
3
 72
8
 73
4
 74
0
 40
0
 40
0
 40
0
 40
0
 40
1
 40
1
 40
1
 40
1
 10
77.029500
 20
33.615750
 30
0.0
 10
76.559250
 20
33.131250
 30
0.0
 10
75.471000
 20
33.264750
 30
0.0
 10
75.345000
 20
32.437500
 30
0.0
  0
LWPOLYLINE
  5
10e
100
AcDbEntity
  8
0
 62
7
100
AcDbPolyline
 90
1
 70
1
 10
82.418250
 20
41.383500
 30
0.0
  0
SPLINE
  5
10f
100
AcDbEntity
  8
0
 62
7
100
AcDbSpline
 70
8
 71
3
 72
8
 73
4
 74
0
 40
0
 40
0
 40
0
 40
0
 40
1
 40
1
 40
1
 40
1
 10
74.671500
 20
31.089750
 30
0.0
 10
75.436500
 20
31.223250
 30
0.0
 10
76.243500
 20
31.314000
 30
0.0
 10
76.355250
 20
32.100000
 30
0.0
  0
SPLINE
  5
110
100
AcDbEntity
  8
0
 62
7
100
AcDbSpline
 70
8
 71
3
 72
8
 73
4
 74
0
 40
0
 40
0
 40
0
 40
0
 40
1
 40
1
 40
1
 40
1
 10
76.355250
 20
32.100000
 30
0.0
 10
75.591000
 20
31.967250
 30
0.0
 10
74.860500
 20
31.798500
 30
0.0
 10
74.671500
 20
31.089750
 30
0.0
  0
LWPOLYLINE
  5
111
100
AcDbEntity
  8
0
 62
7
100
AcDbPolyline
 90
1
 70
1
 10
75.345000
 20
32.437500
 30
0.0
  0
SPLINE
  5
112
100
AcDbEntity
  8
0
 62
7
100
AcDbSpline
 70
8
 71
3
 72
8
 73
4
 74
0
 40
0
 40
0
 40
0
 40
0
 40
1
 40
1
 40
1
 40
1
 10
75.681750
 20
30.416250
 30
0.0
 10
75.646500
 20
30.549750
 30
0.0
 10
75.675000
 20
30.746250
 30
0.0
 10
75.513000
 20
30.753000
 30
0.0
  0
SPLINE
  5
113
100
AcDbEntity
  8
0
 62
7
100
AcDbSpline
 70
8
 71
3
 72
8
 73
4
 74
0
 40
0
 40
0
 40
0
 40
0
 40
1
 40
1
 40
1
 40
1
 10
75.513000
 20
30.753000
 30
0.0
 10
75.141000
 20
30.619500
 30
0.0
 10
74.853750
 20
30.402000
 30
0.0
 10
74.334000
 20
30.416250
 30
0.0
  0
SPLINE
  5
114
100
AcDbEntity
  8
0
 62
7
100
AcDbSpline
 70
8
 71
3
 72
8
 73
4
 74
0
 40
0
 40
0
 40
0
 40
0
 40
1
 40
1
 40
1
 40
1
 10
74.334000
 20
30.416250
 30
0.0
 10
72.776250
 20
26.922000
 30
0.0
 10
72.075000
 20
22.572000
 30
0.0
 10
71.471250
 20
18.123000
 30
0.0
  0
SPLINE
  5
115
100
AcDbEntity
  8
0
 62
7
100
AcDbSpline
 70
8
 71
3
 72
8
 73
4
 74
0
 40
0
 40
0
 40
0
 40
0
 40
1
 40
1
 40
1
 40
1
 10
71.471250
 20
18.123000
 30
0.0
 10
73.491750
 20
18.838500
 30
0.0
 10
73.414500
 20
21.870000
 30
0.0
 10
73.829250
 20
24.016500
 30
0.0
  0
SPLINE
  5
116
100
AcDbEntity
  8
0
 62
7
100
AcDbSpline
 70
8
 71
3
 72
8
 73
4
 74
0
 40
0
 40
0
 40
0
 40
0
 40
1
 40
1
 40
1
 40
1
 10
73.829250
 20
24.016500
 30
0.0
 10
74.299500
 20
26.423250
 30
0.0
 10
74.713500
 20
28.774500
 30
0.0
 10
75.681750
 20
30.416250
 30
0.0
  0
LWPOLYLINE
  5
117
100
AcDbEntity
  8
0
 62
7
100
AcDbPolyline
 90
1
 70
1
 10
74.671500
 20
31.089750
 30
0.0
  0
SPLINE
  5
118
100
AcDbEntity
  8
0
 62
7
100
AcDbSpline
 70
8
 71
3
 72
8
 73
4
 74
0
 40
0
 40
0
 40
0
 40
0
 40
1
 40
1
 40
1
 40
1
 10
67.262250
 20
38.190750
 30
0.0
 10
67.262250
 20
38.695500
 30
0.0
 10
67.262250
 20
39.201000
 30
0.0
 10
67.262250
 20
39.706500
 30
0.0
  0
SPLINE
  5
119
100
AcDbEntity
  8
0
 62
7
100
AcDbSpline
 70
8
 71
3
 72
8
 73
4
 74
0
 40
0
 40
0
 40
0
 40
0
 40
1
 40
1
 40
1
 40
1
 10
67.262250
 20
39.706500
 30
0.0
 10
66.813000
 20
39.706500
 30
0.0
 10
66.364500
 20
39.706500
 30
0.0
 10
65.915250
 20
39.706500
 30
0.0
  0
SPLINE
  5
11a
100
AcDbEntity
  8
0
 62
7
100
AcDbSpline
 70
8
 71
3
 72
8
 73
4
 74
0
 40
0
 40
0
 40
0
 40
0
 40
1
 40
1
 40
1
 40
1
 10
65.915250
 20
39.706500
 30
0.0
 10
66.021000
 20
39.026250
 30
0.0
 10
65.697750
 20
37.917750
 30
0.0
 10
66.084000
 20
37.517250
 30
0.0
  0
SPLINE
  5
11b
100
AcDbEntity
  8
0
 62
7
100
AcDbSpline
 70
8
 71
3
 72
8
 73
4
 74
0
 40
0
 40
0
 40
0
 40
0
 40
1
 40
1
 40
1
 40
1
 10
66.084000
 20
37.517250
 30
0.0
 10
66.420000
 20
37.797750
 30
0.0
 10
66.707250
 20
38.127000
 30
0.0
 10
67.262250
 20
38.190750
 30
0.0
  0
LWPOLYLINE
  5
11c
100
AcDbEntity
  8
0
 62
7
100
AcDbPolyline
 90
1
 70
1
 10
75.681750
 20
30.416250
 30
0.0
  0
SPLINE
  5
11d
100
AcDbEntity
  8
0
 62
7
100
AcDbSpline
 70
8
 71
3
 72
8
 73
4
 74
0
 40
0
 40
0
 40
0
 40
0
 40
1
 40
1
 40
1
 40
1
 10
64.076250
 20
110.181750
 30
0.0
 10
64.325250
 20
110.476500
 30
0.0
 10
65.340750
 20
111.800250
 30
0.0
 10
65.448750
 20
112.176750
 30
0.0
  0
SPLINE
  5
11e
100
AcDbEntity
  8
0
 62
7
100
AcDbSpline
 70
8
 71
3
 72
8
 73
4
 74
0
 40
0
 40
0
 40
0
 40
0
 40
1
 40
1
 40
1
 40
1
 10
65.448750
 20
112.176750
 30
0.0
 10
65.484000
 20
112.295250
 30
0.0
 10
68.388750
 20
116.119500
 30
0.0
 10
69.279750
 20
118.650000
 30
0.0
  0
SPLINE
  5
11f
100
AcDbEntity
  8
0
 62
7
100
AcDbSpline
 70
8
 71
3
 72
8
 73
4
 74
0
 40
0
 40
0
 40
0
 40
0
 40
1
 40
1
 40
1
 40
1
 10
69.279750
 20
118.650000
 30
0.0
 10
69.840000
 20
120.239250
 30
0.0
 10
69.719250
 20
122.432250
 30
0.0
 10
69.999750
 20
124.410000
 30
0.0
  0
SPLINE
  5
120
100
AcDbEntity
  8
0
 62
7
100
AcDbSpline
 70
8
 71
3
 72
8
 73
4
 74
0
 40
0
 40
0
 40
0
 40
0
 40
1
 40
1
 40
1
 40
1
 10
69.999750
 20
124.410000
 30
0.0
 10
70.545000
 20
128.244750
 30
0.0
 10
71.066250
 20
131.988750
 30
0.0
 10
71.619750
 20
135.750000
 30
0.0
  0
SPLINE
  5
121
100
AcDbEntity
  8
0
 62
7
100
AcDbSpline
 70
8
 71
3
 72
8
 73
4
 74
0
 40
0
 40
0
 40
0
 40
0
 40
1
 40
1
 40
1
 40
1
 10
71.619750
 20
135.750000
 30
0.0
 10
71.876250
 20
137.493750
 30
0.0
 10
71.669250
 20
140.588250
 30
0.0
 10
73.059750
 20
140.970000
 30
0.0
  0
SPLINE
  5
122
100
AcDbEntity
  8
0
 62
7
100
AcDbSpline
 70
8
 71
3
 72
8
 73
4
 74
0
 40
0
 40
0
 40
0
 40
0
 40
1
 40
1
 40
1
 40
1
 10
73.059750
 20
140.970000
 30
0.0
 10
74.385000
 20
135.869250
 30
0.0
 10
75.015750
 20
129.829500
 30
0.0
 10
75.760500
 20
124.590000
 30
0.0
  0
SPLINE
  5
123
100
AcDbEntity
  8
0
 62
7
100
AcDbSpline
 70
8
 71
3
 72
8
 73
4
 74
0
 40
0
 40
0
 40
0
 40
0
 40
1
 40
1
 40
1
 40
1
 10
75.760500
 20
124.590000
 30
0.0
 10
76.035750
 20
122.646750
 30
0.0
 10
76.379250
 20
120.614250
 30
0.0
 10
76.857000
 20
118.994250
 30
0.0
  0
SPLINE
  5
124
100
AcDbEntity
  8
0
 62
7
100
AcDbSpline
 70
8
 71
3
 72
8
 73
4
 74
0
 40
0
 40
0
 40
0
 40
0
 40
1
 40
1
 40
1
 40
1
 10
76.857000
 20
118.994250
 30
0.0
 10
78.138750
 20
114.651000
 30
0.0
 10
81.200250
 20
111.639000
 30
0.0
 10
81.636750
 20
110.978250
 30
0.0
  0
SPLINE
  5
125
100
AcDbEntity
  8
0
 62
7
100
AcDbSpline
 70
8
 71
3
 72
8
 73
4
 74
0
 40
0
 40
0
 40
0
 40
0
 40
1
 40
1
 40
1
 40
1
 10
81.636750
 20
110.978250
 30
0.0
 10
81.569250
 20
111.290250
 30
0.0
 10
81.489000
 20
111.600750
 30
0.0
 10
81.404250
 20
111.911250
 30
0.0
  0
SPLINE
  5
126
100
AcDbEntity
  8
0
 62
7
100
AcDbSpline
 70
8
 71
3
 72
8
 73
4
 74
0
 40
0
 40
0
 40
0
 40
0
 40
1
 40
1
 40
1
 40
1
 10
81.404250
 20
111.911250
 30
0.0
 10
81.195750
 20
112.173750
 30
0.0
 10
81.000000
 20
112.447500
 30
0.0
 10
80.805750
 20
112.721250
 30
0.0
  0
SPLINE
  5
127
100
AcDbEntity
  8
0
 62
7
100
AcDbSpline
 70
8
 71
3
 72
8
 73
4
 74
0
 40
0
 40
0
 40
0
 40
0
 40
1
 40
1
 40
1
 40
1
 10
80.805750
 20
112.721250
 30
0.0
 10
80.804250
 20
112.716750
 30
0.0
 10
80.801250
 20
112.713750
 30
0.0
 10
80.799750
 20
112.709250
 30
0.0
  0
SPLINE
  5
128
100
AcDbEntity
  8
0
 62
7
100
AcDbSpline
 70
8
 71
3
 72
8
 73
4
 74
0
 40
0
 40
0
 40
0
 40
0
 40
1
 40
1
 40
1
 40
1
 10
80.799750
 20
112.709250
 30
0.0
 10
74.689500
 20
118.778250
 30
0.0
 10
76.610250
 20
132.880500
 30
0.0
 10
73.239750
 20
141.689250
 30
0.0
  0
SPLINE
  5
129
100
AcDbEntity
  8
0
 62
7
100
AcDbSpline
 70
8
 71
3
 72
8
 73
4
 74
0
 40
0
 40
0
 40
0
 40
0
 40
1
 40
1
 40
1
 40
1
 10
73.239750
 20
141.689250
 30
0.0
 10
71.209500
 20
141.096750
 30
0.0
 10
71.501250
 20
138.559500
 30
0.0
 10
71.259000
 20
136.830000
 30
0.0
  0
SPLINE
  5
12a
100
AcDbEntity
  8
0
 62
7
100
AcDbSpline
 70
8
 71
3
 72
8
 73
4
 74
0
 40
0
 40
0
 40
0
 40
0
 40
1
 40
1
 40
1
 40
1
 10
71.259000
 20
136.830000
 30
0.0
 10
70.726500
 20
133.005000
 30
0.0
 10
70.191000
 20
129.019500
 30
0.0
 10
69.639750
 20
124.770000
 30
0.0
  0
SPLINE
  5
12b
100
AcDbEntity
  8
0
 62
7
100
AcDbSpline
 70
8
 71
3
 72
8
 73
4
 74
0
 40
0
 40
0
 40
0
 40
0
 40
1
 40
1
 40
1
 40
1
 10
69.639750
 20
124.770000
 30
0.0
 10
69.380250
 20
122.775000
 30
0.0
 10
69.260250
 20
120.366750
 30
0.0
 10
68.739750
 20
118.830000
 30
0.0
  0
SPLINE
  5
12c
100
AcDbEntity
  8
0
 62
7
100
AcDbSpline
 70
8
 71
3
 72
8
 73
4
 74
0
 40
0
 40
0
 40
0
 40
0
 40
1
 40
1
 40
1
 40
1
 10
68.739750
 20
118.830000
 30
0.0
 10
67.867500
 20
116.253750
 30
0.0
 10
64.755000
 20
111.915750
 30
0.0
 10
64.569000
 20
111.563250
 30
0.0
  0
SPLINE
  5
12d
100
AcDbEntity
  8
0
 62
7
100
AcDbSpline
 70
8
 71
3
 72
8
 73
4
 74
0
 40
0
 40
0
 40
0
 40
0
 40
1
 40
1
 40
1
 40
1
 10
64.569000
 20
111.563250
 30
0.0
 10
64.658250
 20
111.440250
 30
0.0
 10
63.980250
 20
110.299500
 30
0.0
 10
64.076250
 20
110.181750
 30
0.0
  0
LWPOLYLINE
  5
12e
100
AcDbEntity
  8
0
 62
7
100
AcDbPolyline
 90
1
 70
1
 10
67.262250
 20
38.190750
 30
0.0
  0
SPLINE
  5
12f
100
AcDbEntity
  8
0
 62
7
100
AcDbSpline
 70
8
 71
3
 72
8
 73
4
 74
0
 40
0
 40
0
 40
0
 40
0
 40
1
 40
1
 40
1
 40
1
 10
76.365000
 20
83.580000
 30
0.0
 10
76.612500
 20
83.685750
 30
0.0
 10
77.055750
 20
83.892750
 30
0.0
 10
77.019750
 20
83.909250
 30
0.0
  0
SPLINE
  5
130
100
AcDbEntity
  8
0
 62
7
100
AcDbSpline
 70
8
 71
3
 72
8
 73
4
 74
0
 40
0
 40
0
 40
0
 40
0
 40
1
 40
1
 40
1
 40
1
 10
77.019750
 20
83.909250
 30
0.0
 10
78.465750
 20
85.038000
 30
0.0
 10
80.713500
 20
88.211250
 30
0.0
 10
77.919750
 20
89.488500
 30
0.0
  0
SPLINE
  5
131
100
AcDbEntity
  8
0
 62
7
100
AcDbSpline
 70
8
 71
3
 72
8
 73
4
 74
0
 40
0
 40
0
 40
0
 40
0
 40
1
 40
1
 40
1
 40
1
 10
77.919750
 20
89.488500
 30
0.0
 10
76.471500
 20
88.083000
 30
0.0
 10
76.176750
 20
85.875750
 30
0.0
 10
76.365000
 20
83.580000
 30
0.0
  0
LWPOLYLINE
  5
132
100
AcDbEntity
  8
0
 62
7
100
AcDbPolyline
 90
1
 70
1
 10
64.076250
 20
110.181750
 30
0.0
  0
SPLINE
  5
133
100
AcDbEntity
  8
0
 62
7
100
AcDbSpline
 70
8
 71
3
 72
8
 73
4
 74
0
 40
0
 40
0
 40
0
 40
0
 40
1
 40
1
 40
1
 40
1
 10
76.839750
 20
84.990000
 30
0.0
 10
77.193750
 20
86.376000
 30
0.0
 10
77.023500
 20
88.286250
 30
0.0
 10
78.459750
 20
88.590000
 30
0.0
  0
SPLINE
  5
134
100
AcDbEntity
  8
0
 62
7
100
AcDbSpline
 70
8
 71
3
 72
8
 73
4
 74
0
 40
0
 40
0
 40
0
 40
0
 40
1
 40
1
 40
1
 40
1
 10
78.459750
 20
88.590000
 30
0.0
 10
79.330500
 20
87.105750
 30
0.0
 10
78.199500
 20
85.349250
 30
0.0
 10
76.839750
 20
84.990000
 30
0.0
  0
LWPOLYLINE
  5
135
100
AcDbEntity
  8
0
 62
7
100
AcDbPolyline
 90
1
 70
1
 10
76.365000
 20
83.580000
 30
0.0
  0
SPLINE
  5
136
100
AcDbEntity
  8
0
 62
7
100
AcDbSpline
 70
8
 71
3
 72
8
 73
4
 74
0
 40
0
 40
0
 40
0
 40
0
 40
1
 40
1
 40
1
 40
1
 10
92.534250
 20
56.172750
 30
0.0
 10
92.760000
 20
58.569750
 30
0.0
 10
93.134250
 20
60.865500
 30
0.0
 10
93.843750
 20
63.312750
 30
0.0
  0
SPLINE
  5
137
100
AcDbEntity
  8
0
 62
7
100
AcDbSpline
 70
8
 71
3
 72
8
 73
4
 74
0
 40
0
 40
0
 40
0
 40
0
 40
1
 40
1
 40
1
 40
1
 10
93.843750
 20
63.312750
 30
0.0
 10
93.844500
 20
63.315750
 30
0.0
 10
93.843750
 20
63.317250
 30
0.0
 10
93.843000
 20
63.321000
 30
0.0
  0
SPLINE
  5
138
100
AcDbEntity
  8
0
 62
7
100
AcDbSpline
 70
8
 71
3
 72
8
 73
4
 74
0
 40
0
 40
0
 40
0
 40
0
 40
1
 40
1
 40
1
 40
1
 10
93.843000
 20
63.321000
 30
0.0
 10
93.852000
 20
64.015500
 30
0.0
 10
94.049250
 20
64.744500
 30
0.0
 10
93.987750
 20
65.436000
 30
0.0
  0
SPLINE
  5
139
100
AcDbEntity
  8
0
 62
7
100
AcDbSpline
 70
8
 71
3
 72
8
 73
4
 74
0
 40
0
 40
0
 40
0
 40
0
 40
1
 40
1
 40
1
 40
1
 10
93.987750
 20
65.436000
 30
0.0
 10
93.888000
 20
65.149500
 30
0.0
 10
93.684750
 20
64.551000
 30
0.0
 10
93.657750
 20
64.572750
 30
0.0
  0
SPLINE
  5
13a
100
AcDbEntity
  8
0
 62
7
100
AcDbSpline
 70
8
 71
3
 72
8
 73
4
 74
0
 40
0
 40
0
 40
0
 40
0
 40
1
 40
1
 40
1
 40
1
 10
93.657750
 20
64.572750
 30
0.0
 10
93.579750
 20
64.152750
 30
0.0
 10
93.003000
 20
62.629500
 30
0.0
 10
92.969250
 20
62.594250
 30
0.0
  0
SPLINE
  5
13b
100
AcDbEntity
  8
0
 62
7
100
AcDbSpline
 70
8
 71
3
 72
8
 73
4
 74
0
 40
0
 40
0
 40
0
 40
0
 40
1
 40
1
 40
1
 40
1
 10
92.969250
 20
62.594250
 30
0.0
 10
92.454000
 20
61.105500
 30
0.0
 10
91.898250
 20
56.482500
 30
0.0
 10
91.938000
 20
56.438250
 30
0.0
  0
SPLINE
  5
13c
100
AcDbEntity
  8
0
 62
7
100
AcDbSpline
 70
8
 71
3
 72
8
 73
4
 74
0
 40
0
 40
0
 40
0
 40
0
 40
1
 40
1
 40
1
 40
1
 10
91.938000
 20
56.438250
 30
0.0
 10
91.889250
 20
55.521000
 30
0.0
 10
91.852500
 20
54.579000
 30
0.0
 10
91.863750
 20
53.709000
 30
0.0
  0
SPLINE
  5
13d
100
AcDbEntity
  8
0
 62
7
100
AcDbSpline
 70
8
 71
3
 72
8
 73
4
 74
0
 40
0
 40
0
 40
0
 40
0
 40
1
 40
1
 40
1
 40
1
 10
91.863750
 20
53.709000
 30
0.0
 10
92.091750
 20
54.391500
 30
0.0
 10
92.416500
 20
55.274250
 30
0.0
 10
92.534250
 20
56.172750
 30
0.0
  0
LWPOLYLINE
  5
13e
100
AcDbEntity
  8
0
 62
7
100
AcDbPolyline
 90
1
 70
1
 10
76.839750
 20
84.990000
 30
0.0
  0
SPLINE
  5
13f
100
AcDbEntity
  8
0
 62
7
100
AcDbSpline
 70
8
 71
3
 72
8
 73
4
 74
0
 40
0
 40
0
 40
0
 40
0
 40
1
 40
1
 40
1
 40
1
 10
102.235500
 20
68.075250
 30
0.0
 10
101.958750
 20
68.080500
 30
0.0
 10
100.262250
 20
67.865250
 30
0.0
 10
100.218750
 20
67.883250
 30
0.0
  0
SPLINE
  5
140
100
AcDbEntity
  8
0
 62
7
100
AcDbSpline
 70
8
 71
3
 72
8
 73
4
 74
0
 40
0
 40
0
 40
0
 40
0
 40
1
 40
1
 40
1
 40
1
 10
100.218750
 20
67.883250
 30
0.0
 10
98.049000
 20
67.422000
 30
0.0
 10
97.098750
 20
67.206000
 30
0.0
 10
94.824750
 20
66.663000
 30
0.0
  0
SPLINE
  5
141
100
AcDbEntity
  8
0
 62
7
100
AcDbSpline
 70
8
 71
3
 72
8
 73
4
 74
0
 40
0
 40
0
 40
0
 40
0
 40
1
 40
1
 40
1
 40
1
 10
94.824750
 20
66.663000
 30
0.0
 10
94.149750
 20
66.253500
 30
0.0
 10
93.867000
 20
66.223500
 30
0.0
 10
93.368250
 20
65.970000
 30
0.0
  0
SPLINE
  5
142
100
AcDbEntity
  8
0
 62
7
100
AcDbSpline
 70
8
 71
3
 72
8
 73
4
 74
0
 40
0
 40
0
 40
0
 40
0
 40
1
 40
1
 40
1
 40
1
 10
93.368250
 20
65.970000
 30
0.0
 10
93.729000
 20
65.972250
 30
0.0
 10
94.088250
 20
65.987250
 30
0.0
 10
94.431000
 20
66.040500
 30
0.0
  0
SPLINE
  5
143
100
AcDbEntity
  8
0
 62
7
100
AcDbSpline
 70
8
 71
3
 72
8
 73
4
 74
0
 40
0
 40
0
 40
0
 40
0
 40
1
 40
1
 40
1
 40
1
 10
94.431000
 20
66.040500
 30
0.0
 10
94.781250
 20
66.198750
 30
0.0
 10
95.125500
 20
66.316500
 30
0.0
 10
95.502750
 20
66.411000
 30
0.0
  0
SPLINE
  5
144
100
AcDbEntity
  8
0
 62
7
100
AcDbSpline
 70
8
 71
3
 72
8
 73
4
 74
0
 40
0
 40
0
 40
0
 40
0
 40
1
 40
1
 40
1
 40
1
 10
95.502750
 20
66.411000
 30
0.0
 10
95.521500
 20
66.477000
 30
0.0
 10
100.947000
 20
67.535250
 30
0.0
 10
100.954500
 20
67.538250
 30
0.0
  0
SPLINE
  5
145
100
AcDbEntity
  8
0
 62
7
100
AcDbSpline
 70
8
 71
3
 72
8
 73
4
 74
0
 40
0
 40
0
 40
0
 40
0
 40
1
 40
1
 40
1
 40
1
 10
100.954500
 20
67.538250
 30
0.0
 10
100.954500
 20
67.539750
 30
0.0
 10
102.560250
 20
67.743750
 30
0.0
 10
103.291500
 20
67.761000
 30
0.0
  0
SPLINE
  5
146
100
AcDbEntity
  8
0
 62
7
100
AcDbSpline
 70
8
 71
3
 72
8
 73
4
 74
0
 40
0
 40
0
 40
0
 40
0
 40
1
 40
1
 40
1
 40
1
 10
103.291500
 20
67.761000
 30
0.0
 10
102.919500
 20
67.889250
 30
0.0
 10
102.626250
 20
68.040750
 30
0.0
 10
102.235500
 20
68.075250
 30
0.0
  0
LWPOLYLINE
  5
147
100
AcDbEntity
  8
0
 62
7
100
AcDbPolyline
 90
1
 70
1
 10
92.534250
 20
56.172750
 30
0.0
  0
SPLINE
  5
148
100
AcDbEntity
  8
0
 62
7
100
AcDbSpline
 70
8
 71
3
 72
8
 73
4
 74
0
 40
0
 40
0
 40
0
 40
0
 40
1
 40
1
 40
1
 40
1
 10
99.454500
 20
59.263500
 30
0.0
 10
99.441750
 20
59.301750
 30
0.0
 10
99.801000
 20
62.168250
 30
0.0
 10
100.093500
 20
62.671500
 30
0.0
  0
SPLINE
  5
149
100
AcDbEntity
  8
0
 62
7
100
AcDbSpline
 70
8
 71
3
 72
8
 73
4
 74
0
 40
0
 40
0
 40
0
 40
0
 40
1
 40
1
 40
1
 40
1
 10
100.093500
 20
62.671500
 30
0.0
 10
100.083000
 20
62.874750
 30
0.0
 10
100.347750
 20
63.426000
 30
0.0
 10
100.374750
 20
63.625500
 30
0.0
  0
SPLINE
  5
14a
100
AcDbEntity
  8
0
 62
7
100
AcDbSpline
 70
8
 71
3
 72
8
 73
4
 74
0
 40
0
 40
0
 40
0
 40
0
 40
1
 40
1
 40
1
 40
1
 10
100.374750
 20
63.625500
 30
0.0
 10
100.116750
 20
63.492750
 30
0.0
 10
99.867750
 20
63.141750
 30
0.0
 10
99.627750
 20
62.669250
 30
0.0
  0
SPLINE
  5
14b
100
AcDbEntity
  8
0
 62
7
100
AcDbSpline
 70
8
 71
3
 72
8
 73
4
 74
0
 40
0
 40
0
 40
0
 40
0
 40
1
 40
1
 40
1
 40
1
 10
99.627750
 20
62.669250
 30
0.0
 10
99.140250
 20
61.200750
 30
0.0
 10
98.700000
 20
59.169000
 30
0.0
 10
98.734500
 20
57.164250
 30
0.0
  0
SPLINE
  5
14c
100
AcDbEntity
  8
0
 62
7
100
AcDbSpline
 70
8
 71
3
 72
8
 73
4
 74
0
 40
0
 40
0
 40
0
 40
0
 40
1
 40
1
 40
1
 40
1
 10
98.734500
 20
57.164250
 30
0.0
 10
98.759250
 20
55.752750
 30
0.0
 10
99.171750
 20
54.765000
 30
0.0
 10
99.548250
 20
53.167500
 30
0.0
  0
SPLINE
  5
14d
100
AcDbEntity
  8
0
 62
7
100
AcDbSpline
 70
8
 71
3
 72
8
 73
4
 74
0
 40
0
 40
0
 40
0
 40
0
 40
1
 40
1
 40
1
 40
1
 10
99.548250
 20
53.167500
 30
0.0
 10
99.817500
 20
52.461750
 30
0.0
 10
100.432500
 20
51.532500
 30
0.0
 10
100.801500
 20
51.148500
 30
0.0
  0
SPLINE
  5
14e
100
AcDbEntity
  8
0
 62
7
100
AcDbSpline
 70
8
 71
3
 72
8
 73
4
 74
0
 40
0
 40
0
 40
0
 40
0
 40
1
 40
1
 40
1
 40
1
 10
100.801500
 20
51.148500
 30
0.0
 10
100.526250
 20
52.045500
 30
0.0
 10
98.734500
 20
57.164250
 30
0.0
 10
99.454500
 20
59.263500
 30
0.0
  0
LWPOLYLINE
  5
14f
100
AcDbEntity
  8
0
 62
7
100
AcDbPolyline
 90
1
 70
1
 10
102.235500
 20
68.075250
 30
0.0
  0
SPLINE
  5
150
100
AcDbEntity
  8
0
 62
7
100
AcDbSpline
 70
8
 71
3
 72
8
 73
4
 74
0
 40
0
 40
0
 40
0
 40
0
 40
1
 40
1
 40
1
 40
1
 10
94.595250
 20
73.286250
 30
0.0
 10
95.227500
 20
73.184250
 30
0.0
 10
95.145750
 20
73.140000
 30
0.0
 10
95.787000
 20
73.122000
 30
0.0
  0
SPLINE
  5
151
100
AcDbEntity
  8
0
 62
7
100
AcDbSpline
 70
8
 71
3
 72
8
 73
4
 74
0
 40
0
 40
0
 40
0
 40
0
 40
1
 40
1
 40
1
 40
1
 10
95.787000
 20
73.122000
 30
0.0
 10
95.836500
 20
73.120500
 30
0.0
 10
96.372750
 20
73.133250
 30
0.0
 10
96.412500
 20
73.118250
 30
0.0
  0
SPLINE
  5
152
100
AcDbEntity
  8
0
 62
7
100
AcDbSpline
 70
8
 71
3
 72
8
 73
4
 74
0
 40
0
 40
0
 40
0
 40
0
 40
1
 40
1
 40
1
 40
1
 10
96.412500
 20
73.118250
 30
0.0
 10
98.676750
 20
73.538250
 30
0.0
 10
101.550000
 20
73.774500
 30
0.0
 10
103.851000
 20
74.586000
 30
0.0
  0
SPLINE
  5
153
100
AcDbEntity
  8
0
 62
7
100
AcDbSpline
 70
8
 71
3
 72
8
 73
4
 74
0
 40
0
 40
0
 40
0
 40
0
 40
1
 40
1
 40
1
 40
1
 10
103.851000
 20
74.586000
 30
0.0
 10
104.655000
 20
74.811750
 30
0.0
 10
104.378250
 20
74.851500
 30
0.0
 10
104.838750
 20
75.207000
 30
0.0
  0
SPLINE
  5
154
100
AcDbEntity
  8
0
 62
7
100
AcDbSpline
 70
8
 71
3
 72
8
 73
4
 74
0
 40
0
 40
0
 40
0
 40
0
 40
1
 40
1
 40
1
 40
1
 10
104.838750
 20
75.207000
 30
0.0
 10
104.287500
 20
75.147000
 30
0.0
 10
100.443750
 20
74.270250
 30
0.0
 10
99.913500
 20
74.164500
 30
0.0
  0
SPLINE
  5
155
100
AcDbEntity
  8
0
 62
7
100
AcDbSpline
 70
8
 71
3
 72
8
 73
4
 74
0
 40
0
 40
0
 40
0
 40
0
 40
1
 40
1
 40
1
 40
1
 10
99.913500
 20
74.164500
 30
0.0
 10
99.924000
 20
74.187750
 30
0.0
 10
95.478000
 20
73.435500
 30
0.0
 10
94.595250
 20
73.286250
 30
0.0
  0
LWPOLYLINE
  5
156
100
AcDbEntity
  8
0
 62
7
100
AcDbPolyline
 90
1
 70
1
 10
99.454500
 20
59.263500
 30
0.0
  0
SPLINE
  5
157
100
AcDbEntity
  8
0
 62
7
100
AcDbSpline
 70
8
 71
3
 72
8
 73
4
 74
0
 40
0
 40
0
 40
0
 40
0
 40
1
 40
1
 40
1
 40
1
 10
44.001000
 20
67.315500
 30
0.0
 10
43.590750
 20
67.191000
 30
0.0
 10
43.167750
 20
67.107750
 30
0.0
 10
42.743250
 20
67.022250
 30
0.0
  0
SPLINE
  5
158
100
AcDbEntity
  8
0
 62
7
100
AcDbSpline
 70
8
 71
3
 72
8
 73
4
 74
0
 40
0
 40
0
 40
0
 40
0
 40
1
 40
1
 40
1
 40
1
 10
42.743250
 20
67.022250
 30
0.0
 10
43.008750
 20
66.978000
 30
0.0
 10
43.274250
 20
66.935250
 30
0.0
 10
43.539750
 20
66.888000
 30
0.0
  0
SPLINE
  5
159
100
AcDbEntity
  8
0
 62
7
100
AcDbSpline
 70
8
 71
3
 72
8
 73
4
 74
0
 40
0
 40
0
 40
0
 40
0
 40
1
 40
1
 40
1
 40
1
 10
43.539750
 20
66.888000
 30
0.0
 10
44.300250
 20
66.847500
 30
0.0
 10
45.045000
 20
66.798000
 30
0.0
 10
45.782250
 20
66.626250
 30
0.0
  0
SPLINE
  5
15a
100
AcDbEntity
  8
0
 62
7
100
AcDbSpline
 70
8
 71
3
 72
8
 73
4
 74
0
 40
0
 40
0
 40
0
 40
0
 40
1
 40
1
 40
1
 40
1
 10
45.782250
 20
66.626250
 30
0.0
 10
49.897500
 20
65.850750
 30
0.0
 10
52.067250
 20
65.799750
 30
0.0
 10
52.457250
 20
65.706750
 30
0.0
  0
SPLINE
  5
15b
100
AcDbEntity
  8
0
 62
7
100
AcDbSpline
 70
8
 71
3
 72
8
 73
4
 74
0
 40
0
 40
0
 40
0
 40
0
 40
1
 40
1
 40
1
 40
1
 10
52.457250
 20
65.706750
 30
0.0
 10
52.371000
 20
65.812500
 30
0.0
 10
52.281000
 20
65.910000
 30
0.0
 10
52.185750
 20
66.003750
 30
0.0
  0
SPLINE
  5
15c
100
AcDbEntity
  8
0
 62
7
100
AcDbSpline
 70
8
 71
3
 72
8
 73
4
 74
0
 40
0
 40
0
 40
0
 40
0
 40
1
 40
1
 40
1
 40
1
 10
52.185750
 20
66.003750
 30
0.0
 10
52.049250
 20
66.061500
 30
0.0
 10
51.915000
 20
66.129000
 30
0.0
 10
51.777750
 20
66.185250
 30
0.0
  0
SPLINE
  5
15d
100
AcDbEntity
  8
0
 62
7
100
AcDbSpline
 70
8
 71
3
 72
8
 73
4
 74
0
 40
0
 40
0
 40
0
 40
0
 40
1
 40
1
 40
1
 40
1
 10
51.777750
 20
66.185250
 30
0.0
 10
50.238750
 20
66.288000
 30
0.0
 10
47.310000
 20
67.028250
 30
0.0
 10
45.759000
 20
67.239000
 30
0.0
  0
SPLINE
  5
15e
100
AcDbEntity
  8
0
 62
7
100
AcDbSpline
 70
8
 71
3
 72
8
 73
4
 74
0
 40
0
 40
0
 40
0
 40
0
 40
1
 40
1
 40
1
 40
1
 10
45.759000
 20
67.239000
 30
0.0
 10
45.046500
 20
67.430250
 30
0.0
 10
44.668500
 20
67.365000
 30
0.0
 10
44.001000
 20
67.315500
 30
0.0
  0
LWPOLYLINE
  5
15f
100
AcDbEntity
  8
0
 62
7
100
AcDbPolyline
 90
1
 70
1
 10
94.595250
 20
73.286250
 30
0.0
  0
SPLINE
  5
160
100
AcDbEntity
  8
0
 62
7
100
AcDbSpline
 70
8
 71
3
 72
8
 73
4
 74
0
 40
0
 40
0
 40
0
 40
0
 40
1
 40
1
 40
1
 40
1
 10
52.657500
 20
33.688500
 30
0.0
 10
52.364250
 20
32.297250
 30
0.0
 10
52.213500
 20
30.873000
 30
0.0
 10
52.213500
 20
29.424750
 30
0.0
  0
SPLINE
  5
161
100
AcDbEntity
  8
0
 62
7
100
AcDbSpline
 70
8
 71
3
 72
8
 73
4
 74
0
 40
0
 40
0
 40
0
 40
0
 40
1
 40
1
 40
1
 40
1
 10
52.213500
 20
29.424750
 30
0.0
 10
52.213500
 20
28.618500
 30
0.0
 10
52.264500
 20
27.820500
 30
0.0
 10
52.355250
 20
27.030750
 30
0.0
  0
SPLINE
  5
162
100
AcDbEntity
  8
0
 62
7
100
AcDbSpline
 70
8
 71
3
 72
8
 73
4
 74
0
 40
0
 40
0
 40
0
 40
0
 40
1
 40
1
 40
1
 40
1
 10
52.355250
 20
27.030750
 30
0.0
 10
52.656000
 20
27.459750
 30
0.0
 10
53.152500
 20
27.741750
 30
0.0
 10
53.715750
 20
27.741750
 30
0.0
  0
SPLINE
  5
163
100
AcDbEntity
  8
0
 62
7
100
AcDbSpline
 70
8
 71
3
 72
8
 73
4
 74
0
 40
0
 40
0
 40
0
 40
0
 40
1
 40
1
 40
1
 40
1
 10
53.715750
 20
27.741750
 30
0.0
 10
54.634500
 20
27.741750
 30
0.0
 10
55.378500
 20
26.997000
 30
0.0
 10
55.378500
 20
26.078250
 30
0.0
  0
SPLINE
  5
164
100
AcDbEntity
  8
0
 62
7
100
AcDbSpline
 70
8
 71
3
 72
8
 73
4
 74
0
 40
0
 40
0
 40
0
 40
0
 40
1
 40
1
 40
1
 40
1
 10
55.378500
 20
26.078250
 30
0.0
 10
55.378500
 20
25.159500
 30
0.0
 10
54.634500
 20
24.414750
 30
0.0
 10
53.715750
 20
24.414750
 30
0.0
  0
SPLINE
  5
165
100
AcDbEntity
  8
0
 62
7
100
AcDbSpline
 70
8
 71
3
 72
8
 73
4
 74
0
 40
0
 40
0
 40
0
 40
0
 40
1
 40
1
 40
1
 40
1
 10
53.715750
 20
24.414750
 30
0.0
 10
53.357250
 20
24.414750
 30
0.0
 10
53.028000
 20
24.530250
 30
0.0
 10
52.756500
 20
24.723000
 30
0.0
  0
SPLINE
  5
166
100
AcDbEntity
  8
0
 62
7
100
AcDbSpline
 70
8
 71
3
 72
8
 73
4
 74
0
 40
0
 40
0
 40
0
 40
0
 40
1
 40
1
 40
1
 40
1
 10
52.756500
 20
24.723000
 30
0.0
 10
53.020500
 20
23.595000
 30
0.0
 10
53.374500
 20
22.488000
 30
0.0
 10
53.829750
 20
21.411750
 30
0.0
  0
SPLINE
  5
167
100
AcDbEntity
  8
0
 62
7
100
AcDbSpline
 70
8
 71
3
 72
8
 73
4
 74
0
 40
0
 40
0
 40
0
 40
0
 40
1
 40
1
 40
1
 40
1
 10
53.829750
 20
21.411750
 30
0.0
 10
54.450750
 20
19.944000
 30
0.0
 10
55.251000
 20
18.579000
 30
0.0
 10
56.183250
 20
17.304000
 30
0.0
  0
SPLINE
  5
168
100
AcDbEntity
  8
0
 62
7
100
AcDbSpline
 70
8
 71
3
 72
8
 73
4
 74
0
 40
0
 40
0
 40
0
 40
0
 40
1
 40
1
 40
1
 40
1
 10
56.183250
 20
17.304000
 30
0.0
 10
56.307750
 20
18.099750
 30
0.0
 10
56.989500
 20
18.710250
 30
0.0
 10
57.820500
 20
18.710250
 30
0.0
  0
SPLINE
  5
169
100
AcDbEntity
  8
0
 62
7
100
AcDbSpline
 70
8
 71
3
 72
8
 73
4
 74
0
 40
0
 40
0
 40
0
 40
0
 40
1
 40
1
 40
1
 40
1
 10
57.820500
 20
18.710250
 30
0.0
 10
58.739250
 20
18.710250
 30
0.0
 10
59.483250
 20
17.966250
 30
0.0
 10
59.483250
 20
17.047500
 30
0.0
  0
SPLINE
  5
16a
100
AcDbEntity
  8
0
 62
7
100
AcDbSpline
 70
8
 71
3
 72
8
 73
4
 74
0
 40
0
 40
0
 40
0
 40
0
 40
1
 40
1
 40
1
 40
1
 10
59.483250
 20
17.047500
 30
0.0
 10
59.483250
 20
16.128750
 30
0.0
 10
58.739250
 20
15.384750
 30
0.0
 10
57.820500
 20
15.384750
 30
0.0
  0
SPLINE
  5
16b
100
AcDbEntity
  8
0
 62
7
100
AcDbSpline
 70
8
 71
3
 72
8
 73
4
 74
0
 40
0
 40
0
 40
0
 40
0
 40
1
 40
1
 40
1
 40
1
 10
57.820500
 20
15.384750
 30
0.0
 10
57.802500
 20
15.384750
 30
0.0
 10
57.785250
 20
15.389250
 30
0.0
 10
57.767250
 20
15.390000
 30
0.0
  0
SPLINE
  5
16c
100
AcDbEntity
  8
0
 62
7
100
AcDbSpline
 70
8
 71
3
 72
8
 73
4
 74
0
 40
0
 40
0
 40
0
 40
0
 40
1
 40
1
 40
1
 40
1
 10
57.767250
 20
15.390000
 30
0.0
 10
57.928500
 20
15.217500
 30
0.0
 10
58.075500
 20
15.034500
 30
0.0
 10
58.242750
 20
14.867250
 30
0.0
  0
SPLINE
  5
16d
100
AcDbEntity
  8
0
 62
7
100
AcDbSpline
 70
8
 71
3
 72
8
 73
4
 74
0
 40
0
 40
0
 40
0
 40
0
 40
1
 40
1
 40
1
 40
1
 10
58.242750
 20
14.867250
 30
0.0
 10
60.135750
 20
12.974250
 30
0.0
 10
62.337000
 20
11.489250
 30
0.0
 10
64.787250
 20
10.453500
 30
0.0
  0
SPLINE
  5
16e
100
AcDbEntity
  8
0
 62
7
100
AcDbSpline
 70
8
 71
3
 72
8
 73
4
 74
0
 40
0
 40
0
 40
0
 40
0
 40
1
 40
1
 40
1
 40
1
 10
64.787250
 20
10.453500
 30
0.0
 10
65.188500
 20
10.284000
 30
0.0
 10
65.595000
 20
10.132500
 30
0.0
 10
66.004500
 20
9.989250
 30
0.0
  0
SPLINE
  5
16f
100
AcDbEntity
  8
0
 62
7
100
AcDbSpline
 70
8
 71
3
 72
8
 73
4
 74
0
 40
0
 40
0
 40
0
 40
0
 40
1
 40
1
 40
1
 40
1
 10
66.004500
 20
9.989250
 30
0.0
 10
65.778000
 20
10.273500
 30
0.0
 10
65.637000
 20
10.628250
 30
0.0
 10
65.637000
 20
11.019750
 30
0.0
  0
SPLINE
  5
170
100
AcDbEntity
  8
0
 62
7
100
AcDbSpline
 70
8
 71
3
 72
8
 73
4
 74
0
 40
0
 40
0
 40
0
 40
0
 40
1
 40
1
 40
1
 40
1
 10
65.637000
 20
11.019750
 30
0.0
 10
65.637000
 20
11.938500
 30
0.0
 10
66.381750
 20
12.683250
 30
0.0
 10
67.300500
 20
12.683250
 30
0.0
  0
SPLINE
  5
171
100
AcDbEntity
  8
0
 62
7
100
AcDbSpline
 70
8
 71
3
 72
8
 73
4
 74
0
 40
0
 40
0
 40
0
 40
0
 40
1
 40
1
 40
1
 40
1
 10
67.300500
 20
12.683250
 30
0.0
 10
68.219250
 20
12.683250
 30
0.0
 10
68.964000
 20
11.938500
 30
0.0
 10
68.964000
 20
11.019750
 30
0.0
  0
SPLINE
  5
172
100
AcDbEntity
  8
0
 62
7
100
AcDbSpline
 70
8
 71
3
 72
8
 73
4
 74
0
 40
0
 40
0
 40
0
 40
0
 40
1
 40
1
 40
1
 40
1
 10
68.964000
 20
11.019750
 30
0.0
 10
68.964000
 20
10.281750
 30
0.0
 10
68.479500
 20
9.663000
 30
0.0
 10
67.813500
 20
9.446250
 30
0.0
  0
SPLINE
  5
173
100
AcDbEntity
  8
0
 62
7
100
AcDbSpline
 70
8
 71
3
 72
8
 73
4
 74
0
 40
0
 40
0
 40
0
 40
0
 40
1
 40
1
 40
1
 40
1
 10
67.813500
 20
9.446250
 30
0.0
 10
69.433500
 20
9.042750
 30
0.0
 10
71.100750
 20
8.837250
 30
0.0
 10
72.800250
 20
8.837250
 30
0.0
  0
SPLINE
  5
174
100
AcDbEntity
  8
0
 62
7
100
AcDbSpline
 70
8
 71
3
 72
8
 73
4
 74
0
 40
0
 40
0
 40
0
 40
0
 40
1
 40
1
 40
1
 40
1
 10
72.800250
 20
8.837250
 30
0.0
 10
74.572500
 20
8.837250
 30
0.0
 10
76.310250
 20
9.060750
 30
0.0
 10
77.995500
 20
9.499500
 30
0.0
  0
SPLINE
  5
175
100
AcDbEntity
  8
0
 62
7
100
AcDbSpline
 70
8
 71
3
 72
8
 73
4
 74
0
 40
0
 40
0
 40
0
 40
0
 40
1
 40
1
 40
1
 40
1
 10
77.995500
 20
9.499500
 30
0.0
 10
77.410500
 20
9.756750
 30
0.0
 10
77.001000
 20
10.339500
 30
0.0
 10
77.001000
 20
11.019750
 30
0.0
  0
SPLINE
  5
176
100
AcDbEntity
  8
0
 62
7
100
AcDbSpline
 70
8
 71
3
 72
8
 73
4
 74
0
 40
0
 40
0
 40
0
 40
0
 40
1
 40
1
 40
1
 40
1
 10
77.001000
 20
11.019750
 30
0.0
 10
77.001000
 20
11.938500
 30
0.0
 10
77.745000
 20
12.683250
 30
0.0
 10
78.663750
 20
12.683250
 30
0.0
  0
SPLINE
  5
177
100
AcDbEntity
  8
0
 62
7
100
AcDbSpline
 70
8
 71
3
 72
8
 73
4
 74
0
 40
0
 40
0
 40
0
 40
0
 40
1
 40
1
 40
1
 40
1
 10
78.663750
 20
12.683250
 30
0.0
 10
79.582500
 20
12.683250
 30
0.0
 10
80.326500
 20
11.938500
 30
0.0
 10
80.326500
 20
11.019750
 30
0.0
  0
SPLINE
  5
178
100
AcDbEntity
  8
0
 62
7
100
AcDbSpline
 70
8
 71
3
 72
8
 73
4
 74
0
 40
0
 40
0
 40
0
 40
0
 40
1
 40
1
 40
1
 40
1
 10
80.326500
 20
11.019750
 30
0.0
 10
80.326500
 20
10.707000
 30
0.0
 10
80.235000
 20
10.417500
 30
0.0
 10
80.084250
 20
10.167000
 30
0.0
  0
SPLINE
  5
179
100
AcDbEntity
  8
0
 62
7
100
AcDbSpline
 70
8
 71
3
 72
8
 73
4
 74
0
 40
0
 40
0
 40
0
 40
0
 40
1
 40
1
 40
1
 40
1
 10
80.084250
 20
10.167000
 30
0.0
 10
80.328000
 20
10.259250
 30
0.0
 10
80.571750
 20
10.352250
 30
0.0
 10
80.812500
 20
10.453500
 30
0.0
  0
SPLINE
  5
17a
100
AcDbEntity
  8
0
 62
7
100
AcDbSpline
 70
8
 71
3
 72
8
 73
4
 74
0
 40
0
 40
0
 40
0
 40
0
 40
1
 40
1
 40
1
 40
1
 10
80.812500
 20
10.453500
 30
0.0
 10
83.262000
 20
11.489250
 30
0.0
 10
85.464000
 20
12.974250
 30
0.0
 10
87.356250
 20
14.867250
 30
0.0
  0
SPLINE
  5
17b
100
AcDbEntity
  8
0
 62
7
100
AcDbSpline
 70
8
 71
3
 72
8
 73
4
 74
0
 40
0
 40
0
 40
0
 40
0
 40
1
 40
1
 40
1
 40
1
 10
87.356250
 20
14.867250
 30
0.0
 10
87.525750
 20
15.036750
 30
0.0
 10
87.673500
 20
15.221250
 30
0.0
 10
87.836250
 20
15.395250
 30
0.0
  0
SPLINE
  5
17c
100
AcDbEntity
  8
0
 62
7
100
AcDbSpline
 70
8
 71
3
 72
8
 73
4
 74
0
 40
0
 40
0
 40
0
 40
0
 40
1
 40
1
 40
1
 40
1
 10
87.836250
 20
15.395250
 30
0.0
 10
87.799500
 20
15.393000
 30
0.0
 10
87.763500
 20
15.384000
 30
0.0
 10
87.726000
 20
15.384000
 30
0.0
  0
SPLINE
  5
17d
100
AcDbEntity
  8
0
 62
7
100
AcDbSpline
 70
8
 71
3
 72
8
 73
4
 74
0
 40
0
 40
0
 40
0
 40
0
 40
1
 40
1
 40
1
 40
1
 10
87.726000
 20
15.384000
 30
0.0
 10
86.807250
 20
15.384000
 30
0.0
 10
86.063250
 20
16.128750
 30
0.0
 10
86.063250
 20
17.047500
 30
0.0
  0
SPLINE
  5
17e
100
AcDbEntity
  8
0
 62
7
100
AcDbSpline
 70
8
 71
3
 72
8
 73
4
 74
0
 40
0
 40
0
 40
0
 40
0
 40
1
 40
1
 40
1
 40
1
 10
86.063250
 20
17.047500
 30
0.0
 10
86.063250
 20
17.966250
 30
0.0
 10
86.807250
 20
18.710250
 30
0.0
 10
87.726000
 20
18.710250
 30
0.0
  0
SPLINE
  5
17f
100
AcDbEntity
  8
0
 62
7
100
AcDbSpline
 70
8
 71
3
 72
8
 73
4
 74
0
 40
0
 40
0
 40
0
 40
0
 40
1
 40
1
 40
1
 40
1
 10
87.726000
 20
18.710250
 30
0.0
 10
88.578000
 20
18.710250
 30
0.0
 10
89.272500
 20
18.066750
 30
0.0
 10
89.369250
 20
17.241000
 30
0.0
  0
SPLINE
  5
180
100
AcDbEntity
  8
0
 62
7
100
AcDbSpline
 70
8
 71
3
 72
8
 73
4
 74
0
 40
0
 40
0
 40
0
 40
0
 40
1
 40
1
 40
1
 40
1
 10
89.369250
 20
17.241000
 30
0.0
 10
90.322500
 20
18.534750
 30
0.0
 10
91.139250
 20
19.920750
 30
0.0
 10
91.770000
 20
21.411750
 30
0.0
  0
SPLINE
  5
181
100
AcDbEntity
  8
0
 62
7
100
AcDbSpline
 70
8
 71
3
 72
8
 73
4
 74
0
 40
0
 40
0
 40
0
 40
0
 40
1
 40
1
 40
1
 40
1
 10
91.770000
 20
21.411750
 30
0.0
 10
92.211000
 20
22.454250
 30
0.0
 10
92.557500
 20
23.525250
 30
0.0
 10
92.818500
 20
24.616500
 30
0.0
  0
SPLINE
  5
182
100
AcDbEntity
  8
0
 62
7
100
AcDbSpline
 70
8
 71
3
 72
8
 73
4
 74
0
 40
0
 40
0
 40
0
 40
0
 40
1
 40
1
 40
1
 40
1
 10
92.818500
 20
24.616500
 30
0.0
 10
92.585250
 20
24.492000
 30
0.0
 10
92.323500
 20
24.414750
 30
0.0
 10
92.041500
 20
24.414750
 30
0.0
  0
SPLINE
  5
183
100
AcDbEntity
  8
0
 62
7
100
AcDbSpline
 70
8
 71
3
 72
8
 73
4
 74
0
 40
0
 40
0
 40
0
 40
0
 40
1
 40
1
 40
1
 40
1
 10
92.041500
 20
24.414750
 30
0.0
 10
91.122750
 20
24.414750
 30
0.0
 10
90.378750
 20
25.159500
 30
0.0
 10
90.378750
 20
26.078250
 30
0.0
  0
SPLINE
  5
184
100
AcDbEntity
  8
0
 62
7
100
AcDbSpline
 70
8
 71
3
 72
8
 73
4
 74
0
 40
0
 40
0
 40
0
 40
0
 40
1
 40
1
 40
1
 40
1
 10
90.378750
 20
26.078250
 30
0.0
 10
90.378750
 20
26.997000
 30
0.0
 10
91.122750
 20
27.741000
 30
0.0
 10
92.041500
 20
27.741000
 30
0.0
  0
SPLINE
  5
185
100
AcDbEntity
  8
0
 62
7
100
AcDbSpline
 70
8
 71
3
 72
8
 73
4
 74
0
 40
0
 40
0
 40
0
 40
0
 40
1
 40
1
 40
1
 40
1
 10
92.041500
 20
27.741000
 30
0.0
 10
92.527500
 20
27.741000
 30
0.0
 10
92.961000
 20
27.528750
 30
0.0
 10
93.264750
 20
27.195750
 30
0.0
  0
SPLINE
  5
186
100
AcDbEntity
  8
0
 62
7
100
AcDbSpline
 70
8
 71
3
 72
8
 73
4
 74
0
 40
0
 40
0
 40
0
 40
0
 40
1
 40
1
 40
1
 40
1
 10
93.264750
 20
27.195750
 30
0.0
 10
93.343500
 20
27.931500
 30
0.0
 10
93.386250
 20
28.674000
 30
0.0
 10
93.386250
 20
29.423250
 30
0.0
  0
SPLINE
  5
187
100
AcDbEntity
  8
0
 62
7
100
AcDbSpline
 70
8
 71
3
 72
8
 73
4
 74
0
 40
0
 40
0
 40
0
 40
0
 40
1
 40
1
 40
1
 40
1
 10
93.386250
 20
29.423250
 30
0.0
 10
93.386250
 20
30.920250
 30
0.0
 10
93.223500
 20
32.391000
 30
0.0
 10
92.910750
 20
33.826500
 30
0.0
  0
SPLINE
  5
188
100
AcDbEntity
  8
0
 62
7
100
AcDbSpline
 70
8
 71
3
 72
8
 73
4
 74
0
 40
0
 40
0
 40
0
 40
0
 40
1
 40
1
 40
1
 40
1
 10
92.910750
 20
33.826500
 30
0.0
 10
91.908750
 20
34.662000
 30
0.0
 10
90.997500
 20
35.797500
 30
0.0
 10
90.273750
 20
36.864000
 30
0.0
  0
SPLINE
  5
189
100
AcDbEntity
  8
0
 62
7
100
AcDbSpline
 70
8
 71
3
 72
8
 73
4
 74
0
 40
0
 40
0
 40
0
 40
0
 40
1
 40
1
 40
1
 40
1
 10
90.273750
 20
36.864000
 30
0.0
 10
89.518500
 20
37.977000
 30
0.0
 10
88.336500
 20
40.698000
 30
0.0
 10
88.125000
 20
41.274000
 30
0.0
  0
SPLINE
  5
18a
100
AcDbEntity
  8
0
 62
7
100
AcDbSpline
 70
8
 71
3
 72
8
 73
4
 74
0
 40
0
 40
0
 40
0
 40
0
 40
1
 40
1
 40
1
 40
1
 10
88.125000
 20
41.274000
 30
0.0
 10
87.741000
 20
42.317250
 30
0.0
 10
87.331500
 20
43.364250
 30
0.0
 10
86.920500
 20
44.376750
 30
0.0
  0
SPLINE
  5
18b
100
AcDbEntity
  8
0
 62
7
100
AcDbSpline
 70
8
 71
3
 72
8
 73
4
 74
0
 40
0
 40
0
 40
0
 40
0
 40
1
 40
1
 40
1
 40
1
 10
86.920500
 20
44.376750
 30
0.0
 10
85.125000
 20
46.073250
 30
0.0
 10
83.081250
 20
47.433750
 30
0.0
 10
80.813250
 20
48.392250
 30
0.0
  0
SPLINE
  5
18c
100
AcDbEntity
  8
0
 62
7
100
AcDbSpline
 70
8
 71
3
 72
8
 73
4
 74
0
 40
0
 40
0
 40
0
 40
0
 40
1
 40
1
 40
1
 40
1
 10
80.813250
 20
48.392250
 30
0.0
 10
78.276750
 20
49.465500
 30
0.0
 10
75.580500
 20
50.009250
 30
0.0
 10
72.801000
 20
50.009250
 30
0.0
  0
SPLINE
  5
18d
100
AcDbEntity
  8
0
 62
7
100
AcDbSpline
 70
8
 71
3
 72
8
 73
4
 74
0
 40
0
 40
0
 40
0
 40
0
 40
1
 40
1
 40
1
 40
1
 10
72.801000
 20
50.009250
 30
0.0
 10
70.020000
 20
50.009250
 30
0.0
 10
67.324500
 20
49.465500
 30
0.0
 10
64.788000
 20
48.392250
 30
0.0
  0
SPLINE
  5
18e
100
AcDbEntity
  8
0
 62
7
100
AcDbSpline
 70
8
 71
3
 72
8
 73
4
 74
0
 40
0
 40
0
 40
0
 40
0
 40
1
 40
1
 40
1
 40
1
 10
64.788000
 20
48.392250
 30
0.0
 10
62.850750
 20
47.573250
 30
0.0
 10
61.077000
 20
46.463250
 30
0.0
 10
59.479500
 20
45.102750
 30
0.0
  0
SPLINE
  5
18f
100
AcDbEntity
  8
0
 62
7
100
AcDbSpline
 70
8
 71
3
 72
8
 73
4
 74
0
 40
0
 40
0
 40
0
 40
0
 40
1
 40
1
 40
1
 40
1
 10
59.479500
 20
45.102750
 30
0.0
 10
58.869000
 20
43.395000
 30
0.0
 10
58.262250
 20
41.885250
 30
0.0
 10
57.594750
 20
40.216500
 30
0.0
  0
SPLINE
  5
190
100
AcDbEntity
  8
0
 62
7
100
AcDbSpline
 70
8
 71
3
 72
8
 73
4
 74
0
 40
0
 40
0
 40
0
 40
0
 40
1
 40
1
 40
1
 40
1
 10
57.594750
 20
40.216500
 30
0.0
 10
57.358500
 20
39.625500
 30
0.0
 10
55.922250
 20
37.181250
 30
0.0
 10
55.397250
 20
36.513000
 30
0.0
  0
SPLINE
  5
191
100
AcDbEntity
  8
0
 62
7
100
AcDbSpline
 70
8
 71
3
 72
8
 73
4
 74
0
 40
0
 40
0
 40
0
 40
0
 40
1
 40
1
 40
1
 40
1
 10
55.397250
 20
36.513000
 30
0.0
 10
54.596250
 20
35.497500
 30
0.0
 10
53.698500
 20
34.439250
 30
0.0
 10
52.657500
 20
33.688500
 30
0.0
  0
LWPOLYLINE
  5
192
100
AcDbEntity
  8
0
 62
7
100
AcDbPolyline
 90
1
 70
1
 10
44.001000
 20
67.315500
 30
0.0
  0
SPLINE
  5
193
100
AcDbEntity
  8
0
 62
7
100
AcDbSpline
 70
8
 71
3
 72
8
 73
4
 74
0
 40
0
 40
0
 40
0
 40
0
 40
1
 40
1
 40
1
 40
1
 10
71.138250
 20
46.635750
 30
0.0
 10
78.112500
 20
47.379750
 30
0.0
 10
84.125250
 20
43.660500
 30
0.0
 10
86.967000
 20
39.731250
 30
0.0
  0
SPLINE
  5
194
100
AcDbEntity
  8
0
 62
7
100
AcDbSpline
 70
8
 71
3
 72
8
 73
4
 74
0
 40
0
 40
0
 40
0
 40
0
 40
1
 40
1
 40
1
 40
1
 10
86.967000
 20
39.731250
 30
0.0
 10
88.482750
 20
37.640250
 30
0.0
 10
89.970000
 20
33.500250
 30
0.0
 10
90.168000
 20
30.806250
 30
0.0
  0
SPLINE
  5
195
100
AcDbEntity
  8
0
 62
7
100
AcDbSpline
 70
8
 71
3
 72
8
 73
4
 74
0
 40
0
 40
0
 40
0
 40
0
 40
1
 40
1
 40
1
 40
1
 10
90.168000
 20
30.806250
 30
0.0
 10
90.933000
 20
20.127000
 30
0.0
 10
82.554750
 20
11.503500
 30
0.0
 10
71.643750
 20
12.282750
 30
0.0
  0
SPLINE
  5
196
100
AcDbEntity
  8
0
 62
7
100
AcDbSpline
 70
8
 71
3
 72
8
 73
4
 74
0
 40
0
 40
0
 40
0
 40
0
 40
1
 40
1
 40
1
 40
1
 10
71.643750
 20
12.282750
 30
0.0
 10
62.775000
 20
12.921750
 30
0.0
 10
54.965250
 20
20.205000
 30
0.0
 10
55.646250
 20
30.639000
 30
0.0
  0
SPLINE
  5
197
100
AcDbEntity
  8
0
 62
7
100
AcDbSpline
 70
8
 71
3
 72
8
 73
4
 74
0
 40
0
 40
0
 40
0
 40
0
 40
1
 40
1
 40
1
 40
1
 10
55.646250
 20
30.639000
 30
0.0
 10
55.947750
 20
35.214000
 30
0.0
 10
57.834750
 20
38.335500
 30
0.0
 10
58.845750
 20
39.732000
 30
0.0
  0
SPLINE
  5
198
100
AcDbEntity
  8
0
 62
7
100
AcDbSpline
 70
8
 71
3
 72
8
 73
4
 74
0
 40
0
 40
0
 40
0
 40
0
 40
1
 40
1
 40
1
 40
1
 10
58.845750
 20
39.732000
 30
0.0
 10
61.314750
 20
43.134750
 30
0.0
 10
65.391000
 20
46.017750
 30
0.0
 10
71.138250
 20
46.635750
 30
0.0
  0
LWPOLYLINE
  5
199
100
AcDbEntity
  8
0
 62
7
100
AcDbPolyline
 90
1
 70
1
 10
52.657500
 20
33.688500
 30
0.0
  0
SPLINE
  5
19a
100
AcDbEntity
  8
0
 62
7
100
AcDbSpline
 70
8
 71
3
 72
8
 73
4
 74
0
 40
0
 40
0
 40
0
 40
0
 40
1
 40
1
 40
1
 40
1
 10
47.223750
 20
59.469000
 30
0.0
 10
47.121000
 20
60.369000
 30
0.0
 10
46.764000
 20
61.480500
 30
0.0
 10
46.524750
 20
62.343000
 30
0.0
  0
SPLINE
  5
19b
100
AcDbEntity
  8
0
 62
7
100
AcDbSpline
 70
8
 71
3
 72
8
 73
4
 74
0
 40
0
 40
0
 40
0
 40
0
 40
1
 40
1
 40
1
 40
1
 10
46.524750
 20
62.343000
 30
0.0
 10
46.275750
 20
62.602500
 30
0.0
 10
45.918750
 20
63.417000
 30
0.0
 10
45.624750
 20
63.624750
 30
0.0
  0
SPLINE
  5
19c
100
AcDbEntity
  8
0
 62
7
100
AcDbSpline
 70
8
 71
3
 72
8
 73
4
 74
0
 40
0
 40
0
 40
0
 40
0
 40
1
 40
1
 40
1
 40
1
 10
45.624750
 20
63.624750
 30
0.0
 10
45.683250
 20
63.336000
 30
0.0
 10
45.702750
 20
62.527500
 30
0.0
 10
45.684000
 20
62.236500
 30
0.0
  0
SPLINE
  5
19d
100
AcDbEntity
  8
0
 62
7
100
AcDbSpline
 70
8
 71
3
 72
8
 73
4
 74
0
 40
0
 40
0
 40
0
 40
0
 40
1
 40
1
 40
1
 40
1
 10
45.684000
 20
62.236500
 30
0.0
 10
47.202000
 20
59.670000
 30
0.0
 10
46.638750
 20
55.465500
 30
0.0
 10
45.957750
 20
52.971750
 30
0.0
  0
SPLINE
  5
19e
100
AcDbEntity
  8
0
 62
7
100
AcDbSpline
 70
8
 71
3
 72
8
 73
4
 74
0
 40
0
 40
0
 40
0
 40
0
 40
1
 40
1
 40
1
 40
1
 10
45.957750
 20
52.971750
 30
0.0
 10
45.808500
 20
52.426500
 30
0.0
 10
45.297750
 20
51.731250
 30
0.0
 10
45.180000
 20
51.363000
 30
0.0
  0
SPLINE
  5
19f
100
AcDbEntity
  8
0
 62
7
100
AcDbSpline
 70
8
 71
3
 72
8
 73
4
 74
0
 40
0
 40
0
 40
0
 40
0
 40
1
 40
1
 40
1
 40
1
 10
45.180000
 20
51.363000
 30
0.0
 10
45.045750
 20
50.940750
 30
0.0
 10
45.186750
 20
50.744250
 30
0.0
 10
45.165000
 20
50.647500
 30
0.0
  0
SPLINE
  5
1a0
100
AcDbEntity
  8
0
 62
7
100
AcDbSpline
 70
8
 71
3
 72
8
 73
4
 74
0
 40
0
 40
0
 40
0
 40
0
 40
1
 40
1
 40
1
 40
1
 10
45.165000
 20
50.647500
 30
0.0
 10
45.732000
 20
51.298500
 30
0.0
 10
46.217250
 20
52.560750
 30
0.0
 10
46.612500
 20
53.319750
 30
0.0
  0
SPLINE
  5
1a1
100
AcDbEntity
  8
0
 62
7
100
AcDbSpline
 70
8
 71
3
 72
8
 73
4
 74
0
 40
0
 40
0
 40
0
 40
0
 40
1
 40
1
 40
1
 40
1
 10
46.612500
 20
53.319750
 30
0.0
 10
47.358750
 20
55.764750
 30
0.0
 10
47.468250
 20
57.350250
 30
0.0
 10
47.223750
 20
59.469000
 30
0.0
  0
LWPOLYLINE
  5
1a2
100
AcDbEntity
  8
0
 62
7
100
AcDbPolyline
 90
1
 70
1
 10
71.138250
 20
46.635750
 30
0.0
  0
SPLINE
  5
1a3
100
AcDbEntity
  8
0
 62
7
100
AcDbSpline
 70
8
 71
3
 72
8
 73
4
 74
0
 40
0
 40
0
 40
0
 40
0
 40
1
 40
1
 40
1
 40
1
 10
33.440250
 20
41.084250
 30
0.0
 10
34.143750
 20
41.193750
 30
0.0
 10
33.890250
 20
41.476500
 30
0.0
 10
34.881750
 20
41.385000
 30
0.0
  0
SPLINE
  5
1a4
100
AcDbEntity
  8
0
 62
7
100
AcDbSpline
 70
8
 71
3
 72
8
 73
4
 74
0
 40
0
 40
0
 40
0
 40
0
 40
1
 40
1
 40
1
 40
1
 10
34.881750
 20
41.385000
 30
0.0
 10
35.100750
 20
41.364750
 30
0.0
 10
35.424000
 20
41.315250
 30
0.0
 10
35.709750
 20
41.416500
 30
0.0
  0
SPLINE
  5
1a5
100
AcDbEntity
  8
0
 62
7
100
AcDbSpline
 70
8
 71
3
 72
8
 73
4
 74
0
 40
0
 40
0
 40
0
 40
0
 40
1
 40
1
 40
1
 40
1
 10
35.709750
 20
41.416500
 30
0.0
 10
36.097500
 20
41.553750
 30
0.0
 10
37.119750
 20
43.149000
 30
0.0
 10
37.149750
 20
43.183500
 30
0.0
  0
SPLINE
  5
1a6
100
AcDbEntity
  8
0
 62
7
100
AcDbSpline
 70
8
 71
3
 72
8
 73
4
 74
0
 40
0
 40
0
 40
0
 40
0
 40
1
 40
1
 40
1
 40
1
 10
37.149750
 20
43.183500
 30
0.0
 10
37.127250
 20
43.179750
 30
0.0
 10
37.156500
 20
43.432500
 30
0.0
 10
37.131750
 20
43.432500
 30
0.0
  0
SPLINE
  5
1a7
100
AcDbEntity
  8
0
 62
7
100
AcDbSpline
 70
8
 71
3
 72
8
 73
4
 74
0
 40
0
 40
0
 40
0
 40
0
 40
1
 40
1
 40
1
 40
1
 10
37.131750
 20
43.432500
 30
0.0
 10
36.965250
 20
43.365750
 30
0.0
 10
36.474750
 20
42.799500
 30
0.0
 10
36.415500
 20
42.798000
 30
0.0
  0
SPLINE
  5
1a8
100
AcDbEntity
  8
0
 62
7
100
AcDbSpline
 70
8
 71
3
 72
8
 73
4
 74
0
 40
0
 40
0
 40
0
 40
0
 40
1
 40
1
 40
1
 40
1
 10
36.415500
 20
42.798000
 30
0.0
 10
36.003750
 20
42.504750
 30
0.0
 10
35.633250
 20
41.951250
 30
0.0
 10
35.350500
 20
41.931750
 30
0.0
  0
SPLINE
  5
1a9
100
AcDbEntity
  8
0
 62
7
100
AcDbSpline
 70
8
 71
3
 72
8
 73
4
 74
0
 40
0
 40
0
 40
0
 40
0
 40
1
 40
1
 40
1
 40
1
 10
35.350500
 20
41.931750
 30
0.0
 10
34.647000
 20
41.884500
 30
0.0
 10
34.937250
 20
41.841000
 30
0.0
 10
34.303500
 20
41.947500
 30
0.0
  0
SPLINE
  5
1aa
100
AcDbEntity
  8
0
 62
7
100
AcDbSpline
 70
8
 71
3
 72
8
 73
4
 74
0
 40
0
 40
0
 40
0
 40
0
 40
1
 40
1
 40
1
 40
1
 10
34.303500
 20
41.947500
 30
0.0
 10
33.726750
 20
42.044250
 30
0.0
 10
33.879000
 20
41.650500
 30
0.0
 10
33.428250
 20
41.666250
 30
0.0
  0
SPLINE
  5
1ab
100
AcDbEntity
  8
0
 62
7
100
AcDbSpline
 70
8
 71
3
 72
8
 73
4
 74
0
 40
0
 40
0
 40
0
 40
0
 40
1
 40
1
 40
1
 40
1
 10
33.428250
 20
41.666250
 30
0.0
 10
33.069750
 20
41.678250
 30
0.0
 10
32.908500
 20
42.414000
 30
0.0
 10
32.616000
 20
43.442250
 30
0.0
  0
SPLINE
  5
1ac
100
AcDbEntity
  8
0
 62
7
100
AcDbSpline
 70
8
 71
3
 72
8
 73
4
 74
0
 40
0
 40
0
 40
0
 40
0
 40
1
 40
1
 40
1
 40
1
 10
32.616000
 20
43.442250
 30
0.0
 10
32.446500
 20
43.524750
 30
0.0
 10
32.427750
 20
43.878750
 30
0.0
 10
32.256750
 20
43.962750
 30
0.0
  0
SPLINE
  5
1ad
100
AcDbEntity
  8
0
 62
7
100
AcDbSpline
 70
8
 71
3
 72
8
 73
4
 74
0
 40
0
 40
0
 40
0
 40
0
 40
1
 40
1
 40
1
 40
1
 10
32.256750
 20
43.962750
 30
0.0
 10
32.379750
 20
43.130250
 30
0.0
 10
32.702250
 20
40.969500
 30
0.0
 10
33.440250
 20
41.084250
 30
0.0
  0
LWPOLYLINE
  5
1ae
100
AcDbEntity
  8
0
 62
7
100
AcDbPolyline
 90
1
 70
1
 10
47.223750
 20
59.469000
 30
0.0
  0
SPLINE
  5
1af
100
AcDbEntity
  8
0
 62
7
100
AcDbSpline
 70
8
 71
3
 72
8
 73
4
 74
0
 40
0
 40
0
 40
0
 40
0
 40
1
 40
1
 40
1
 40
1
 10
34.178250
 20
37.275750
 30
0.0
 10
32.772000
 20
37.698000
 30
0.0
 10
32.748750
 20
37.767750
 30
0.0
 10
31.623750
 20
37.674000
 30
0.0
  0
SPLINE
  5
1b0
100
AcDbEntity
  8
0
 62
7
100
AcDbSpline
 70
8
 71
3
 72
8
 73
4
 74
0
 40
0
 40
0
 40
0
 40
0
 40
1
 40
1
 40
1
 40
1
 10
31.623750
 20
37.674000
 30
0.0
 10
30.720750
 20
37.599000
 30
0.0
 10
29.045250
 20
38.096250
 30
0.0
 10
27.897000
 20
38.002500
 30
0.0
  0
SPLINE
  5
1b1
100
AcDbEntity
  8
0
 62
7
100
AcDbSpline
 70
8
 71
3
 72
8
 73
4
 74
0
 40
0
 40
0
 40
0
 40
0
 40
1
 40
1
 40
1
 40
1
 10
27.897000
 20
38.002500
 30
0.0
 10
27.710250
 20
37.980000
 30
0.0
 10
27.741000
 20
37.806000
 30
0.0
 10
27.639000
 20
37.744500
 30
0.0
  0
SPLINE
  5
1b2
100
AcDbEntity
  8
0
 62
7
100
AcDbSpline
 70
8
 71
3
 72
8
 73
4
 74
0
 40
0
 40
0
 40
0
 40
0
 40
1
 40
1
 40
1
 40
1
 10
27.639000
 20
37.744500
 30
0.0
 10
27.421500
 20
37.614000
 30
0.0
 10
27.656250
 20
37.498500
 30
0.0
 10
28.084500
 20
37.557000
 30
0.0
  0
SPLINE
  5
1b3
100
AcDbEntity
  8
0
 62
7
100
AcDbSpline
 70
8
 71
3
 72
8
 73
4
 74
0
 40
0
 40
0
 40
0
 40
0
 40
1
 40
1
 40
1
 40
1
 10
28.084500
 20
37.557000
 30
0.0
 10
28.462500
 20
37.608750
 30
0.0
 10
28.696500
 20
37.597500
 30
0.0
 10
29.280000
 20
37.486500
 30
0.0
  0
SPLINE
  5
1b4
100
AcDbEntity
  8
0
 62
7
100
AcDbSpline
 70
8
 71
3
 72
8
 73
4
 74
0
 40
0
 40
0
 40
0
 40
0
 40
1
 40
1
 40
1
 40
1
 10
29.280000
 20
37.486500
 30
0.0
 10
30.083250
 20
37.333500
 30
0.0
 10
31.209750
 20
37.158000
 30
0.0
 10
31.998750
 20
37.064250
 30
0.0
  0
SPLINE
  5
1b5
100
AcDbEntity
  8
0
 62
7
100
AcDbSpline
 70
8
 71
3
 72
8
 73
4
 74
0
 40
0
 40
0
 40
0
 40
0
 40
1
 40
1
 40
1
 40
1
 10
31.998750
 20
37.064250
 30
0.0
 10
32.175750
 20
37.043250
 30
0.0
 10
32.582250
 20
37.234500
 30
0.0
 10
32.685750
 20
37.195500
 30
0.0
  0
SPLINE
  5
1b6
100
AcDbEntity
  8
0
 62
7
100
AcDbSpline
 70
8
 71
3
 72
8
 73
4
 74
0
 40
0
 40
0
 40
0
 40
0
 40
1
 40
1
 40
1
 40
1
 10
32.685750
 20
37.195500
 30
0.0
 10
33.860250
 20
36.753000
 30
0.0
 10
34.337250
 20
36.513750
 30
0.0
 10
35.092500
 20
36.337500
 30
0.0
  0
SPLINE
  5
1b7
100
AcDbEntity
  8
0
 62
7
100
AcDbSpline
 70
8
 71
3
 72
8
 73
4
 74
0
 40
0
 40
0
 40
0
 40
0
 40
1
 40
1
 40
1
 40
1
 10
35.092500
 20
36.337500
 30
0.0
 10
35.796000
 20
36.173250
 30
0.0
 10
36.194250
 20
36.220500
 30
0.0
 10
37.038000
 20
36.033000
 30
0.0
  0
SPLINE
  5
1b8
100
AcDbEntity
  8
0
 62
7
100
AcDbSpline
 70
8
 71
3
 72
8
 73
4
 74
0
 40
0
 40
0
 40
0
 40
0
 40
1
 40
1
 40
1
 40
1
 10
37.038000
 20
36.033000
 30
0.0
 10
37.370250
 20
35.958750
 30
0.0
 10
37.228500
 20
35.680500
 30
0.0
 10
37.657500
 20
35.704500
 30
0.0
  0
SPLINE
  5
1b9
100
AcDbEntity
  8
0
 62
7
100
AcDbSpline
 70
8
 71
3
 72
8
 73
4
 74
0
 40
0
 40
0
 40
0
 40
0
 40
1
 40
1
 40
1
 40
1
 10
37.657500
 20
35.704500
 30
0.0
 10
37.713750
 20
35.718000
 30
0.0
 10
37.811250
 20
35.739000
 30
0.0
 10
37.998750
 20
35.775000
 30
0.0
  0
SPLINE
  5
1ba
100
AcDbEntity
  8
0
 62
7
100
AcDbSpline
 70
8
 71
3
 72
8
 73
4
 74
0
 40
0
 40
0
 40
0
 40
0
 40
1
 40
1
 40
1
 40
1
 10
37.998750
 20
35.775000
 30
0.0
 10
37.577250
 20
36.854250
 30
0.0
 10
34.694250
 20
36.573000
 30
0.0
 10
34.178250
 20
37.275750
 30
0.0
  0
LWPOLYLINE
  5
1bb
100
AcDbEntity
  8
0
 62
7
100
AcDbPolyline
 90
1
 70
1
 10
33.440250
 20
41.084250
 30
0.0
  0
SPLINE
  5
1bc
100
AcDbEntity
  8
0
 62
7
100
AcDbSpline
 70
8
 71
3
 72
8
 73
4
 74
0
 40
0
 40
0
 40
0
 40
0
 40
1
 40
1
 40
1
 40
1
 10
37.694250
 20
35.705250
 30
0.0
 10
37.679250
 20
35.703750
 30
0.0
 10
37.671000
 20
35.705250
 30
0.0
 10
37.657500
 20
35.705250
 30
0.0
  0
SPLINE
  5
1bd
100
AcDbEntity
  8
0
 62
7
100
AcDbSpline
 70
8
 71
3
 72
8
 73
4
 74
0
 40
0
 40
0
 40
0
 40
0
 40
1
 40
1
 40
1
 40
1
 10
37.657500
 20
35.705250
 30
0.0
 10
37.449000
 20
35.655000
 30
0.0
 10
37.923750
 20
35.727000
 30
0.0
 10
37.694250
 20
35.705250
 30
0.0
  0
LWPOLYLINE
  5
1be
100
AcDbEntity
  8
0
 62
7
100
AcDbPolyline
 90
1
 70
1
 10
34.178250
 20
37.275750
 30
0.0
  0
SPLINE
  5
1bf
100
AcDbEntity
  8
0
 62
7
100
AcDbSpline
 70
8
 71
3
 72
8
 73
4
 74
0
 40
0
 40
0
 40
0
 40
0
 40
1
 40
1
 40
1
 40
1
 10
110.007000
 20
41.432250
 30
0.0
 10
110.292750
 20
41.331750
 30
0.0
 10
110.616750
 20
41.381250
 30
0.0
 10
110.835000
 20
41.400750
 30
0.0
  0
SPLINE
  5
1c0
100
AcDbEntity
  8
0
 62
7
100
AcDbSpline
 70
8
 71
3
 72
8
 73
4
 74
0
 40
0
 40
0
 40
0
 40
0
 40
1
 40
1
 40
1
 40
1
 10
110.835000
 20
41.400750
 30
0.0
 10
111.826500
 20
41.492250
 30
0.0
 10
111.573000
 20
41.209500
 30
0.0
 10
112.276500
 20
41.100000
 30
0.0
  0
SPLINE
  5
1c1
100
AcDbEntity
  8
0
 62
7
100
AcDbSpline
 70
8
 71
3
 72
8
 73
4
 74
0
 40
0
 40
0
 40
0
 40
0
 40
1
 40
1
 40
1
 40
1
 10
112.276500
 20
41.100000
 30
0.0
 10
113.014500
 20
40.985250
 30
0.0
 10
113.337000
 20
43.146000
 30
0.0
 10
113.460000
 20
43.978500
 30
0.0
  0
SPLINE
  5
1c2
100
AcDbEntity
  8
0
 62
7
100
AcDbSpline
 70
8
 71
3
 72
8
 73
4
 74
0
 40
0
 40
0
 40
0
 40
0
 40
1
 40
1
 40
1
 40
1
 10
113.460000
 20
43.978500
 30
0.0
 10
113.289000
 20
43.893750
 30
0.0
 10
113.269500
 20
43.540500
 30
0.0
 10
113.100750
 20
43.458000
 30
0.0
  0
SPLINE
  5
1c3
100
AcDbEntity
  8
0
 62
7
100
AcDbSpline
 70
8
 71
3
 72
8
 73
4
 74
0
 40
0
 40
0
 40
0
 40
0
 40
1
 40
1
 40
1
 40
1
 10
113.100750
 20
43.458000
 30
0.0
 10
112.808250
 20
42.429000
 30
0.0
 10
112.647000
 20
41.694000
 30
0.0
 10
112.288500
 20
41.682000
 30
0.0
  0
SPLINE
  5
1c4
100
AcDbEntity
  8
0
 62
7
100
AcDbSpline
 70
8
 71
3
 72
8
 73
4
 74
0
 40
0
 40
0
 40
0
 40
0
 40
1
 40
1
 40
1
 40
1
 10
112.288500
 20
41.682000
 30
0.0
 10
111.837750
 20
41.666250
 30
0.0
 10
111.990000
 20
42.060000
 30
0.0
 10
111.413250
 20
41.963250
 30
0.0
  0
SPLINE
  5
1c5
100
AcDbEntity
  8
0
 62
7
100
AcDbSpline
 70
8
 71
3
 72
8
 73
4
 74
0
 40
0
 40
0
 40
0
 40
0
 40
1
 40
1
 40
1
 40
1
 10
111.413250
 20
41.963250
 30
0.0
 10
110.779500
 20
41.856750
 30
0.0
 10
111.069750
 20
41.901000
 30
0.0
 10
110.366250
 20
41.947500
 30
0.0
  0
SPLINE
  5
1c6
100
AcDbEntity
  8
0
 62
7
100
AcDbSpline
 70
8
 71
3
 72
8
 73
4
 74
0
 40
0
 40
0
 40
0
 40
0
 40
1
 40
1
 40
1
 40
1
 10
110.366250
 20
41.947500
 30
0.0
 10
110.083500
 20
41.966250
 30
0.0
 10
109.712250
 20
42.520500
 30
0.0
 10
109.301250
 20
42.813750
 30
0.0
  0
SPLINE
  5
1c7
100
AcDbEntity
  8
0
 62
7
100
AcDbSpline
 70
8
 71
3
 72
8
 73
4
 74
0
 40
0
 40
0
 40
0
 40
0
 40
1
 40
1
 40
1
 40
1
 10
109.301250
 20
42.813750
 30
0.0
 10
109.242000
 20
42.815250
 30
0.0
 10
108.751500
 20
43.381500
 30
0.0
 10
108.585000
 20
43.448250
 30
0.0
  0
SPLINE
  5
1c8
100
AcDbEntity
  8
0
 62
7
100
AcDbSpline
 70
8
 71
3
 72
8
 73
4
 74
0
 40
0
 40
0
 40
0
 40
0
 40
1
 40
1
 40
1
 40
1
 10
108.585000
 20
43.448250
 30
0.0
 10
108.560250
 20
43.448250
 30
0.0
 10
108.588750
 20
43.196250
 30
0.0
 10
108.567000
 20
43.199250
 30
0.0
  0
SPLINE
  5
1c9
100
AcDbEntity
  8
0
 62
7
100
AcDbSpline
 70
8
 71
3
 72
8
 73
4
 74
0
 40
0
 40
0
 40
0
 40
0
 40
1
 40
1
 40
1
 40
1
 10
108.567000
 20
43.199250
 30
0.0
 10
108.596250
 20
43.164750
 30
0.0
 10
109.619250
 20
41.569500
 30
0.0
 10
110.007000
 20
41.432250
 30
0.0
  0
LWPOLYLINE
  5
1ca
100
AcDbEntity
  8
0
 62
7
100
AcDbPolyline
 90
1
 70
1
 10
37.694250
 20
35.705250
 30
0.0
  0
SPLINE
  5
1cb
100
AcDbEntity
  8
0
 62
7
100
AcDbSpline
 70
8
 71
3
 72
8
 73
4
 74
0
 40
0
 40
0
 40
0
 40
0
 40
1
 40
1
 40
1
 40
1
 10
118.272000
 20
37.761750
 30
0.0
 10
118.170750
 20
37.823250
 30
0.0
 10
118.200750
 20
37.997250
 30
0.0
 10
118.014000
 20
38.019750
 30
0.0
  0
SPLINE
  5
1cc
100
AcDbEntity
  8
0
 62
7
100
AcDbSpline
 70
8
 71
3
 72
8
 73
4
 74
0
 40
0
 40
0
 40
0
 40
0
 40
1
 40
1
 40
1
 40
1
 10
118.014000
 20
38.019750
 30
0.0
 10
116.865750
 20
38.113500
 30
0.0
 10
115.190250
 20
37.616250
 30
0.0
 10
114.287250
 20
37.691250
 30
0.0
  0
SPLINE
  5
1cd
100
AcDbEntity
  8
0
 62
7
100
AcDbSpline
 70
8
 71
3
 72
8
 73
4
 74
0
 40
0
 40
0
 40
0
 40
0
 40
1
 40
1
 40
1
 40
1
 10
114.287250
 20
37.691250
 30
0.0
 10
113.162250
 20
37.785000
 30
0.0
 10
113.139000
 20
37.714500
 30
0.0
 10
111.732750
 20
37.293000
 30
0.0
  0
SPLINE
  5
1ce
100
AcDbEntity
  8
0
 62
7
100
AcDbSpline
 70
8
 71
3
 72
8
 73
4
 74
0
 40
0
 40
0
 40
0
 40
0
 40
1
 40
1
 40
1
 40
1
 10
111.732750
 20
37.293000
 30
0.0
 10
111.216750
 20
36.589500
 30
0.0
 10
108.334500
 20
36.870750
 30
0.0
 10
107.912250
 20
35.793000
 30
0.0
  0
SPLINE
  5
1cf
100
AcDbEntity
  8
0
 62
7
100
AcDbSpline
 70
8
 71
3
 72
8
 73
4
 74
0
 40
0
 40
0
 40
0
 40
0
 40
1
 40
1
 40
1
 40
1
 10
107.912250
 20
35.793000
 30
0.0
 10
108.099750
 20
35.757000
 30
0.0
 10
108.196500
 20
35.736000
 30
0.0
 10
108.253500
 20
35.722500
 30
0.0
  0
SPLINE
  5
1d0
100
AcDbEntity
  8
0
 62
7
100
AcDbSpline
 70
8
 71
3
 72
8
 73
4
 74
0
 40
0
 40
0
 40
0
 40
0
 40
1
 40
1
 40
1
 40
1
 10
108.253500
 20
35.722500
 30
0.0
 10
108.682500
 20
35.699250
 30
0.0
 10
108.540750
 20
35.976750
 30
0.0
 10
108.873000
 20
36.051000
 30
0.0
  0
SPLINE
  5
1d1
100
AcDbEntity
  8
0
 62
7
100
AcDbSpline
 70
8
 71
3
 72
8
 73
4
 74
0
 40
0
 40
0
 40
0
 40
0
 40
1
 40
1
 40
1
 40
1
 10
108.873000
 20
36.051000
 30
0.0
 10
109.716750
 20
36.238500
 30
0.0
 10
110.115000
 20
36.192000
 30
0.0
 10
110.818500
 20
36.355500
 30
0.0
  0
SPLINE
  5
1d2
100
AcDbEntity
  8
0
 62
7
100
AcDbSpline
 70
8
 71
3
 72
8
 73
4
 74
0
 40
0
 40
0
 40
0
 40
0
 40
1
 40
1
 40
1
 40
1
 10
110.818500
 20
36.355500
 30
0.0
 10
111.573750
 20
36.531750
 30
0.0
 10
112.050750
 20
36.770250
 30
0.0
 10
113.225250
 20
37.213500
 30
0.0
  0
SPLINE
  5
1d3
100
AcDbEntity
  8
0
 62
7
100
AcDbSpline
 70
8
 71
3
 72
8
 73
4
 74
0
 40
0
 40
0
 40
0
 40
0
 40
1
 40
1
 40
1
 40
1
 10
113.225250
 20
37.213500
 30
0.0
 10
113.328750
 20
37.252500
 30
0.0
 10
113.735250
 20
37.061250
 30
0.0
 10
113.912250
 20
37.082250
 30
0.0
  0
SPLINE
  5
1d4
100
AcDbEntity
  8
0
 62
7
100
AcDbSpline
 70
8
 71
3
 72
8
 73
4
 74
0
 40
0
 40
0
 40
0
 40
0
 40
1
 40
1
 40
1
 40
1
 10
113.912250
 20
37.082250
 30
0.0
 10
114.701250
 20
37.176000
 30
0.0
 10
115.827750
 20
37.350750
 30
0.0
 10
116.631000
 20
37.504500
 30
0.0
  0
SPLINE
  5
1d5
100
AcDbEntity
  8
0
 62
7
100
AcDbSpline
 70
8
 71
3
 72
8
 73
4
 74
0
 40
0
 40
0
 40
0
 40
0
 40
1
 40
1
 40
1
 40
1
 10
116.631000
 20
37.504500
 30
0.0
 10
117.213750
 20
37.615500
 30
0.0
 10
117.448500
 20
37.626750
 30
0.0
 10
117.826500
 20
37.575000
 30
0.0
  0
SPLINE
  5
1d6
100
AcDbEntity
  8
0
 62
7
100
AcDbSpline
 70
8
 71
3
 72
8
 73
4
 74
0
 40
0
 40
0
 40
0
 40
0
 40
1
 40
1
 40
1
 40
1
 10
117.826500
 20
37.575000
 30
0.0
 10
118.254000
 20
37.515750
 30
0.0
 10
118.488750
 20
37.631250
 30
0.0
 10
118.272000
 20
37.761750
 30
0.0
  0
LWPOLYLINE
  5
1d7
100
AcDbEntity
  8
0
 62
7
100
AcDbPolyline
 90
1
 70
1
 10
110.007000
 20
41.432250
 30
0.0
  0
SPLINE
  5
1d8
100
AcDbEntity
  8
0
 62
7
100
AcDbSpline
 70
8
 71
3
 72
8
 73
4
 74
0
 40
0
 40
0
 40
0
 40
0
 40
1
 40
1
 40
1
 40
1
 10
108.253500
 20
35.722500
 30
0.0
 10
108.240000
 20
35.723250
 30
0.0
 10
108.231750
 20
35.721750
 30
0.0
 10
108.216750
 20
35.722500
 30
0.0
  0
SPLINE
  5
1d9
100
AcDbEntity
  8
0
 62
7
100
AcDbSpline
 70
8
 71
3
 72
8
 73
4
 74
0
 40
0
 40
0
 40
0
 40
0
 40
1
 40
1
 40
1
 40
1
 10
108.216750
 20
35.722500
 30
0.0
 10
107.987250
 20
35.744250
 30
0.0
 10
108.462000
 20
35.672250
 30
0.0
 10
108.253500
 20
35.722500
 30
0.0
  0
LWPOLYLINE
  5
1da
100
AcDbEntity
  8
0
 62
7
100
AcDbPolyline
 90
1
 70
1
 10
118.272000
 20
37.761750
 30
0.0
  0
SPLINE
  5
1db
100
AcDbEntity
  8
0
 62
7
100
AcDbSpline
 70
8
 71
3
 72
8
 73
4
 74
0
 40
0
 40
0
 40
0
 40
0
 40
1
 40
1
 40
1
 40
1
 10
52.108500
 20
64.412250
 30
0.0
 10
52.066500
 20
64.641750
 30
0.0
 10
52.011750
 20
64.852500
 30
0.0
 10
51.948000
 20
65.053500
 30
0.0
  0
SPLINE
  5
1dc
100
AcDbEntity
  8
0
 62
7
100
AcDbSpline
 70
8
 71
3
 72
8
 73
4
 74
0
 40
0
 40
0
 40
0
 40
0
 40
1
 40
1
 40
1
 40
1
 10
51.948000
 20
65.053500
 30
0.0
 10
51.865500
 20
64.770750
 30
0.0
 10
51.750750
 20
64.499250
 30
0.0
 10
51.719250
 20
64.201500
 30
0.0
  0
SPLINE
  5
1dd
100
AcDbEntity
  8
0
 62
7
100
AcDbSpline
 70
8
 71
3
 72
8
 73
4
 74
0
 40
0
 40
0
 40
0
 40
0
 40
1
 40
1
 40
1
 40
1
 10
51.719250
 20
64.201500
 30
0.0
 10
51.686250
 20
63.888750
 30
0.0
 10
52.955250
 20
58.707000
 30
0.0
 10
53.444250
 20
55.463250
 30
0.0
  0
SPLINE
  5
1de
100
AcDbEntity
  8
0
 62
7
100
AcDbSpline
 70
8
 71
3
 72
8
 73
4
 74
0
 40
0
 40
0
 40
0
 40
0
 40
1
 40
1
 40
1
 40
1
 10
53.444250
 20
55.463250
 30
0.0
 10
53.794500
 20
54.723750
 30
0.0
 10
53.969250
 20
54.700500
 30
0.0
 10
54.194250
 20
53.916000
 30
0.0
  0
SPLINE
  5
1df
100
AcDbEntity
  8
0
 62
7
100
AcDbSpline
 70
8
 71
3
 72
8
 73
4
 74
0
 40
0
 40
0
 40
0
 40
0
 40
1
 40
1
 40
1
 40
1
 10
54.194250
 20
53.916000
 30
0.0
 10
54.006750
 20
57.174000
 30
0.0
 10
52.626000
 20
63.629250
 30
0.0
 10
52.116000
 20
64.418250
 30
0.0
  0
SPLINE
  5
1e0
100
AcDbEntity
  8
0
 62
7
100
AcDbSpline
 70
8
 71
3
 72
8
 73
4
 74
0
 40
0
 40
0
 40
0
 40
0
 40
1
 40
1
 40
1
 40
1
 10
52.116000
 20
64.418250
 30
0.0
 10
52.113750
 20
64.416000
 30
0.0
 10
52.110750
 20
64.414500
 30
0.0
 10
52.108500
 20
64.412250
 30
0.0
  0
LWPOLYLINE
  5
1e1
100
AcDbEntity
  8
0
 62
7
100
AcDbPolyline
 90
1
 70
1
 10
108.253500
 20
35.722500
 30
0.0
  0
SPLINE
  5
1e2
100
AcDbEntity
  8
0
 62
7
100
AcDbSpline
 70
8
 71
3
 72
8
 73
4
 74
0
 40
0
 40
0
 40
0
 40
0
 40
1
 40
1
 40
1
 40
1
 10
50.670000
 20
72.948750
 30
0.0
 10
50.598000
 20
73.036500
 30
0.0
 10
50.137500
 20
73.273500
 30
0.0
 10
50.076000
 20
73.370250
 30
0.0
  0
SPLINE
  5
1e3
100
AcDbEntity
  8
0
 62
7
100
AcDbSpline
 70
8
 71
3
 72
8
 73
4
 74
0
 40
0
 40
0
 40
0
 40
0
 40
1
 40
1
 40
1
 40
1
 10
50.076000
 20
73.370250
 30
0.0
 10
50.034000
 20
73.353750
 30
0.0
 10
49.985250
 20
73.344750
 30
0.0
 10
49.929000
 20
73.344750
 30
0.0
  0
SPLINE
  5
1e4
100
AcDbEntity
  8
0
 62
7
100
AcDbSpline
 70
8
 71
3
 72
8
 73
4
 74
0
 40
0
 40
0
 40
0
 40
0
 40
1
 40
1
 40
1
 40
1
 10
49.929000
 20
73.344750
 30
0.0
 10
49.506750
 20
73.344750
 30
0.0
 10
43.460250
 20
74.517750
 30
0.0
 10
43.441500
 20
74.560500
 30
0.0
  0
SPLINE
  5
1e5
100
AcDbEntity
  8
0
 62
7
100
AcDbSpline
 70
8
 71
3
 72
8
 73
4
 74
0
 40
0
 40
0
 40
0
 40
0
 40
1
 40
1
 40
1
 40
1
 10
43.441500
 20
74.560500
 30
0.0
 10
43.086750
 20
74.556750
 30
0.0
 10
41.992500
 20
74.611500
 30
0.0
 10
41.652000
 20
74.688000
 30
0.0
  0
SPLINE
  5
1e6
100
AcDbEntity
  8
0
 62
7
100
AcDbSpline
 70
8
 71
3
 72
8
 73
4
 74
0
 40
0
 40
0
 40
0
 40
0
 40
1
 40
1
 40
1
 40
1
 10
41.652000
 20
74.688000
 30
0.0
 10
41.680500
 20
74.590500
 30
0.0
 10
40.867500
 20
74.789250
 30
0.0
 10
40.888500
 20
74.688000
 30
0.0
  0
SPLINE
  5
1e7
100
AcDbEntity
  8
0
 62
7
100
AcDbSpline
 70
8
 71
3
 72
8
 73
4
 74
0
 40
0
 40
0
 40
0
 40
0
 40
1
 40
1
 40
1
 40
1
 10
40.888500
 20
74.688000
 30
0.0
 10
41.163750
 20
74.532750
 30
0.0
 10
43.479750
 20
74.103750
 30
0.0
 10
43.763250
 20
73.964250
 30
0.0
  0
SPLINE
  5
1e8
100
AcDbEntity
  8
0
 62
7
100
AcDbSpline
 70
8
 71
3
 72
8
 73
4
 74
0
 40
0
 40
0
 40
0
 40
0
 40
1
 40
1
 40
1
 40
1
 10
43.763250
 20
73.964250
 30
0.0
 10
47.888250
 20
72.775500
 30
0.0
 10
50.672250
 20
72.939750
 30
0.0
 10
50.670000
 20
72.948750
 30
0.0
  0
LWPOLYLINE
  5
1e9
100
AcDbEntity
  8
0
 62
7
100
AcDbPolyline
 90
1
 70
1
 10
52.108500
 20
64.412250
 30
0.0
  0
SPLINE
  5
1ea
100
AcDbEntity
  8
0
 62
7
100
AcDbSpline
 70
8
 71
3
 72
8
 73
4
 74
0
 40
0
 40
0
 40
0
 40
0
 40
1
 40
1
 40
1
 40
1
 10
67.660500
 20
89.310000
 30
0.0
 10
65.163000
 20
87.750750
 30
0.0
 10
67.295250
 20
85.216500
 30
0.0
 10
68.555250
 20
83.763000
 30
0.0
  0
SPLINE
  5
1eb
100
AcDbEntity
  8
0
 62
7
100
AcDbSpline
 70
8
 71
3
 72
8
 73
4
 74
0
 40
0
 40
0
 40
0
 40
0
 40
1
 40
1
 40
1
 40
1
 10
68.555250
 20
83.763000
 30
0.0
 10
68.862750
 20
83.660250
 30
0.0
 10
69.148500
 20
83.518500
 30
0.0
 10
69.386250
 20
83.275500
 30
0.0
  0
SPLINE
  5
1ec
100
AcDbEntity
  8
0
 62
7
100
AcDbSpline
 70
8
 71
3
 72
8
 73
4
 74
0
 40
0
 40
0
 40
0
 40
0
 40
1
 40
1
 40
1
 40
1
 10
69.386250
 20
83.275500
 30
0.0
 10
69.617250
 20
85.688250
 30
0.0
 10
69.333000
 20
88.020750
 30
0.0
 10
67.660500
 20
89.310000
 30
0.0
  0
LWPOLYLINE
  5
1ed
100
AcDbEntity
  8
0
 62
7
100
AcDbPolyline
 90
1
 70
1
 10
50.670000
 20
72.948750
 30
0.0
  0
LWPOLYLINE
  5
1ee
100
AcDbEntity
  8
0
 62
7
100
AcDbPolyline
 90
1
 70
1
 10
67.660500
 20
89.310000
 30
0.0
  0
SPLINE
  5
1ef
100
AcDbEntity
  8
0
 62
7
100
AcDbSpline
 70
8
 71
3
 72
8
 73
4
 74
0
 40
0
 40
0
 40
0
 40
0
 40
1
 40
1
 40
1
 40
1
 10
67.839750
 20
88.410000
 30
0.0
 10
68.395500
 20
87.406500
 30
0.0
 10
68.793000
 20
86.243250
 30
0.0
 10
68.919750
 20
84.810000
 30
0.0
  0
SPLINE
  5
1f0
100
AcDbEntity
  8
0
 62
7
100
AcDbSpline
 70
8
 71
3
 72
8
 73
4
 74
0
 40
0
 40
0
 40
0
 40
0
 40
1
 40
1
 40
1
 40
1
 10
68.919750
 20
84.810000
 30
0.0
 10
67.560750
 20
85.169250
 30
0.0
 10
66.429000
 20
86.925000
 30
0.0
 10
67.299750
 20
88.410000
 30
0.0
  0
LWPOLYLINE
  5
1f1
100
AcDbEntity
  8
0
 62
7
100
AcDbPolyline
 90
2
 70
0
 10
67.299750
 20
88.410000
 30
0.0
 10
67.839750
 20
88.410000
 30
0.0
  0
SPLINE
  5
1f2
100
AcDbEntity
  8
0
 62
7
100
AcDbSpline
 70
8
 71
3
 72
8
 73
4
 74
0
 40
0
 40
0
 40
0
 40
0
 40
1
 40
1
 40
1
 40
1
 10
43.912500
 20
32.025750
 30
0.0
 10
43.227750
 20
32.619750
 30
0.0
 10
42.031500
 20
34.297500
 30
0.0
 10
41.162250
 20
35.054250
 30
0.0
  0
SPLINE
  5
1f3
100
AcDbEntity
  8
0
 62
7
100
AcDbSpline
 70
8
 71
3
 72
8
 73
4
 74
0
 40
0
 40
0
 40
0
 40
0
 40
1
 40
1
 40
1
 40
1
 10
41.162250
 20
35.054250
 30
0.0
 10
41.016000
 20
35.172750
 30
0.0
 10
40.912500
 20
35.028750
 30
0.0
 10
40.797750
 20
35.058750
 30
0.0
  0
SPLINE
  5
1f4
100
AcDbEntity
  8
0
 62
7
100
AcDbSpline
 70
8
 71
3
 72
8
 73
4
 74
0
 40
0
 40
0
 40
0
 40
0
 40
1
 40
1
 40
1
 40
1
 10
40.797750
 20
35.058750
 30
0.0
 10
40.552500
 20
35.123250
 30
0.0
 10
40.633500
 20
34.874250
 30
0.0
 10
40.974750
 20
34.609500
 30
0.0
  0
SPLINE
  5
1f5
100
AcDbEntity
  8
0
 62
7
100
AcDbSpline
 70
8
 71
3
 72
8
 73
4
 74
0
 40
0
 40
0
 40
0
 40
0
 40
1
 40
1
 40
1
 40
1
 10
40.974750
 20
34.609500
 30
0.0
 10
41.275500
 20
34.374750
 30
0.0
 10
41.431500
 20
34.200000
 30
0.0
 10
41.759250
 20
33.705000
 30
0.0
  0
SPLINE
  5
1f6
100
AcDbEntity
  8
0
 62
7
100
AcDbSpline
 70
8
 71
3
 72
8
 73
4
 74
0
 40
0
 40
0
 40
0
 40
0
 40
1
 40
1
 40
1
 40
1
 10
41.759250
 20
33.705000
 30
0.0
 10
42.210750
 20
33.022500
 30
0.0
 10
43.210500
 20
32.250000
 30
0.0
 10
43.694250
 20
31.620000
 30
0.0
  0
SPLINE
  5
1f7
100
AcDbEntity
  8
0
 62
7
100
AcDbSpline
 70
8
 71
3
 72
8
 73
4
 74
0
 40
0
 40
0
 40
0
 40
0
 40
1
 40
1
 40
1
 40
1
 10
43.694250
 20
31.620000
 30
0.0
 10
43.802250
 20
31.477500
 30
0.0
 10
44.765250
 20
31.286250
 30
0.0
 10
43.912500
 20
32.025750
 30
0.0
  0
LWPOLYLINE
  5
1f8
100
AcDbEntity
  8
0
 62
7
100
AcDbPolyline
 90
1
 70
1
 10
67.299750
 20
88.410000
 30
0.0
  0
SPLINE
  5
1f9
100
AcDbEntity
  8
0
 62
7
100
AcDbSpline
 70
8
 71
3
 72
8
 73
4
 74
0
 40
0
 40
0
 40
0
 40
0
 40
1
 40
1
 40
1
 40
1
 10
52.094250
 20
33.399000
 30
0.0
 10
51.165750
 20
32.718000
 30
0.0
 10
49.710750
 20
32.234250
 30
0.0
 10
48.294000
 20
31.883250
 30
0.0
  0
SPLINE
  5
1fa
100
AcDbEntity
  8
0
 62
7
100
AcDbSpline
 70
8
 71
3
 72
8
 73
4
 74
0
 40
0
 40
0
 40
0
 40
0
 40
1
 40
1
 40
1
 40
1
 10
48.294000
 20
31.883250
 30
0.0
 10
48.132000
 20
31.788000
 30
0.0
 10
48.230250
 20
31.641000
 30
0.0
 10
48.162000
 20
31.543500
 30
0.0
  0
SPLINE
  5
1fb
100
AcDbEntity
  8
0
 62
7
100
AcDbSpline
 70
8
 71
3
 72
8
 73
4
 74
0
 40
0
 40
0
 40
0
 40
0
 40
1
 40
1
 40
1
 40
1
 10
48.162000
 20
31.543500
 30
0.0
 10
48.015750
 20
31.337250
 30
0.0
 10
48.276750
 20
31.325250
 30
0.0
 10
48.645000
 20
31.551750
 30
0.0
  0
SPLINE
  5
1fc
100
AcDbEntity
  8
0
 62
7
100
AcDbSpline
 70
8
 71
3
 72
8
 73
4
 74
0
 40
0
 40
0
 40
0
 40
0
 40
1
 40
1
 40
1
 40
1
 10
48.645000
 20
31.551750
 30
0.0
 10
48.969750
 20
31.752000
 30
0.0
 10
49.225500
 20
31.701750
 30
0.0
 10
49.804500
 20
31.835250
 30
0.0
  0
SPLINE
  5
1fd
100
AcDbEntity
  8
0
 62
7
100
AcDbSpline
 70
8
 71
3
 72
8
 73
4
 74
0
 40
0
 40
0
 40
0
 40
0
 40
1
 40
1
 40
1
 40
1
 10
49.804500
 20
31.835250
 30
0.0
 10
50.601750
 20
32.019750
 30
0.0
 10
51.679500
 20
32.585250
 30
0.0
 10
52.398000
 20
33.051000
 30
0.0
  0
SPLINE
  5
1fe
100
AcDbEntity
  8
0
 62
7
100
AcDbSpline
 70
8
 71
3
 72
8
 73
4
 74
0
 40
0
 40
0
 40
0
 40
0
 40
1
 40
1
 40
1
 40
1
 10
52.398000
 20
33.051000
 30
0.0
 10
52.548000
 20
33.148500
 30
0.0
 10
53.062500
 20
34.109250
 30
0.0
 10
52.094250
 20
33.399000
 30
0.0
  0
LWPOLYLINE
  5
1ff
100
AcDbEntity
  8
0
 62
7
100
AcDbPolyline
 90
1
 70
1
 10
43.912500
 20
32.025750
 30
0.0
  0
SPLINE
  5
200
100
AcDbEntity
  8
0
 62
7
100
AcDbSpline
 70
8
 71
3
 72
8
 73
4
 74
0
 40
0
 40
0
 40
0
 40
0
 40
1
 40
1
 40
1
 40
1
 10
61.500000
 20
49.797000
 30
0.0
 10
61.031250
 20
48.843750
 30
0.0
 10
60.093750
 20
46.656000
 30
0.0
 10
59.531250
 20
45.219000
 30
0.0
  0
SPLINE
  5
201
100
AcDbEntity
  8
0
 62
7
100
AcDbSpline
 70
8
 71
3
 72
8
 73
4
 74
0
 40
0
 40
0
 40
0
 40
0
 40
1
 40
1
 40
1
 40
1
 10
59.531250
 20
45.219000
 30
0.0
 10
59.487750
 20
45.036000
 30
0.0
 10
59.646000
 20
45.267000
 30
0.0
 10
59.890500
 20
45.438000
 30
0.0
  0
SPLINE
  5
202
100
AcDbEntity
  8
0
 62
7
100
AcDbSpline
 70
8
 71
3
 72
8
 73
4
 74
0
 40
0
 40
0
 40
0
 40
0
 40
1
 40
1
 40
1
 40
1
 10
59.890500
 20
45.438000
 30
0.0
 10
60.097500
 20
45.582750
 30
0.0
 10
60.225750
 20
45.624000
 30
0.0
 10
60.384750
 20
46.026000
 30
0.0
  0
SPLINE
  5
203
100
AcDbEntity
  8
0
 62
7
100
AcDbSpline
 70
8
 71
3
 72
8
 73
4
 74
0
 40
0
 40
0
 40
0
 40
0
 40
1
 40
1
 40
1
 40
1
 10
60.384750
 20
46.026000
 30
0.0
 10
60.609000
 20
46.593750
 30
0.0
 10
61.703250
 20
48.984750
 30
0.0
 10
61.953000
 20
49.984500
 30
0.0
  0
SPLINE
  5
204
100
AcDbEntity
  8
0
 62
7
100
AcDbSpline
 70
8
 71
3
 72
8
 73
4
 74
0
 40
0
 40
0
 40
0
 40
0
 40
1
 40
1
 40
1
 40
1
 10
61.953000
 20
49.984500
 30
0.0
 10
61.996500
 20
50.157750
 30
0.0
 10
62.064750
 20
50.945250
 30
0.0
 10
61.500000
 20
49.797000
 30
0.0
  0
LWPOLYLINE
  5
205
100
AcDbEntity
  8
0
 62
7
100
AcDbPolyline
 90
1
 70
1
 10
52.094250
 20
33.399000
 30
0.0
  0
SPLINE
  5
206
100
AcDbEntity
  8
0
 62
7
100
AcDbSpline
 70
8
 71
3
 72
8
 73
4
 74
0
 40
0
 40
0
 40
0
 40
0
 40
1
 40
1
 40
1
 40
1
 10
84.516000
 20
49.531500
 30
0.0
 10
85.016250
 20
48.594000
 30
0.0
 10
86.273250
 20
45.933750
 30
0.0
 10
86.883000
 20
44.515500
 30
0.0
  0
SPLINE
  5
207
100
AcDbEntity
  8
0
 62
7
100
AcDbSpline
 70
8
 71
3
 72
8
 73
4
 74
0
 40
0
 40
0
 40
0
 40
0
 40
1
 40
1
 40
1
 40
1
 10
86.883000
 20
44.515500
 30
0.0
 10
86.931750
 20
44.334000
 30
0.0
 10
86.766750
 20
44.559750
 30
0.0
 10
86.516250
 20
44.721750
 30
0.0
  0
SPLINE
  5
208
100
AcDbEntity
  8
0
 62
7
100
AcDbSpline
 70
8
 71
3
 72
8
 73
4
 74
0
 40
0
 40
0
 40
0
 40
0
 40
1
 40
1
 40
1
 40
1
 10
86.516250
 20
44.721750
 30
0.0
 10
86.304750
 20
44.859750
 30
0.0
 10
86.175000
 20
44.896500
 30
0.0
 10
86.002500
 20
45.293250
 30
0.0
  0
SPLINE
  5
209
100
AcDbEntity
  8
0
 62
7
100
AcDbSpline
 70
8
 71
3
 72
8
 73
4
 74
0
 40
0
 40
0
 40
0
 40
0
 40
1
 40
1
 40
1
 40
1
 10
86.002500
 20
45.293250
 30
0.0
 10
85.759500
 20
45.853500
 30
0.0
 10
84.339000
 20
48.712500
 30
0.0
 10
84.056250
 20
49.703250
 30
0.0
  0
SPLINE
  5
20a
100
AcDbEntity
  8
0
 62
7
100
AcDbSpline
 70
8
 71
3
 72
8
 73
4
 74
0
 40
0
 40
0
 40
0
 40
0
 40
1
 40
1
 40
1
 40
1
 10
84.056250
 20
49.703250
 30
0.0
 10
84.007500
 20
49.875000
 30
0.0
 10
83.913000
 20
50.660250
 30
0.0
 10
84.516000
 20
49.531500
 30
0.0
  0
LWPOLYLINE
  5
20b
100
AcDbEntity
  8
0
 62
7
100
AcDbPolyline
 90
1
 70
1
 10
61.500000
 20
49.797000
 30
0.0
  0
SPLINE
  5
20c
100
AcDbEntity
  8
0
 62
7
100
AcDbSpline
 70
8
 71
3
 72
8
 73
4
 74
0
 40
0
 40
0
 40
0
 40
0
 40
1
 40
1
 40
1
 40
1
 10
93.445500
 20
33.546750
 30
0.0
 10
94.374000
 20
32.865750
 30
0.0
 10
95.829000
 20
32.382000
 30
0.0
 10
97.245750
 20
32.031000
 30
0.0
  0
SPLINE
  5
20d
100
AcDbEntity
  8
0
 62
7
100
AcDbSpline
 70
8
 71
3
 72
8
 73
4
 74
0
 40
0
 40
0
 40
0
 40
0
 40
1
 40
1
 40
1
 40
1
 10
97.245750
 20
32.031000
 30
0.0
 10
97.407750
 20
31.935750
 30
0.0
 10
97.309500
 20
31.788750
 30
0.0
 10
97.377750
 20
31.691250
 30
0.0
  0
SPLINE
  5
20e
100
AcDbEntity
  8
0
 62
7
100
AcDbSpline
 70
8
 71
3
 72
8
 73
4
 74
0
 40
0
 40
0
 40
0
 40
0
 40
1
 40
1
 40
1
 40
1
 10
97.377750
 20
31.691250
 30
0.0
 10
97.524000
 20
31.485000
 30
0.0
 10
97.263000
 20
31.473000
 30
0.0
 10
96.894750
 20
31.699500
 30
0.0
  0
SPLINE
  5
20f
100
AcDbEntity
  8
0
 62
7
100
AcDbSpline
 70
8
 71
3
 72
8
 73
4
 74
0
 40
0
 40
0
 40
0
 40
0
 40
1
 40
1
 40
1
 40
1
 10
96.894750
 20
31.699500
 30
0.0
 10
96.570000
 20
31.899750
 30
0.0
 10
96.314250
 20
31.849500
 30
0.0
 10
95.735250
 20
31.983000
 30
0.0
  0
SPLINE
  5
210
100
AcDbEntity
  8
0
 62
7
100
AcDbSpline
 70
8
 71
3
 72
8
 73
4
 74
0
 40
0
 40
0
 40
0
 40
0
 40
1
 40
1
 40
1
 40
1
 10
95.735250
 20
31.983000
 30
0.0
 10
94.938000
 20
32.167500
 30
0.0
 10
93.860250
 20
32.733000
 30
0.0
 10
93.141750
 20
33.198750
 30
0.0
  0
SPLINE
  5
211
100
AcDbEntity
  8
0
 62
7
100
AcDbSpline
 70
8
 71
3
 72
8
 73
4
 74
0
 40
0
 40
0
 40
0
 40
0
 40
1
 40
1
 40
1
 40
1
 10
93.141750
 20
33.198750
 30
0.0
 10
92.991750
 20
33.297000
 30
0.0
 10
92.477250
 20
34.257750
 30
0.0
 10
93.445500
 20
33.546750
 30
0.0
  0
LWPOLYLINE
  5
212
100
AcDbEntity
  8
0
 62
7
100
AcDbPolyline
 90
1
 70
1
 10
84.516000
 20
49.531500
 30
0.0
  0
SPLINE
  5
213
100
AcDbEntity
  8
0
 62
7
100
AcDbSpline
 70
8
 71
3
 72
8
 73
4
 74
0
 40
0
 40
0
 40
0
 40
0
 40
1
 40
1
 40
1
 40
1
 10
104.777250
 20
34.933500
 30
0.0
 10
104.662500
 20
34.903500
 30
0.0
 10
104.559000
 20
35.047500
 30
0.0
 10
104.412750
 20
34.929000
 30
0.0
  0
SPLINE
  5
214
100
AcDbEntity
  8
0
 62
7
100
AcDbSpline
 70
8
 71
3
 72
8
 73
4
 74
0
 40
0
 40
0
 40
0
 40
0
 40
1
 40
1
 40
1
 40
1
 10
104.412750
 20
34.929000
 30
0.0
 10
103.543500
 20
34.173000
 30
0.0
 10
102.346500
 20
32.494500
 30
0.0
 10
101.662500
 20
31.900500
 30
0.0
  0
SPLINE
  5
215
100
AcDbEntity
  8
0
 62
7
100
AcDbSpline
 70
8
 71
3
 72
8
 73
4
 74
0
 40
0
 40
0
 40
0
 40
0
 40
1
 40
1
 40
1
 40
1
 10
101.662500
 20
31.900500
 30
0.0
 10
100.809750
 20
31.161000
 30
0.0
 10
101.772750
 20
31.352250
 30
0.0
 10
101.881500
 20
31.494000
 30
0.0
  0
SPLINE
  5
216
100
AcDbEntity
  8
0
 62
7
100
AcDbSpline
 70
8
 71
3
 72
8
 73
4
 74
0
 40
0
 40
0
 40
0
 40
0
 40
1
 40
1
 40
1
 40
1
 10
101.881500
 20
31.494000
 30
0.0
 10
102.365250
 20
32.124000
 30
0.0
 10
103.365000
 20
32.897250
 30
0.0
 10
103.816500
 20
33.579000
 30
0.0
  0
SPLINE
  5
217
100
AcDbEntity
  8
0
 62
7
100
AcDbSpline
 70
8
 71
3
 72
8
 73
4
 74
0
 40
0
 40
0
 40
0
 40
0
 40
1
 40
1
 40
1
 40
1
 10
103.816500
 20
33.579000
 30
0.0
 10
104.144250
 20
34.074000
 30
0.0
 10
104.300250
 20
34.249500
 30
0.0
 10
104.601000
 20
34.483500
 30
0.0
  0
SPLINE
  5
218
100
AcDbEntity
  8
0
 62
7
100
AcDbSpline
 70
8
 71
3
 72
8
 73
4
 74
0
 40
0
 40
0
 40
0
 40
0
 40
1
 40
1
 40
1
 40
1
 10
104.601000
 20
34.483500
 30
0.0
 10
104.940750
 20
34.749750
 30
0.0
 10
105.021750
 20
34.998000
 30
0.0
 10
104.777250
 20
34.933500
 30
0.0
  0
LWPOLYLINE
  5
219
100
AcDbEntity
  8
0
 62
7
100
AcDbPolyline
 90
1
 70
1
 10
93.445500
 20
33.546750
 30
0.0
  0
LWPOLYLINE
  5
21a
100
AcDbEntity
  8
0
 62
7
100
AcDbPolyline
 90
1
 70
1
 10
104.777250
 20
34.933500
 30
0.0
  0
SPLINE
  5
21b
100
AcDbEntity
  8
0
 62
7
100
AcDbSpline
 70
8
 71
3
 72
8
 73
4
 74
0
 40
0
 40
0
 40
0
 40
0
 40
1
 40
1
 40
1
 40
1
 10
63.607500
 20
51.250500
 30
0.0
 10
65.730750
 20
52.077750
 30
0.0
 10
69.052500
 20
52.946250
 30
0.0
 10
71.321250
 20
53.133750
 30
0.0
  0
LWPOLYLINE
  5
21c
100
AcDbEntity
  8
0
 62
7
100
AcDbPolyline
 90
3
 70
0
 10
64.889250
 20
51.150000
 30
0.0
 10
63.763500
 20
51.150000
 30
0.0
 10
63.607500
 20
51.250500
 30
0.0
  0
SPLINE
  5
21d
100
AcDbEntity
  8
0
 62
7
100
AcDbSpline
 70
8
 71
3
 72
8
 73
4
 74
0
 40
0
 40
0
 40
0
 40
0
 40
1
 40
1
 40
1
 40
1
 10
70.417500
 20
52.421250
 30
0.0
 10
68.202000
 20
52.237500
 30
0.0
 10
66.961500
 20
51.957000
 30
0.0
 10
64.889250
 20
51.150000
 30
0.0
  0
LWPOLYLINE
  5
21e
100
AcDbEntity
  8
0
 62
7
100
AcDbPolyline
 90
3
 70
0
 10
71.321250
 20
53.133750
 30
0.0
 10
71.513250
 20
52.824750
 30
0.0
 10
70.417500
 20
52.421250
 30
0.0
  0
SPLINE
  5
21f
100
AcDbEntity
  8
0
 62
7
100
AcDbSpline
 70
8
 71
3
 72
8
 73
4
 74
0
 40
0
 40
0
 40
0
 40
0
 40
1
 40
1
 40
1
 40
1
 10
81.075750
 20
51.150000
 30
0.0
 10
78.792750
 20
51.864750
 30
0.0
 10
77.261250
 20
52.284000
 30
0.0
 10
75.097500
 20
52.494750
 30
0.0
  0
LWPOLYLINE
  5
220
100
AcDbEntity
  8
0
 62
7
100
AcDbPolyline
 90
1
 70
1
 10
64.889250
 20
51.150000
 30
0.0
  0
SPLINE
  5
221
100
AcDbEntity
  8
0
 62
7
100
AcDbSpline
 70
8
 71
3
 72
8
 73
4
 74
0
 40
0
 40
0
 40
0
 40
0
 40
1
 40
1
 40
1
 40
1
 10
74.700750
 20
52.992750
 30
0.0
 10
76.918500
 20
52.776750
 30
0.0
 10
80.072250
 20
52.026000
 30
0.0
 10
82.138500
 20
51.203250
 30
0.0
  0
LWPOLYLINE
  5
222
100
AcDbEntity
  8
0
 62
7
100
AcDbPolyline
 90
3
 70
0
 10
75.097500
 20
52.494750
 30
0.0
 10
74.422500
 20
52.768500
 30
0.0
 10
74.700750
 20
52.992750
 30
0.0
  0
SPLINE
  5
223
100
AcDbEntity
  8
0
 62
7
100
AcDbSpline
 70
8
 71
3
 72
8
 73
4
 74
0
 40
0
 40
0
 40
0
 40
0
 40
1
 40
1
 40
1
 40
1
 10
96.114750
 20
32.242500
 30
0.0
 10
96.249750
 20
31.223250
 30
0.0
 10
96.293250
 20
30.387000
 30
0.0
 10
96.293250
 20
29.331000
 30
0.0
  0
SPLINE
  5
224
100
AcDbEntity
  8
0
 62
7
100
AcDbSpline
 70
8
 71
3
 72
8
 73
4
 74
0
 40
0
 40
0
 40
0
 40
0
 40
1
 40
1
 40
1
 40
1
 10
96.293250
 20
29.331000
 30
0.0
 10
96.293250
 20
16.355250
 30
0.0
 10
85.776000
 20
5.838000
 30
0.0
 10
72.800250
 20
5.838000
 30
0.0
  0
SPLINE
  5
225
100
AcDbEntity
  8
0
 62
7
100
AcDbSpline
 70
8
 71
3
 72
8
 73
4
 74
0
 40
0
 40
0
 40
0
 40
0
 40
1
 40
1
 40
1
 40
1
 10
72.800250
 20
5.838000
 30
0.0
 10
59.826000
 20
5.838000
 30
0.0
 10
49.307250
 20
16.355250
 30
0.0
 10
49.307250
 20
29.331000
 30
0.0
  0
SPLINE
  5
226
100
AcDbEntity
  8
0
 62
7
100
AcDbSpline
 70
8
 71
3
 72
8
 73
4
 74
0
 40
0
 40
0
 40
0
 40
0
 40
1
 40
1
 40
1
 40
1
 10
49.307250
 20
29.331000
 30
0.0
 10
49.307250
 20
30.315750
 30
0.0
 10
49.341000
 20
31.053750
 30
0.0
 10
49.458000
 20
32.005500
 30
0.0
  0
SPLINE
  5
227
100
AcDbEntity
  8
0
 62
7
100
AcDbSpline
 70
8
 71
3
 72
8
 73
4
 74
0
 40
0
 40
0
 40
0
 40
0
 40
1
 40
1
 40
1
 40
1
 10
81.391500
 20
51.203250
 30
0.0
 10
82.407750
 20
50.804250
 30
0.0
 10
83.320500
 20
50.376000
 30
0.0
 10
84.262500
 20
49.844250
 30
0.0
  0
SPLINE
  5
228
100
AcDbEntity
  8
0
 62
7
100
AcDbSpline
 70
8
 71
3
 72
8
 73
4
 74
0
 40
0
 40
0
 40
0
 40
0
 40
1
 40
1
 40
1
 40
1
 10
70.708500
 20
52.733250
 30
0.0
 10
71.397750
 20
52.794000
 30
0.0
 10
72.096000
 20
52.824750
 30
0.0
 10
72.800250
 20
52.824750
 30
0.0
  0
SPLINE
  5
229
100
AcDbEntity
  8
0
 62
7
100
AcDbSpline
 70
8
 71
3
 72
8
 73
4
 74
0
 40
0
 40
0
 40
0
 40
0
 40
1
 40
1
 40
1
 40
1
 10
72.800250
 20
52.824750
 30
0.0
 10
73.575000
 20
52.824750
 30
0.0
 10
74.341500
 20
52.786500
 30
0.0
 10
75.097500
 20
52.713750
 30
0.0
  0
SPLINE
  5
22a
100
AcDbEntity
  8
0
 62
7
100
AcDbSpline
 70
8
 71
3
 72
8
 73
4
 74
0
 40
0
 40
0
 40
0
 40
0
 40
1
 40
1
 40
1
 40
1
 10
61.646250
 20
50.013750
 30
0.0
 10
62.681250
 20
50.571750
 30
0.0
 10
63.704250
 20
50.994000
 30
0.0
 10
64.356750
 20
51.250500
 30
0.0
  0
SPLINE
  5
22b
100
AcDbEntity
  8
0
 62
7
100
AcDbSpline
 70
8
 71
3
 72
8
 73
4
 74
0
 40
0
 40
0
 40
0
 40
0
 40
1
 40
1
 40
1
 40
1
 10
92.109750
 20
97.080000
 30
0.0
 10
91.327500
 20
103.673250
 30
0.0
 10
97.284000
 20
106.470000
 30
0.0
 10
100.437000
 20
100.997250
 30
0.0
  0
SPLINE
  5
22c
100
AcDbEntity
  8
0
 62
7
100
AcDbSpline
 70
8
 71
3
 72
8
 73
4
 74
0
 40
0
 40
0
 40
0
 40
0
 40
1
 40
1
 40
1
 40
1
 10
100.437000
 20
100.997250
 30
0.0
 10
100.511250
 20
100.869000
 30
0.0
 10
100.592250
 20
100.746750
 30
0.0
 10
100.666500
 20
100.620750
 30
0.0
  0
SPLINE
  5
22d
100
AcDbEntity
  8
0
 62
7
100
AcDbSpline
 70
8
 71
3
 72
8
 73
4
 74
0
 40
0
 40
0
 40
0
 40
0
 40
1
 40
1
 40
1
 40
1
 10
100.666500
 20
100.620750
 30
0.0
 10
105.588750
 20
92.181000
 30
0.0
 10
98.732250
 20
81.378750
 30
0.0
 10
95.838750
 20
73.341000
 30
0.0
  0
SPLINE
  5
22e
100
AcDbEntity
  8
0
 62
7
100
AcDbSpline
 70
8
 71
3
 72
8
 73
4
 74
0
 40
0
 40
0
 40
0
 40
0
 40
1
 40
1
 40
1
 40
1
 10
95.838750
 20
73.341000
 30
0.0
 10
94.075500
 20
72.622500
 30
0.0
 10
93.340500
 20
72.750750
 30
0.0
 10
91.512000
 20
72.580500
 30
0.0
  0
SPLINE
  5
22f
100
AcDbEntity
  8
0
 62
7
100
AcDbSpline
 70
8
 71
3
 72
8
 73
4
 74
0
 40
0
 40
0
 40
0
 40
0
 40
1
 40
1
 40
1
 40
1
 10
91.512000
 20
72.580500
 30
0.0
 10
97.749000
 20
77.700750
 30
0.0
 10
96.125250
 20
83.567250
 30
0.0
 10
93.777750
 20
90.334500
 30
0.0
  0
SPLINE
  5
230
100
AcDbEntity
  8
0
 62
7
100
AcDbSpline
 70
8
 71
3
 72
8
 73
4
 74
0
 40
0
 40
0
 40
0
 40
0
 40
1
 40
1
 40
1
 40
1
 10
93.777750
 20
90.334500
 30
0.0
 10
93.338250
 20
91.601250
 30
0.0
 10
93.359250
 20
92.841000
 30
0.0
 10
92.916750
 20
94.047000
 30
0.0
  0
SPLINE
  5
231
100
AcDbEntity
  8
0
 62
7
100
AcDbSpline
 70
8
 71
3
 72
8
 73
4
 74
0
 40
0
 40
0
 40
0
 40
0
 40
1
 40
1
 40
1
 40
1
 10
92.916750
 20
94.047000
 30
0.0
 10
92.534250
 20
95.089500
 30
0.0
 10
92.280000
 20
96.044250
 30
0.0
 10
92.109750
 20
97.080000
 30
0.0
  0
SPLINE
  5
232
100
AcDbEntity
  8
0
 62
7
100
AcDbSpline
 70
8
 71
3
 72
8
 73
4
 74
0
 40
0
 40
0
 40
0
 40
0
 40
1
 40
1
 40
1
 40
1
 10
43.299750
 20
93.120000
 30
0.0
 10
43.324500
 20
96.472500
 30
0.0
 10
44.244750
 20
100.686750
 30
0.0
 10
47.122500
 20
102.797250
 30
0.0
  0
SPLINE
  5
233
100
AcDbEntity
  8
0
 62
7
100
AcDbSpline
 70
8
 71
3
 72
8
 73
4
 74
0
 40
0
 40
0
 40
0
 40
0
 40
1
 40
1
 40
1
 40
1
 10
47.122500
 20
102.797250
 30
0.0
 10
50.936250
 20
105.594000
 30
0.0
 10
54.147000
 20
101.949000
 30
0.0
 10
53.829000
 20
97.080750
 30
0.0
  0
SPLINE
  5
234
100
AcDbEntity
  8
0
 62
7
100
AcDbSpline
 70
8
 71
3
 72
8
 73
4
 74
0
 40
0
 40
0
 40
0
 40
0
 40
1
 40
1
 40
1
 40
1
 10
53.829000
 20
97.080750
 30
0.0
 10
53.706000
 20
96.716250
 30
0.0
 10
53.440500
 20
95.470500
 30
0.0
 10
53.292750
 20
95.099250
 30
0.0
  0
SPLINE
  5
235
100
AcDbEntity
  8
0
 62
7
100
AcDbSpline
 70
8
 71
3
 72
8
 73
4
 74
0
 40
0
 40
0
 40
0
 40
0
 40
1
 40
1
 40
1
 40
1
 10
53.292750
 20
95.099250
 30
0.0
 10
50.109750
 20
87.113250
 30
0.0
 10
46.113750
 20
79.073250
 30
0.0
 10
54.261000
 20
72.394500
 30
0.0
  0
SPLINE
  5
236
100
AcDbEntity
  8
0
 62
7
100
AcDbSpline
 70
8
 71
3
 72
8
 73
4
 74
0
 40
0
 40
0
 40
0
 40
0
 40
1
 40
1
 40
1
 40
1
 10
54.261000
 20
72.394500
 30
0.0
 10
52.398000
 20
72.582750
 30
0.0
 10
51.705000
 20
72.432750
 30
0.0
 10
49.920750
 20
73.161000
 30
0.0
  0
SPLINE
  5
237
100
AcDbEntity
  8
0
 62
7
100
AcDbSpline
 70
8
 71
3
 72
8
 73
4
 74
0
 40
0
 40
0
 40
0
 40
0
 40
1
 40
1
 40
1
 40
1
 10
49.920750
 20
73.161000
 30
0.0
 10
47.421750
 20
80.109000
 30
0.0
 10
42.964500
 20
87.623250
 30
0.0
 10
43.299750
 20
93.120000
 30
0.0
  0
SPLINE
  5
238
100
AcDbEntity
  8
0
 62
7
100
AcDbSpline
 70
8
 71
3
 72
8
 73
4
 74
0
 40
0
 40
0
 40
0
 40
0
 40
1
 40
1
 40
1
 40
1
 10
90.070500
 20
65.609250
 30
0.0
 10
89.937750
 20
65.670000
 30
0.0
 10
89.901000
 20
65.790000
 30
0.0
 10
89.852250
 20
65.874000
 30
0.0
  0
SPLINE
  5
239
100
AcDbEntity
  8
0
 62
7
100
AcDbSpline
 70
8
 71
3
 72
8
 73
4
 74
0
 40
0
 40
0
 40
0
 40
0
 40
1
 40
1
 40
1
 40
1
 10
89.852250
 20
65.874000
 30
0.0
 10
91.310250
 20
66.242250
 30
0.0
 10
93.082500
 20
65.962500
 30
0.0
 10
94.695000
 20
66.095250
 30
0.0
  0
SPLINE
  5
23a
100
AcDbEntity
  8
0
 62
7
100
AcDbSpline
 70
8
 71
3
 72
8
 73
4
 74
0
 40
0
 40
0
 40
0
 40
0
 40
1
 40
1
 40
1
 40
1
 10
94.695000
 20
66.095250
 30
0.0
 10
94.506000
 20
65.246250
 30
0.0
 10
94.458000
 20
64.826250
 30
0.0
 10
93.942750
 20
64.158750
 30
0.0
  0
SPLINE
  5
23b
100
AcDbEntity
  8
0
 62
7
100
AcDbSpline
 70
8
 71
3
 72
8
 73
4
 74
0
 40
0
 40
0
 40
0
 40
0
 40
1
 40
1
 40
1
 40
1
 10
93.942750
 20
64.158750
 30
0.0
 10
92.794500
 20
65.158500
 30
0.0
 10
91.361250
 20
64.842750
 30
0.0
 10
90.070500
 20
65.609250
 30
0.0
  0
SPLINE
  5
23c
100
AcDbEntity
  8
0
 62
7
100
AcDbSpline
 70
8
 71
3
 72
8
 73
4
 74
0
 40
0
 40
0
 40
0
 40
0
 40
1
 40
1
 40
1
 40
1
 10
51.009750
 20
65.430000
 30
0.0
 10
51.575250
 20
64.885500
 30
0.0
 10
51.194250
 20
64.449750
 30
0.0
 10
51.817500
 20
63.978000
 30
0.0
  0
SPLINE
  5
23d
100
AcDbEntity
  8
0
 62
7
100
AcDbSpline
 70
8
 71
3
 72
8
 73
4
 74
0
 40
0
 40
0
 40
0
 40
0
 40
1
 40
1
 40
1
 40
1
 10
51.817500
 20
63.978000
 30
0.0
 10
53.001750
 20
65.098500
 30
0.0
 10
54.747750
 20
64.644000
 30
0.0
 10
55.908000
 20
65.693250
 30
0.0
  0
SPLINE
  5
23e
100
AcDbEntity
  8
0
 62
7
100
AcDbSpline
 70
8
 71
3
 72
8
 73
4
 74
0
 40
0
 40
0
 40
0
 40
0
 40
1
 40
1
 40
1
 40
1
 10
55.908000
 20
65.693250
 30
0.0
 10
54.450750
 20
66.062250
 30
0.0
 10
52.677750
 20
65.781750
 30
0.0
 10
51.065250
 20
65.914500
 30
0.0
  0
SPLINE
  5
23f
100
AcDbEntity
  8
0
 62
7
100
AcDbSpline
 70
8
 71
3
 72
8
 73
4
 74
0
 40
0
 40
0
 40
0
 40
0
 40
1
 40
1
 40
1
 40
1
 10
51.065250
 20
65.914500
 30
0.0
 10
51.027000
 20
65.772000
 30
0.0
 10
51.021750
 20
65.598000
 30
0.0
 10
51.009750
 20
65.430000
 30
0.0
  0
SPLINE
  5
240
100
AcDbEntity
  8
0
 62
7
100
AcDbSpline
 70
8
 71
3
 72
8
 73
4
 74
0
 40
0
 40
0
 40
0
 40
0
 40
1
 40
1
 40
1
 40
1
 10
70.709250
 20
52.733250
 30
0.0
 10
71.125500
 20
54.500250
 30
0.0
 10
71.811750
 20
56.163000
 30
0.0
 10
72.482250
 20
57.847500
 30
0.0
  0
SPLINE
  5
241
100
AcDbEntity
  8
0
 62
7
100
AcDbSpline
 70
8
 71
3
 72
8
 73
4
 74
0
 40
0
 40
0
 40
0
 40
0
 40
1
 40
1
 40
1
 40
1
 10
72.482250
 20
57.847500
 30
0.0
 10
72.543000
 20
57.906750
 30
0.0
 10
72.597750
 20
57.972000
 30
0.0
 10
72.652500
 20
58.037250
 30
0.0
  0
SPLINE
  5
242
100
AcDbEntity
  8
0
 62
7
100
AcDbSpline
 70
8
 71
3
 72
8
 73
4
 74
0
 40
0
 40
0
 40
0
 40
0
 40
1
 40
1
 40
1
 40
1
 10
72.652500
 20
58.037250
 30
0.0
 10
72.912000
 20
58.112250
 30
0.0
 10
73.095750
 20
58.135500
 30
0.0
 10
73.284000
 20
58.029750
 30
0.0
  0
SPLINE
  5
243
100
AcDbEntity
  8
0
 62
7
100
AcDbSpline
 70
8
 71
3
 72
8
 73
4
 74
0
 40
0
 40
0
 40
0
 40
0
 40
1
 40
1
 40
1
 40
1
 10
73.284000
 20
58.029750
 30
0.0
 10
73.968750
 20
56.274000
 30
0.0
 10
74.685750
 20
54.551250
 30
0.0
 10
75.096750
 20
52.713750
 30
0.0
  0
SPLINE
  5
244
100
AcDbEntity
  8
0
 62
7
100
AcDbSpline
 70
8
 71
3
 72
8
 73
4
 74
0
 40
0
 40
0
 40
0
 40
0
 40
1
 40
1
 40
1
 40
1
 10
84.263250
 20
49.845000
 30
0.0
 10
83.667750
 20
51.907500
 30
0.0
 10
83.012250
 20
53.947500
 30
0.0
 10
82.098000
 20
55.870500
 30
0.0
  0
SPLINE
  5
245
100
AcDbEntity
  8
0
 62
7
100
AcDbSpline
 70
8
 71
3
 72
8
 73
4
 74
0
 40
0
 40
0
 40
0
 40
0
 40
1
 40
1
 40
1
 40
1
 10
82.098000
 20
55.870500
 30
0.0
 10
82.014750
 20
55.918500
 30
0.0
 10
81.948750
 20
55.940250
 30
0.0
 10
81.883500
 20
55.960500
 30
0.0
  0
SPLINE
  5
246
100
AcDbEntity
  8
0
 62
7
100
AcDbSpline
 70
8
 71
3
 72
8
 73
4
 74
0
 40
0
 40
0
 40
0
 40
0
 40
1
 40
1
 40
1
 40
1
 10
81.883500
 20
55.960500
 30
0.0
 10
81.741000
 20
54.365250
 30
0.0
 10
81.437250
 20
52.827000
 30
0.0
 10
81.380250
 20
51.207000
 30
0.0
  0
SPLINE
  5
247
100
AcDbEntity
  8
0
 62
7
100
AcDbSpline
 70
8
 71
3
 72
8
 73
4
 74
0
 40
0
 40
0
 40
0
 40
0
 40
1
 40
1
 40
1
 40
1
 10
102.598500
 20
32.232750
 30
0.0
 10
100.370250
 20
32.054250
 30
0.0
 10
97.023000
 20
31.959750
 30
0.0
 10
96.114750
 20
32.242500
 30
0.0
  0
SPLINE
  5
248
100
AcDbEntity
  8
0
 62
7
100
AcDbSpline
 70
8
 71
3
 72
8
 73
4
 74
0
 40
0
 40
0
 40
0
 40
0
 40
1
 40
1
 40
1
 40
1
 10
109.030500
 20
36.119250
 30
0.0
 10
99.138750
 20
35.697000
 30
0.0
 10
92.493750
 20
43.971000
 30
0.0
 10
92.112000
 20
55.652250
 30
0.0
  0
SPLINE
  5
249
100
AcDbEntity
  8
0
 62
7
100
AcDbSpline
 70
8
 71
3
 72
8
 73
4
 74
0
 40
0
 40
0
 40
0
 40
0
 40
1
 40
1
 40
1
 40
1
 10
92.112000
 20
55.652250
 30
0.0
 10
90.492000
 20
56.810250
 30
0.0
 10
90.921000
 20
56.511750
 30
0.0
 10
89.296500
 20
57.551250
 30
0.0
  0
SPLINE
  5
24a
100
AcDbEntity
  8
0
 62
7
100
AcDbSpline
 70
8
 71
3
 72
8
 73
4
 74
0
 40
0
 40
0
 40
0
 40
0
 40
1
 40
1
 40
1
 40
1
 10
89.296500
 20
57.551250
 30
0.0
 10
91.138500
 20
50.634750
 30
0.0
 10
92.097750
 20
43.746750
 30
0.0
 10
96.658500
 20
38.403000
 30
0.0
  0
SPLINE
  5
24b
100
AcDbEntity
  8
0
 62
7
100
AcDbSpline
 70
8
 71
3
 72
8
 73
4
 74
0
 40
0
 40
0
 40
0
 40
0
 40
1
 40
1
 40
1
 40
1
 10
96.658500
 20
38.403000
 30
0.0
 10
97.636500
 20
37.257750
 30
0.0
 10
102.272250
 20
35.608500
 30
0.0
 10
104.498250
 20
34.476750
 30
0.0
  0
SPLINE
  5
24c
100
AcDbEntity
  8
0
 62
7
100
AcDbSpline
 70
8
 71
3
 72
8
 73
4
 74
0
 40
0
 40
0
 40
0
 40
0
 40
1
 40
1
 40
1
 40
1
 10
117.288000
 20
37.601250
 30
0.0
 10
117.726750
 20
37.612500
 30
0.0
 10
118.238250
 20
37.600500
 30
0.0
 10
118.848000
 20
37.552500
 30
0.0
  0
SPLINE
  5
24d
100
AcDbEntity
  8
0
 62
7
100
AcDbSpline
 70
8
 71
3
 72
8
 73
4
 74
0
 40
0
 40
0
 40
0
 40
0
 40
1
 40
1
 40
1
 40
1
 10
118.848000
 20
37.552500
 30
0.0
 10
118.934250
 20
37.581750
 30
0.0
 10
119.544750
 20
37.533000
 30
0.0
 10
119.544750
 20
37.533000
 30
0.0
  0
SPLINE
  5
24e
100
AcDbEntity
  8
0
 62
7
100
AcDbSpline
 70
8
 71
3
 72
8
 73
4
 74
0
 40
0
 40
0
 40
0
 40
0
 40
1
 40
1
 40
1
 40
1
 10
119.544750
 20
37.533000
 30
0.0
 10
123.465000
 20
37.314000
 30
0.0
 10
121.581000
 20
34.236750
 30
0.0
 10
124.815000
 20
34.255500
 30
0.0
  0
SPLINE
  5
24f
100
AcDbEntity
  8
0
 62
7
100
AcDbSpline
 70
8
 71
3
 72
8
 73
4
 74
0
 40
0
 40
0
 40
0
 40
0
 40
1
 40
1
 40
1
 40
1
 10
124.815000
 20
34.255500
 30
0.0
 10
130.975500
 20
31.964250
 30
0.0
 10
136.749750
 20
34.685250
 30
0.0
 10
136.100250
 20
39.339000
 30
0.0
  0
SPLINE
  5
250
100
AcDbEntity
  8
0
 62
7
100
AcDbSpline
 70
8
 71
3
 72
8
 73
4
 74
0
 40
0
 40
0
 40
0
 40
0
 40
1
 40
1
 40
1
 40
1
 10
136.100250
 20
39.339000
 30
0.0
 10
135.537750
 20
42.401250
 30
0.0
 10
133.100250
 20
44.026500
 30
0.0
 10
129.162750
 20
43.276500
 30
0.0
  0
SPLINE
  5
251
100
AcDbEntity
  8
0
 62
7
100
AcDbSpline
 70
8
 71
3
 72
8
 73
4
 74
0
 40
0
 40
0
 40
0
 40
0
 40
1
 40
1
 40
1
 40
1
 10
129.162750
 20
43.276500
 30
0.0
 10
127.292250
 20
42.647250
 30
0.0
 10
123.752250
 20
41.699250
 30
0.0
 10
122.225250
 20
40.589250
 30
0.0
  0
SPLINE
  5
252
100
AcDbEntity
  8
0
 62
7
100
AcDbSpline
 70
8
 71
3
 72
8
 73
4
 74
0
 40
0
 40
0
 40
0
 40
0
 40
1
 40
1
 40
1
 40
1
 10
122.225250
 20
40.589250
 30
0.0
 10
119.786250
 20
38.815500
 30
0.0
 10
118.406250
 20
38.001750
 30
0.0
 10
117.234000
 20
37.561500
 30
0.0
  0
SPLINE
  5
253
100
AcDbEntity
  8
0
 62
7
100
AcDbSpline
 70
8
 71
3
 72
8
 73
4
 74
0
 40
0
 40
0
 40
0
 40
0
 40
1
 40
1
 40
1
 40
1
 10
104.564250
 20
34.538250
 30
0.0
 10
104.718000
 20
34.757250
 30
0.0
 10
104.865750
 20
34.981500
 30
0.0
 10
105.006000
 20
35.213250
 30
0.0
  0
SPLINE
  5
254
100
AcDbEntity
  8
0
 62
7
100
AcDbSpline
 70
8
 71
3
 72
8
 73
4
 74
0
 40
0
 40
0
 40
0
 40
0
 40
1
 40
1
 40
1
 40
1
 10
105.006000
 20
35.213250
 30
0.0
 10
105.620250
 20
35.295000
 30
0.0
 10
106.070250
 20
35.226000
 30
0.0
 10
106.321500
 20
35.335500
 30
0.0
  0
SPLINE
  5
255
100
AcDbEntity
  8
0
 62
7
100
AcDbSpline
 70
8
 71
3
 72
8
 73
4
 74
0
 40
0
 40
0
 40
0
 40
0
 40
1
 40
1
 40
1
 40
1
 10
106.321500
 20
35.335500
 30
0.0
 10
106.643250
 20
35.475750
 30
0.0
 10
108.542250
 20
35.917500
 30
0.0
 10
109.027500
 20
36.139500
 30
0.0
  0
SPLINE
  5
256
100
AcDbEntity
  8
0
 62
7
100
AcDbSpline
 70
8
 71
3
 72
8
 73
4
 74
0
 40
0
 40
0
 40
0
 40
0
 40
1
 40
1
 40
1
 40
1
 10
113.349000
 20
43.604250
 30
0.0
 10
117.117750
 20
44.904000
 30
0.0
 10
120.146250
 20
48.018000
 30
0.0
 10
124.225500
 20
49.901250
 30
0.0
  0
SPLINE
  5
257
100
AcDbEntity
  8
0
 62
7
100
AcDbSpline
 70
8
 71
3
 72
8
 73
4
 74
0
 40
0
 40
0
 40
0
 40
0
 40
1
 40
1
 40
1
 40
1
 10
124.225500
 20
49.901250
 30
0.0
 10
124.911750
 20
50.218500
 30
0.0
 10
128.340000
 20
51.286500
 30
0.0
 10
129.038250
 20
51.401250
 30
0.0
  0
SPLINE
  5
258
100
AcDbEntity
  8
0
 62
7
100
AcDbSpline
 70
8
 71
3
 72
8
 73
4
 74
0
 40
0
 40
0
 40
0
 40
0
 40
1
 40
1
 40
1
 40
1
 10
129.038250
 20
51.401250
 30
0.0
 10
140.308500
 20
53.260500
 30
0.0
 10
148.896000
 20
41.314500
 30
0.0
 10
142.276500
 20
32.034750
 30
0.0
  0
SPLINE
  5
259
100
AcDbEntity
  8
0
 62
7
100
AcDbSpline
 70
8
 71
3
 72
8
 73
4
 74
0
 40
0
 40
0
 40
0
 40
0
 40
1
 40
1
 40
1
 40
1
 10
142.276500
 20
32.034750
 30
0.0
 10
139.704000
 20
27.765000
 30
0.0
 10
132.038250
 20
25.401750
 30
0.0
 10
125.037750
 20
26.463750
 30
0.0
  0
SPLINE
  5
25a
100
AcDbEntity
  8
0
 62
7
100
AcDbSpline
 70
8
 71
3
 72
8
 73
4
 74
0
 40
0
 40
0
 40
0
 40
0
 40
1
 40
1
 40
1
 40
1
 10
125.037750
 20
26.463750
 30
0.0
 10
124.408500
 20
25.958250
 30
0.0
 10
124.939500
 20
25.843500
 30
0.0
 10
124.287750
 20
24.963750
 30
0.0
  0
SPLINE
  5
25b
100
AcDbEntity
  8
0
 62
7
100
AcDbSpline
 70
8
 71
3
 72
8
 73
4
 74
0
 40
0
 40
0
 40
0
 40
0
 40
1
 40
1
 40
1
 40
1
 10
124.287750
 20
24.963750
 30
0.0
 10
122.496750
 20
23.267250
 30
0.0
 10
117.045750
 20
26.088750
 30
0.0
 10
112.842750
 20
27.458250
 30
0.0
  0
SPLINE
  5
25c
100
AcDbEntity
  8
0
 62
7
100
AcDbSpline
 70
8
 71
3
 72
8
 73
4
 74
0
 40
0
 40
0
 40
0
 40
0
 40
1
 40
1
 40
1
 40
1
 10
112.842750
 20
27.458250
 30
0.0
 10
108.962250
 20
28.752000
 30
0.0
 10
104.697750
 20
28.880250
 30
0.0
 10
101.217000
 20
28.684500
 30
0.0
  0
SPLINE
  5
25d
100
AcDbEntity
  8
0
 62
7
100
AcDbSpline
 70
8
 71
3
 72
8
 73
4
 74
0
 40
0
 40
0
 40
0
 40
0
 40
1
 40
1
 40
1
 40
1
 10
101.217000
 20
28.684500
 30
0.0
 10
101.157750
 20
28.744500
 30
0.0
 10
100.903500
 20
28.701750
 30
0.0
 10
100.837500
 20
28.755750
 30
0.0
  0
SPLINE
  5
25e
100
AcDbEntity
  8
0
 62
7
100
AcDbSpline
 70
8
 71
3
 72
8
 73
4
 74
0
 40
0
 40
0
 40
0
 40
0
 40
1
 40
1
 40
1
 40
1
 10
100.837500
 20
28.755750
 30
0.0
 10
100.801500
 20
28.959000
 30
0.0
 10
100.797750
 20
29.202750
 30
0.0
 10
100.797000
 20
29.433750
 30
0.0
  0
SPLINE
  5
25f
100
AcDbEntity
  8
0
 62
7
100
AcDbSpline
 70
8
 71
3
 72
8
 73
4
 74
0
 40
0
 40
0
 40
0
 40
0
 40
1
 40
1
 40
1
 40
1
 10
100.797000
 20
29.433750
 30
0.0
 10
100.816500
 20
29.656500
 30
0.0
 10
101.694000
 20
31.136250
 30
0.0
 10
101.778750
 20
31.351500
 30
0.0
  0
SPLINE
  5
260
100
AcDbEntity
  8
0
 62
7
100
AcDbSpline
 70
8
 71
3
 72
8
 73
4
 74
0
 40
0
 40
0
 40
0
 40
0
 40
1
 40
1
 40
1
 40
1
 10
101.778750
 20
31.351500
 30
0.0
 10
102.057750
 20
31.638000
 30
0.0
 10
102.336750
 20
31.926000
 30
0.0
 10
102.613500
 20
32.217000
 30
0.0
  0
SPLINE
  5
261
100
AcDbEntity
  8
0
 62
7
100
AcDbSpline
 70
8
 71
3
 72
8
 73
4
 74
0
 40
0
 40
0
 40
0
 40
0
 40
1
 40
1
 40
1
 40
1
 10
109.366500
 20
42.782250
 30
0.0
 10
108.145500
 20
43.605000
 30
0.0
 10
104.427750
 20
48.672750
 30
0.0
 10
103.951500
 20
49.533000
 30
0.0
  0
SPLINE
  5
262
100
AcDbEntity
  8
0
 62
7
100
AcDbSpline
 70
8
 71
3
 72
8
 73
4
 74
0
 40
0
 40
0
 40
0
 40
0
 40
1
 40
1
 40
1
 40
1
 10
103.951500
 20
49.533000
 30
0.0
 10
103.119750
 20
49.629750
 30
0.0
 10
102.441750
 20
50.343000
 30
0.0
 10
102.326250
 20
51.147750
 30
0.0
  0
SPLINE
  5
263
100
AcDbEntity
  8
0
 62
7
100
AcDbSpline
 70
8
 71
3
 72
8
 73
4
 74
0
 40
0
 40
0
 40
0
 40
0
 40
1
 40
1
 40
1
 40
1
 10
102.326250
 20
51.147750
 30
0.0
 10
101.985750
 20
51.337500
 30
0.0
 10
100.241250
 20
52.630500
 30
0.0
 10
99.843750
 20
52.462500
 30
0.0
  0
SPLINE
  5
264
100
AcDbEntity
  8
0
 62
7
100
AcDbSpline
 70
8
 71
3
 72
8
 73
4
 74
0
 40
0
 40
0
 40
0
 40
0
 40
1
 40
1
 40
1
 40
1
 10
99.843750
 20
52.462500
 30
0.0
 10
99.813000
 20
52.368000
 30
0.0
 10
99.950250
 20
52.067250
 30
0.0
 10
99.942000
 20
51.958500
 30
0.0
  0
SPLINE
  5
265
100
AcDbEntity
  8
0
 62
7
100
AcDbSpline
 70
8
 71
3
 72
8
 73
4
 74
0
 40
0
 40
0
 40
0
 40
0
 40
1
 40
1
 40
1
 40
1
 10
99.942000
 20
51.958500
 30
0.0
 10
100.929750
 20
48.300750
 30
0.0
 10
102.156000
 20
45.075000
 30
0.0
 10
106.129500
 20
43.749000
 30
0.0
  0
SPLINE
  5
266
100
AcDbEntity
  8
0
 62
7
100
AcDbSpline
 70
8
 71
3
 72
8
 73
4
 74
0
 40
0
 40
0
 40
0
 40
0
 40
1
 40
1
 40
1
 40
1
 10
106.129500
 20
43.749000
 30
0.0
 10
107.291250
 20
43.173000
 30
0.0
 10
108.379500
 20
42.861000
 30
0.0
 10
109.413750
 20
42.753750
 30
0.0
  0
SPLINE
  5
267
100
AcDbEntity
  8
0
 62
7
100
AcDbSpline
 70
8
 71
3
 72
8
 73
4
 74
0
 40
0
 40
0
 40
0
 40
0
 40
1
 40
1
 40
1
 40
1
 10
109.397250
 20
42.762750
 30
0.0
 10
109.386750
 20
42.769500
 30
0.0
 10
109.377000
 20
42.776250
 30
0.0
 10
109.366500
 20
42.783000
 30
0.0
  0
SPLINE
  5
268
100
AcDbEntity
  8
0
 62
7
100
AcDbSpline
 70
8
 71
3
 72
8
 73
4
 74
0
 40
0
 40
0
 40
0
 40
0
 40
1
 40
1
 40
1
 40
1
 10
32.302500
 20
43.650750
 30
0.0
 10
31.159500
 20
49.524000
 30
0.0
 10
40.935750
 20
58.022250
 30
0.0
 10
44.630250
 20
61.040250
 30
0.0
  0
SPLINE
  5
269
100
AcDbEntity
  8
0
 62
7
100
AcDbSpline
 70
8
 71
3
 72
8
 73
4
 74
0
 40
0
 40
0
 40
0
 40
0
 40
1
 40
1
 40
1
 40
1
 10
44.630250
 20
61.040250
 30
0.0
 10
46.997250
 20
62.973750
 30
0.0
 10
45.366750
 20
62.943750
 30
0.0
 10
45.016500
 20
66.246000
 30
0.0
  0
SPLINE
  5
26a
100
AcDbEntity
  8
0
 62
7
100
AcDbSpline
 70
8
 71
3
 72
8
 73
4
 74
0
 40
0
 40
0
 40
0
 40
0
 40
1
 40
1
 40
1
 40
1
 10
45.016500
 20
66.246000
 30
0.0
 10
44.850000
 20
66.379500
 30
0.0
 10
44.754750
 20
66.585000
 30
0.0
 10
44.659500
 20
66.789000
 30
0.0
  0
SPLINE
  5
26b
100
AcDbEntity
  8
0
 62
7
100
AcDbSpline
 70
8
 71
3
 72
8
 73
4
 74
0
 40
0
 40
0
 40
0
 40
0
 40
1
 40
1
 40
1
 40
1
 10
44.659500
 20
66.789000
 30
0.0
 10
42.813750
 20
67.266750
 30
0.0
 10
40.974000
 20
67.679250
 30
0.0
 10
39.117750
 20
68.085750
 30
0.0
  0
SPLINE
  5
26c
100
AcDbEntity
  8
0
 62
7
100
AcDbSpline
 70
8
 71
3
 72
8
 73
4
 74
0
 40
0
 40
0
 40
0
 40
0
 40
1
 40
1
 40
1
 40
1
 10
39.117750
 20
68.085750
 30
0.0
 10
37.636500
 20
68.142000
 30
0.0
 10
37.359750
 20
68.064750
 30
0.0
 10
36.250500
 20
67.918500
 30
0.0
  0
SPLINE
  5
26d
100
AcDbEntity
  8
0
 62
7
100
AcDbSpline
 70
8
 71
3
 72
8
 73
4
 74
0
 40
0
 40
0
 40
0
 40
0
 40
1
 40
1
 40
1
 40
1
 10
36.250500
 20
67.918500
 30
0.0
 10
34.247250
 20
67.654500
 30
0.0
 10
33.258750
 20
65.442000
 30
0.0
 10
30.912000
 20
66.788250
 30
0.0
  0
SPLINE
  5
26e
100
AcDbEntity
  8
0
 62
7
100
AcDbSpline
 70
8
 71
3
 72
8
 73
4
 74
0
 40
0
 40
0
 40
0
 40
0
 40
1
 40
1
 40
1
 40
1
 10
30.912000
 20
66.788250
 30
0.0
 10
29.552250
 20
73.028250
 30
0.0
 10
37.265250
 20
75.696750
 30
0.0
 10
41.747250
 20
74.517000
 30
0.0
  0
SPLINE
  5
26f
100
AcDbEntity
  8
0
 62
7
100
AcDbSpline
 70
8
 71
3
 72
8
 73
4
 74
0
 40
0
 40
0
 40
0
 40
0
 40
1
 40
1
 40
1
 40
1
 10
41.747250
 20
74.517000
 30
0.0
 10
36.941250
 20
85.712250
 30
0.0
 10
31.359000
 20
104.864250
 30
0.0
 10
44.750250
 20
111.500250
 30
0.0
  0
SPLINE
  5
270
100
AcDbEntity
  8
0
 62
7
100
AcDbSpline
 70
8
 71
3
 72
8
 73
4
 74
0
 40
0
 40
0
 40
0
 40
0
 40
1
 40
1
 40
1
 40
1
 10
44.750250
 20
111.500250
 30
0.0
 10
48.005250
 20
113.361750
 30
0.0
 10
51.987000
 20
113.616750
 30
0.0
 10
55.097250
 20
111.847500
 30
0.0
  0
SPLINE
  5
271
100
AcDbEntity
  8
0
 62
7
100
AcDbSpline
 70
8
 71
3
 72
8
 73
4
 74
0
 40
0
 40
0
 40
0
 40
0
 40
1
 40
1
 40
1
 40
1
 10
55.097250
 20
111.847500
 30
0.0
 10
61.041000
 20
108.466500
 30
0.0
 10
61.657500
 20
103.580250
 30
0.0
 10
60.741750
 20
97.860750
 30
0.0
  0
SPLINE
  5
272
100
AcDbEntity
  8
0
 62
7
100
AcDbSpline
 70
8
 71
3
 72
8
 73
4
 74
0
 40
0
 40
0
 40
0
 40
0
 40
1
 40
1
 40
1
 40
1
 10
60.741750
 20
97.860750
 30
0.0
 10
60.128250
 20
94.027500
 30
0.0
 10
58.417500
 20
90.449250
 30
0.0
 10
57.377250
 20
86.843250
 30
0.0
  0
SPLINE
  5
273
100
AcDbEntity
  8
0
 62
7
100
AcDbSpline
 70
8
 71
3
 72
8
 73
4
 74
0
 40
0
 40
0
 40
0
 40
0
 40
1
 40
1
 40
1
 40
1
 10
57.377250
 20
86.843250
 30
0.0
 10
56.010750
 20
82.104750
 30
0.0
 10
57.081000
 20
76.924500
 30
0.0
 10
62.212500
 20
76.815000
 30
0.0
  0
SPLINE
  5
274
100
AcDbEntity
  8
0
 62
7
100
AcDbSpline
 70
8
 71
3
 72
8
 73
4
 74
0
 40
0
 40
0
 40
0
 40
0
 40
1
 40
1
 40
1
 40
1
 10
62.212500
 20
76.815000
 30
0.0
 10
65.404500
 20
76.746750
 30
0.0
 10
68.805750
 20
78.705750
 30
0.0
 10
68.514750
 20
82.642500
 30
0.0
  0
SPLINE
  5
275
100
AcDbEntity
  8
0
 62
7
100
AcDbSpline
 70
8
 71
3
 72
8
 73
4
 74
0
 40
0
 40
0
 40
0
 40
0
 40
1
 40
1
 40
1
 40
1
 10
68.514750
 20
82.642500
 30
0.0
 10
65.424750
 20
81.589500
 30
0.0
 10
61.484250
 20
79.593750
 30
0.0
 10
58.533000
 20
82.422750
 30
0.0
  0
SPLINE
  5
276
100
AcDbEntity
  8
0
 62
7
100
AcDbSpline
 70
8
 71
3
 72
8
 73
4
 74
0
 40
0
 40
0
 40
0
 40
0
 40
1
 40
1
 40
1
 40
1
 10
58.533000
 20
82.422750
 30
0.0
 10
58.314000
 20
82.740750
 30
0.0
 10
58.149000
 20
83.220000
 30
0.0
 10
58.263000
 20
83.587500
 30
0.0
  0
SPLINE
  5
277
100
AcDbEntity
  8
0
 62
7
100
AcDbSpline
 70
8
 71
3
 72
8
 73
4
 74
0
 40
0
 40
0
 40
0
 40
0
 40
1
 40
1
 40
1
 40
1
 10
58.263000
 20
83.587500
 30
0.0
 10
58.323750
 20
83.646750
 30
0.0
 10
58.377000
 20
83.713500
 30
0.0
 10
58.431750
 20
83.780250
 30
0.0
  0
SPLINE
  5
278
100
AcDbEntity
  8
0
 62
7
100
AcDbSpline
 70
8
 71
3
 72
8
 73
4
 74
0
 40
0
 40
0
 40
0
 40
0
 40
1
 40
1
 40
1
 40
1
 10
58.431750
 20
83.780250
 30
0.0
 10
65.844750
 20
81.789750
 30
0.0
 10
64.522500
 20
94.675500
 30
0.0
 10
64.006500
 20
101.498250
 30
0.0
  0
SPLINE
  5
279
100
AcDbEntity
  8
0
 62
7
100
AcDbSpline
 70
8
 71
3
 72
8
 73
4
 74
0
 40
0
 40
0
 40
0
 40
0
 40
1
 40
1
 40
1
 40
1
 10
64.006500
 20
101.498250
 30
0.0
 10
63.378750
 20
104.903250
 30
0.0
 10
63.910500
 20
108.468000
 30
0.0
 10
64.554750
 20
111.804750
 30
0.0
  0
SPLINE
  5
27a
100
AcDbEntity
  8
0
 62
7
100
AcDbSpline
 70
8
 71
3
 72
8
 73
4
 74
0
 40
0
 40
0
 40
0
 40
0
 40
1
 40
1
 40
1
 40
1
 10
64.554750
 20
111.804750
 30
0.0
 10
64.482750
 20
113.006250
 30
0.0
 10
62.210250
 20
114.636000
 30
0.0
 10
61.487250
 20
115.899000
 30
0.0
  0
SPLINE
  5
27b
100
AcDbEntity
  8
0
 62
7
100
AcDbSpline
 70
8
 71
3
 72
8
 73
4
 74
0
 40
0
 40
0
 40
0
 40
0
 40
1
 40
1
 40
1
 40
1
 10
61.487250
 20
115.899000
 30
0.0
 10
61.461000
 20
116.222250
 30
0.0
 10
61.387500
 20
116.578500
 30
0.0
 10
61.503000
 20
116.887500
 30
0.0
  0
SPLINE
  5
27c
100
AcDbEntity
  8
0
 62
7
100
AcDbSpline
 70
8
 71
3
 72
8
 73
4
 74
0
 40
0
 40
0
 40
0
 40
0
 40
1
 40
1
 40
1
 40
1
 10
61.503000
 20
116.887500
 30
0.0
 10
63.240000
 20
117.558000
 30
0.0
 10
65.016000
 20
118.198500
 30
0.0
 10
66.089250
 20
119.861250
 30
0.0
  0
SPLINE
  5
27d
100
AcDbEntity
  8
0
 62
7
100
AcDbSpline
 70
8
 71
3
 72
8
 73
4
 74
0
 40
0
 40
0
 40
0
 40
0
 40
1
 40
1
 40
1
 40
1
 10
66.089250
 20
119.861250
 30
0.0
 10
66.399000
 20
123.159750
 30
0.0
 10
63.406500
 20
124.855500
 30
0.0
 10
60.590250
 20
125.262000
 30
0.0
  0
SPLINE
  5
27e
100
AcDbEntity
  8
0
 62
7
100
AcDbSpline
 70
8
 71
3
 72
8
 73
4
 74
0
 40
0
 40
0
 40
0
 40
0
 40
1
 40
1
 40
1
 40
1
 10
60.590250
 20
125.262000
 30
0.0
 10
61.231500
 20
128.469750
 30
0.0
 10
62.671500
 20
129.861750
 30
0.0
 10
58.609500
 20
133.361250
 30
0.0
  0
SPLINE
  5
27f
100
AcDbEntity
  8
0
 62
7
100
AcDbSpline
 70
8
 71
3
 72
8
 73
4
 74
0
 40
0
 40
0
 40
0
 40
0
 40
1
 40
1
 40
1
 40
1
 10
58.609500
 20
133.361250
 30
0.0
 10
58.574250
 20
133.742250
 30
0.0
 10
58.508250
 20
134.159250
 30
0.0
 10
58.623000
 20
134.527500
 30
0.0
  0
SPLINE
  5
280
100
AcDbEntity
  8
0
 62
7
100
AcDbSpline
 70
8
 71
3
 72
8
 73
4
 74
0
 40
0
 40
0
 40
0
 40
0
 40
1
 40
1
 40
1
 40
1
 10
58.623000
 20
134.527500
 30
0.0
 10
58.734750
 20
134.655750
 30
0.0
 10
58.857750
 20
134.772750
 30
0.0
 10
58.969500
 20
134.901000
 30
0.0
  0
SPLINE
  5
281
100
AcDbEntity
  8
0
 62
7
100
AcDbSpline
 70
8
 71
3
 72
8
 73
4
 74
0
 40
0
 40
0
 40
0
 40
0
 40
1
 40
1
 40
1
 40
1
 10
58.969500
 20
134.901000
 30
0.0
 10
61.033500
 20
135.752250
 30
0.0
 10
63.492000
 20
136.260750
 30
0.0
 10
62.655750
 20
138.307500
 30
0.0
  0
SPLINE
  5
282
100
AcDbEntity
  8
0
 62
7
100
AcDbSpline
 70
8
 71
3
 72
8
 73
4
 74
0
 40
0
 40
0
 40
0
 40
0
 40
1
 40
1
 40
1
 40
1
 10
62.655750
 20
138.307500
 30
0.0
 10
62.226750
 20
138.422250
 30
0.0
 10
62.008500
 20
138.864750
 30
0.0
 10
61.670250
 20
139.121250
 30
0.0
  0
SPLINE
  5
283
100
AcDbEntity
  8
0
 62
7
100
AcDbSpline
 70
8
 71
3
 72
8
 73
4
 74
0
 40
0
 40
0
 40
0
 40
0
 40
1
 40
1
 40
1
 40
1
 10
61.670250
 20
139.121250
 30
0.0
 10
61.635000
 20
139.503000
 30
0.0
 10
61.569000
 20
139.920000
 30
0.0
 10
61.683750
 20
140.287500
 30
0.0
  0
SPLINE
  5
284
100
AcDbEntity
  8
0
 62
7
100
AcDbSpline
 70
8
 71
3
 72
8
 73
4
 74
0
 40
0
 40
0
 40
0
 40
0
 40
1
 40
1
 40
1
 40
1
 10
61.683750
 20
140.287500
 30
0.0
 10
61.852500
 20
140.481000
 30
0.0
 10
62.031750
 20
140.677500
 30
0.0
 10
62.512500
 20
140.807250
 30
0.0
  0
SPLINE
  5
285
100
AcDbEntity
  8
0
 62
7
100
AcDbSpline
 70
8
 71
3
 72
8
 73
4
 74
0
 40
0
 40
0
 40
0
 40
0
 40
1
 40
1
 40
1
 40
1
 10
62.512500
 20
140.807250
 30
0.0
 10
64.716000
 20
140.977500
 30
0.0
 10
66.722250
 20
140.596500
 30
0.0
 10
68.776500
 20
141.294750
 30
0.0
  0
SPLINE
  5
286
100
AcDbEntity
  8
0
 62
7
100
AcDbSpline
 70
8
 71
3
 72
8
 73
4
 74
0
 40
0
 40
0
 40
0
 40
0
 40
1
 40
1
 40
1
 40
1
 10
68.776500
 20
141.294750
 30
0.0
 10
71.774250
 20
142.947000
 30
0.0
 10
70.194750
 20
149.463000
 30
0.0
 10
73.635750
 20
148.567500
 30
0.0
  0
SPLINE
  5
287
100
AcDbEntity
  8
0
 62
7
100
AcDbSpline
 70
8
 71
3
 72
8
 73
4
 74
0
 40
0
 40
0
 40
0
 40
0
 40
1
 40
1
 40
1
 40
1
 10
73.635750
 20
148.567500
 30
0.0
 10
75.077250
 20
146.421750
 30
0.0
 10
74.691750
 20
143.286750
 30
0.0
 10
76.969500
 20
141.461250
 30
0.0
  0
SPLINE
  5
288
100
AcDbEntity
  8
0
 62
7
100
AcDbSpline
 70
8
 71
3
 72
8
 73
4
 74
0
 40
0
 40
0
 40
0
 40
0
 40
1
 40
1
 40
1
 40
1
 10
76.969500
 20
141.461250
 30
0.0
 10
79.031250
 20
140.789250
 30
0.0
 10
81.132000
 20
141.215250
 30
0.0
 10
83.318250
 20
141.023250
 30
0.0
  0
SPLINE
  5
289
100
AcDbEntity
  8
0
 62
7
100
AcDbSpline
 70
8
 71
3
 72
8
 73
4
 74
0
 40
0
 40
0
 40
0
 40
0
 40
1
 40
1
 40
1
 40
1
 10
83.318250
 20
141.023250
 30
0.0
 10
83.709000
 20
140.896500
 30
0.0
 10
83.898750
 20
140.652750
 30
0.0
 10
84.089250
 20
140.480250
 30
0.0
  0
SPLINE
  5
28a
100
AcDbEntity
  8
0
 62
7
100
AcDbSpline
 70
8
 71
3
 72
8
 73
4
 74
0
 40
0
 40
0
 40
0
 40
0
 40
1
 40
1
 40
1
 40
1
 10
84.089250
 20
140.480250
 30
0.0
 10
84.123750
 20
140.098500
 30
0.0
 10
84.099000
 20
139.782750
 30
0.0
 10
83.984250
 20
139.416000
 30
0.0
  0
SPLINE
  5
28b
100
AcDbEntity
  8
0
 62
7
100
AcDbSpline
 70
8
 71
3
 72
8
 73
4
 74
0
 40
0
 40
0
 40
0
 40
0
 40
1
 40
1
 40
1
 40
1
 10
83.984250
 20
139.416000
 30
0.0
 10
83.673750
 20
139.119750
 30
0.0
 10
83.546250
 20
138.918000
 30
0.0
 10
83.102250
 20
138.487500
 30
0.0
  0
SPLINE
  5
28c
100
AcDbEntity
  8
0
 62
7
100
AcDbSpline
 70
8
 71
3
 72
8
 73
4
 74
0
 40
0
 40
0
 40
0
 40
0
 40
1
 40
1
 40
1
 40
1
 10
83.102250
 20
138.487500
 30
0.0
 10
82.266750
 20
136.425000
 30
0.0
 10
85.217250
 20
135.402750
 30
0.0
 10
86.775000
 20
135.066750
 30
0.0
  0
SPLINE
  5
28d
100
AcDbEntity
  8
0
 62
7
100
AcDbSpline
 70
8
 71
3
 72
8
 73
4
 74
0
 40
0
 40
0
 40
0
 40
0
 40
1
 40
1
 40
1
 40
1
 10
86.775000
 20
135.066750
 30
0.0
 10
86.902500
 20
134.955000
 30
0.0
 10
87.019500
 20
134.832000
 30
0.0
 10
87.147750
 20
134.719500
 30
0.0
  0
SPLINE
  5
28e
100
AcDbEntity
  8
0
 62
7
100
AcDbSpline
 70
8
 71
3
 72
8
 73
4
 74
0
 40
0
 40
0
 40
0
 40
0
 40
1
 40
1
 40
1
 40
1
 10
87.147750
 20
134.719500
 30
0.0
 10
87.183000
 20
134.338500
 30
0.0
 10
87.023250
 20
133.971750
 30
0.0
 10
86.909250
 20
133.605000
 30
0.0
  0
SPLINE
  5
28f
100
AcDbEntity
  8
0
 62
7
100
AcDbSpline
 70
8
 71
3
 72
8
 73
4
 74
0
 40
0
 40
0
 40
0
 40
0
 40
1
 40
1
 40
1
 40
1
 10
86.909250
 20
133.605000
 30
0.0
 10
85.405500
 20
132.246750
 30
0.0
 10
84.665250
 20
131.571750
 30
0.0
 10
84.345000
 20
130.044000
 30
0.0
  0
SPLINE
  5
290
100
AcDbEntity
  8
0
 62
7
100
AcDbSpline
 70
8
 71
3
 72
8
 73
4
 74
0
 40
0
 40
0
 40
0
 40
0
 40
1
 40
1
 40
1
 40
1
 10
84.345000
 20
130.044000
 30
0.0
 10
83.983500
 20
128.313000
 30
0.0
 10
85.186500
 20
127.446750
 30
0.0
 10
85.154250
 20
125.454750
 30
0.0
  0
SPLINE
  5
291
100
AcDbEntity
  8
0
 62
7
100
AcDbSpline
 70
8
 71
3
 72
8
 73
4
 74
0
 40
0
 40
0
 40
0
 40
0
 40
1
 40
1
 40
1
 40
1
 10
85.154250
 20
125.454750
 30
0.0
 10
85.031250
 20
125.277750
 30
0.0
 10
85.031250
 20
125.277750
 30
0.0
 10
84.630750
 20
125.078250
 30
0.0
  0
SPLINE
  5
292
100
AcDbEntity
  8
0
 62
7
100
AcDbSpline
 70
8
 71
3
 72
8
 73
4
 74
0
 40
0
 40
0
 40
0
 40
0
 40
1
 40
1
 40
1
 40
1
 10
84.630750
 20
125.078250
 30
0.0
 10
81.118500
 20
124.926000
 30
0.0
 10
79.466250
 20
122.809500
 30
0.0
 10
79.682250
 20
120.054000
 30
0.0
  0
SPLINE
  5
293
100
AcDbEntity
  8
0
 62
7
100
AcDbSpline
 70
8
 71
3
 72
8
 73
4
 74
0
 40
0
 40
0
 40
0
 40
0
 40
1
 40
1
 40
1
 40
1
 10
79.682250
 20
120.054000
 30
0.0
 10
80.442000
 20
118.357500
 30
0.0
 10
82.848000
 20
117.816000
 30
0.0
 10
84.260250
 20
116.986500
 30
0.0
  0
SPLINE
  5
294
100
AcDbEntity
  8
0
 62
7
100
AcDbSpline
 70
8
 71
3
 72
8
 73
4
 74
0
 40
0
 40
0
 40
0
 40
0
 40
1
 40
1
 40
1
 40
1
 10
84.260250
 20
116.986500
 30
0.0
 10
84.175500
 20
115.126500
 30
0.0
 10
81.945000
 20
113.822250
 30
0.0
 10
81.363750
 20
112.082250
 30
0.0
  0
SPLINE
  5
295
100
AcDbEntity
  8
0
 62
7
100
AcDbSpline
 70
8
 71
3
 72
8
 73
4
 74
0
 40
0
 40
0
 40
0
 40
0
 40
1
 40
1
 40
1
 40
1
 10
81.363750
 20
112.082250
 30
0.0
 10
81.134250
 20
111.398250
 30
0.0
 10
81.557250
 20
111.830250
 30
0.0
 10
81.695250
 20
110.179500
 30
0.0
  0
SPLINE
  5
296
100
AcDbEntity
  8
0
 62
7
100
AcDbSpline
 70
8
 71
3
 72
8
 73
4
 74
0
 40
0
 40
0
 40
0
 40
0
 40
1
 40
1
 40
1
 40
1
 10
81.695250
 20
110.179500
 30
0.0
 10
81.699000
 20
110.134500
 30
0.0
 10
81.725250
 20
109.741500
 30
0.0
 10
81.750750
 20
109.703250
 30
0.0
  0
SPLINE
  5
297
100
AcDbEntity
  8
0
 62
7
100
AcDbSpline
 70
8
 71
3
 72
8
 73
4
 74
0
 40
0
 40
0
 40
0
 40
0
 40
1
 40
1
 40
1
 40
1
 10
81.750750
 20
109.703250
 30
0.0
 10
82.909500
 20
103.671000
 30
0.0
 10
80.747250
 20
94.277250
 30
0.0
 10
81.782250
 20
87.924000
 30
0.0
  0
SPLINE
  5
298
100
AcDbEntity
  8
0
 62
7
100
AcDbSpline
 70
8
 71
3
 72
8
 73
4
 74
0
 40
0
 40
0
 40
0
 40
0
 40
1
 40
1
 40
1
 40
1
 10
81.782250
 20
87.924000
 30
0.0
 10
82.353000
 20
84.420750
 30
0.0
 10
83.477250
 20
82.959000
 30
0.0
 10
87.315000
 20
83.946000
 30
0.0
  0
SPLINE
  5
299
100
AcDbEntity
  8
0
 62
7
100
AcDbSpline
 70
8
 71
3
 72
8
 73
4
 74
0
 40
0
 40
0
 40
0
 40
0
 40
1
 40
1
 40
1
 40
1
 10
87.315000
 20
83.946000
 30
0.0
 10
87.374250
 20
83.886000
 30
0.0
 10
87.441000
 20
83.832750
 30
0.0
 10
87.507000
 20
83.778750
 30
0.0
  0
SPLINE
  5
29a
100
AcDbEntity
  8
0
 62
7
100
AcDbSpline
 70
8
 71
3
 72
8
 73
4
 74
0
 40
0
 40
0
 40
0
 40
0
 40
1
 40
1
 40
1
 40
1
 10
87.507000
 20
83.778750
 30
0.0
 10
87.545250
 20
83.397750
 30
0.0
 10
87.372000
 20
82.847250
 30
0.0
 10
87.258000
 20
82.481250
 30
0.0
  0
SPLINE
  5
29b
100
AcDbEntity
  8
0
 62
7
100
AcDbSpline
 70
8
 71
3
 72
8
 73
4
 74
0
 40
0
 40
0
 40
0
 40
0
 40
1
 40
1
 40
1
 40
1
 10
87.258000
 20
82.481250
 30
0.0
 10
84.361500
 20
79.626000
 30
0.0
 10
80.310750
 20
81.769500
 30
0.0
 10
77.262750
 20
82.821000
 30
0.0
  0
SPLINE
  5
29c
100
AcDbEntity
  8
0
 62
7
100
AcDbSpline
 70
8
 71
3
 72
8
 73
4
 74
0
 40
0
 40
0
 40
0
 40
0
 40
1
 40
1
 40
1
 40
1
 10
77.262750
 20
82.821000
 30
0.0
 10
76.931250
 20
78.877500
 30
0.0
 10
80.310750
 20
77.031000
 30
0.0
 10
83.493750
 20
77.107500
 30
0.0
  0
SPLINE
  5
29d
100
AcDbEntity
  8
0
 62
7
100
AcDbSpline
 70
8
 71
3
 72
8
 73
4
 74
0
 40
0
 40
0
 40
0
 40
0
 40
1
 40
1
 40
1
 40
1
 10
83.493750
 20
77.107500
 30
0.0
 10
88.542000
 20
77.228250
 30
0.0
 10
89.658000
 20
81.945750
 30
0.0
 10
88.503750
 20
86.494500
 30
0.0
  0
SPLINE
  5
29e
100
AcDbEntity
  8
0
 62
7
100
AcDbSpline
 70
8
 71
3
 72
8
 73
4
 74
0
 40
0
 40
0
 40
0
 40
0
 40
1
 40
1
 40
1
 40
1
 10
88.503750
 20
86.494500
 30
0.0
 10
87.546750
 20
90.264750
 30
0.0
 10
86.234250
 20
93.047250
 30
0.0
 10
85.245750
 20
96.817500
 30
0.0
  0
SPLINE
  5
29f
100
AcDbEntity
  8
0
 62
7
100
AcDbSpline
 70
8
 71
3
 72
8
 73
4
 74
0
 40
0
 40
0
 40
0
 40
0
 40
1
 40
1
 40
1
 40
1
 10
85.245750
 20
96.817500
 30
0.0
 10
83.501250
 20
103.473750
 30
0.0
 10
85.481250
 20
109.796250
 30
0.0
 10
91.368750
 20
112.400250
 30
0.0
  0
SPLINE
  5
2a0
100
AcDbEntity
  8
0
 62
7
100
AcDbSpline
 70
8
 71
3
 72
8
 73
4
 74
0
 40
0
 40
0
 40
0
 40
0
 40
1
 40
1
 40
1
 40
1
 10
91.368750
 20
112.400250
 30
0.0
 10
94.571250
 20
113.513250
 30
0.0
 10
98.759250
 20
112.917000
 30
0.0
 10
101.745750
 20
111.666750
 30
0.0
  0
SPLINE
  5
2a1
100
AcDbEntity
  8
0
 62
7
100
AcDbSpline
 70
8
 71
3
 72
8
 73
4
 74
0
 40
0
 40
0
 40
0
 40
0
 40
1
 40
1
 40
1
 40
1
 10
101.745750
 20
111.666750
 30
0.0
 10
115.039500
 20
103.600500
 30
0.0
 10
108.669000
 20
85.755000
 30
0.0
 10
103.894500
 20
74.581500
 30
0.0
  0
SPLINE
  5
2a2
100
AcDbEntity
  8
0
 62
7
100
AcDbSpline
 70
8
 71
3
 72
8
 73
4
 74
0
 40
0
 40
0
 40
0
 40
0
 40
1
 40
1
 40
1
 40
1
 10
103.894500
 20
74.581500
 30
0.0
 10
104.421000
 20
74.639250
 30
0.0
 10
104.830500
 20
74.746500
 30
0.0
 10
105.059250
 20
74.744250
 30
0.0
  0
SPLINE
  5
2a3
100
AcDbEntity
  8
0
 62
7
100
AcDbSpline
 70
8
 71
3
 72
8
 73
4
 74
0
 40
0
 40
0
 40
0
 40
0
 40
1
 40
1
 40
1
 40
1
 10
105.059250
 20
74.744250
 30
0.0
 10
109.689000
 20
75.306750
 30
0.0
 10
111.819000
 20
74.079750
 30
0.0
 10
114.477750
 20
71.434500
 30
0.0
  0
SPLINE
  5
2a4
100
AcDbEntity
  8
0
 62
7
100
AcDbSpline
 70
8
 71
3
 72
8
 73
4
 74
0
 40
0
 40
0
 40
0
 40
0
 40
1
 40
1
 40
1
 40
1
 10
114.477750
 20
71.434500
 30
0.0
 10
114.624750
 20
71.288250
 30
0.0
 10
114.654000
 20
71.085000
 30
0.0
 10
114.786750
 20
70.839000
 30
0.0
  0
SPLINE
  5
2a5
100
AcDbEntity
  8
0
 62
7
100
AcDbSpline
 70
8
 71
3
 72
8
 73
4
 74
0
 40
0
 40
0
 40
0
 40
0
 40
1
 40
1
 40
1
 40
1
 10
114.786750
 20
70.839000
 30
0.0
 10
114.999750
 20
69.699750
 30
0.0
 10
115.166250
 20
67.932000
 30
0.0
 10
114.903000
 20
66.802500
 30
0.0
  0
SPLINE
  5
2a6
100
AcDbEntity
  8
0
 62
7
100
AcDbSpline
 70
8
 71
3
 72
8
 73
4
 74
0
 40
0
 40
0
 40
0
 40
0
 40
1
 40
1
 40
1
 40
1
 10
114.903000
 20
66.802500
 30
0.0
 10
114.779250
 20
66.627000
 30
0.0
 10
114.655500
 20
66.674250
 30
0.0
 10
114.511500
 20
66.519000
 30
0.0
  0
SPLINE
  5
2a7
100
AcDbEntity
  8
0
 62
7
100
AcDbSpline
 70
8
 71
3
 72
8
 73
4
 74
0
 40
0
 40
0
 40
0
 40
0
 40
1
 40
1
 40
1
 40
1
 10
114.511500
 20
66.519000
 30
0.0
 10
112.996500
 20
66.247500
 30
0.0
 10
111.672000
 20
67.019250
 30
0.0
 10
110.551500
 20
67.883250
 30
0.0
  0
SPLINE
  5
2a8
100
AcDbEntity
  8
0
 62
7
100
AcDbSpline
 70
8
 71
3
 72
8
 73
4
 74
0
 40
0
 40
0
 40
0
 40
0
 40
1
 40
1
 40
1
 40
1
 10
110.551500
 20
67.883250
 30
0.0
 10
109.254000
 20
68.380500
 30
0.0
 10
108.375750
 20
68.228250
 30
0.0
 10
106.354500
 20
68.207250
 30
0.0
  0
SPLINE
  5
2a9
100
AcDbEntity
  8
0
 62
7
100
AcDbSpline
 70
8
 71
3
 72
8
 73
4
 74
0
 40
0
 40
0
 40
0
 40
0
 40
1
 40
1
 40
1
 40
1
 10
106.354500
 20
68.207250
 30
0.0
 10
104.511000
 20
67.787250
 30
0.0
 10
102.926250
 20
68.205750
 30
0.0
 10
101.106000
 20
67.713750
 30
0.0
  0
SPLINE
  5
2aa
100
AcDbEntity
  8
0
 62
7
100
AcDbSpline
 70
8
 71
3
 72
8
 73
4
 74
0
 40
0
 40
0
 40
0
 40
0
 40
1
 40
1
 40
1
 40
1
 10
101.106000
 20
67.713750
 30
0.0
 10
101.037750
 20
67.482000
 30
0.0
 10
101.027250
 20
67.119750
 30
0.0
 10
100.876500
 20
66.969750
 30
0.0
  0
SPLINE
  5
2ab
100
AcDbEntity
  8
0
 62
7
100
AcDbSpline
 70
8
 71
3
 72
8
 73
4
 74
0
 40
0
 40
0
 40
0
 40
0
 40
1
 40
1
 40
1
 40
1
 10
100.876500
 20
66.969750
 30
0.0
 10
100.355250
 20
64.753500
 30
0.0
 10
99.995250
 20
64.768500
 30
0.0
 10
99.999750
 20
62.612250
 30
0.0
  0
SPLINE
  5
2ac
100
AcDbEntity
  8
0
 62
7
100
AcDbSpline
 70
8
 71
3
 72
8
 73
4
 74
0
 40
0
 40
0
 40
0
 40
0
 40
1
 40
1
 40
1
 40
1
 10
99.999750
 20
62.612250
 30
0.0
 10
99.999750
 20
62.549250
 30
0.0
 10
100.047000
 20
62.474250
 30
0.0
 10
100.099500
 20
62.385000
 30
0.0
  0
SPLINE
  5
2ad
100
AcDbEntity
  8
0
 62
7
100
AcDbSpline
 70
8
 71
3
 72
8
 73
4
 74
0
 40
0
 40
0
 40
0
 40
0
 40
1
 40
1
 40
1
 40
1
 10
100.099500
 20
62.385000
 30
0.0
 10
100.878750
 20
61.046250
 30
0.0
 10
108.298500
 20
53.902500
 30
0.0
 10
110.224500
 20
51.151500
 30
0.0
  0
SPLINE
  5
2ae
100
AcDbEntity
  8
0
 62
7
100
AcDbSpline
 70
8
 71
3
 72
8
 73
4
 74
0
 40
0
 40
0
 40
0
 40
0
 40
1
 40
1
 40
1
 40
1
 10
110.224500
 20
51.151500
 30
0.0
 10
111.804750
 20
48.894000
 30
0.0
 10
113.960250
 20
46.937250
 30
0.0
 10
113.349750
 20
43.604250
 30
0.0
  0
SPLINE
  5
2af
100
AcDbEntity
  8
0
 62
7
100
AcDbSpline
 70
8
 71
3
 72
8
 73
4
 74
0
 40
0
 40
0
 40
0
 40
0
 40
1
 40
1
 40
1
 40
1
 10
36.334500
 20
42.731250
 30
0.0
 10
37.402500
 20
42.777750
 30
0.0
 10
38.493750
 20
43.040250
 30
0.0
 10
39.615750
 20
43.584000
 30
0.0
  0
SPLINE
  5
2b0
100
AcDbEntity
  8
0
 62
7
100
AcDbSpline
 70
8
 71
3
 72
8
 73
4
 74
0
 40
0
 40
0
 40
0
 40
0
 40
1
 40
1
 40
1
 40
1
 10
39.615750
 20
43.584000
 30
0.0
 10
43.642500
 20
44.927250
 30
0.0
 10
45.199500
 20
48.684750
 30
0.0
 10
45.913500
 20
52.446750
 30
0.0
  0
SPLINE
  5
2b1
100
AcDbEntity
  8
0
 62
7
100
AcDbSpline
 70
8
 71
3
 72
8
 73
4
 74
0
 40
0
 40
0
 40
0
 40
0
 40
1
 40
1
 40
1
 40
1
 10
45.913500
 20
52.446750
 30
0.0
 10
45.502500
 20
52.590750
 30
0.0
 10
43.713000
 20
51.297750
 30
0.0
 10
43.365750
 20
51.104250
 30
0.0
  0
SPLINE
  5
2b2
100
AcDbEntity
  8
0
 62
7
100
AcDbSpline
 70
8
 71
3
 72
8
 73
4
 74
0
 40
0
 40
0
 40
0
 40
0
 40
1
 40
1
 40
1
 40
1
 10
43.365750
 20
51.104250
 30
0.0
 10
43.269750
 20
50.272500
 30
0.0
 10
42.555000
 20
49.594500
 30
0.0
 10
41.751000
 20
49.479750
 30
0.0
  0
SPLINE
  5
2b3
100
AcDbEntity
  8
0
 62
7
100
AcDbSpline
 70
8
 71
3
 72
8
 73
4
 74
0
 40
0
 40
0
 40
0
 40
0
 40
1
 40
1
 40
1
 40
1
 10
41.751000
 20
49.479750
 30
0.0
 10
40.512750
 20
47.368500
 30
0.0
 10
38.300250
 20
44.610000
 30
0.0
 10
36.311250
 20
42.717000
 30
0.0
  0
SPLINE
  5
2b4
100
AcDbEntity
  8
0
 62
7
100
AcDbSpline
 70
8
 71
3
 72
8
 73
4
 74
0
 40
0
 40
0
 40
0
 40
0
 40
1
 40
1
 40
1
 40
1
 10
43.146750
 20
32.196750
 30
0.0
 10
43.764750
 20
31.572750
 30
0.0
 10
44.383500
 20
30.986250
 30
0.0
 10
44.884500
 20
30.501750
 30
0.0
  0
SPLINE
  5
2b5
100
AcDbEntity
  8
0
 62
7
100
AcDbSpline
 70
8
 71
3
 72
8
 73
4
 74
0
 40
0
 40
0
 40
0
 40
0
 40
1
 40
1
 40
1
 40
1
 10
44.884500
 20
30.501750
 30
0.0
 10
44.922750
 20
30.045000
 30
0.0
 10
45.274500
 20
28.885500
 30
0.0
 10
45.051000
 20
28.405500
 30
0.0
  0
SPLINE
  5
2b6
100
AcDbEntity
  8
0
 62
7
100
AcDbSpline
 70
8
 71
3
 72
8
 73
4
 74
0
 40
0
 40
0
 40
0
 40
0
 40
1
 40
1
 40
1
 40
1
 10
45.051000
 20
28.405500
 30
0.0
 10
44.991000
 20
28.346250
 30
0.0
 10
44.937000
 20
28.280250
 30
0.0
 10
44.883750
 20
28.213500
 30
0.0
  0
SPLINE
  5
2b7
100
AcDbEntity
  8
0
 62
7
100
AcDbSpline
 70
8
 71
3
 72
8
 73
4
 74
0
 40
0
 40
0
 40
0
 40
0
 40
1
 40
1
 40
1
 40
1
 10
44.883750
 20
28.213500
 30
0.0
 10
41.642250
 20
28.623000
 30
0.0
 10
36.646500
 20
28.661250
 30
0.0
 10
33.543750
 20
27.777000
 30
0.0
  0
SPLINE
  5
2b8
100
AcDbEntity
  8
0
 62
7
100
AcDbSpline
 70
8
 71
3
 72
8
 73
4
 74
0
 40
0
 40
0
 40
0
 40
0
 40
1
 40
1
 40
1
 40
1
 10
33.543750
 20
27.777000
 30
0.0
 10
30.013500
 20
27.010500
 30
0.0
 10
28.412250
 20
24.525750
 30
0.0
 10
21.948750
 20
24.580500
 30
0.0
  0
SPLINE
  5
2b9
100
AcDbEntity
  8
0
 62
7
100
AcDbSpline
 70
8
 71
3
 72
8
 73
4
 74
0
 40
0
 40
0
 40
0
 40
0
 40
1
 40
1
 40
1
 40
1
 10
21.948750
 20
24.580500
 30
0.0
 10
21.235500
 20
24.945750
 30
0.0
 10
21.326250
 20
26.056500
 30
0.0
 10
20.724750
 20
26.588250
 30
0.0
  0
SPLINE
  5
2ba
100
AcDbEntity
  8
0
 62
7
100
AcDbSpline
 70
8
 71
3
 72
8
 73
4
 74
0
 40
0
 40
0
 40
0
 40
0
 40
1
 40
1
 40
1
 40
1
 10
20.724750
 20
26.588250
 30
0.0
 10
14.724750
 20
24.900750
 30
0.0
 10
6.268500
 20
28.047000
 30
0.0
 10
3.483000
 20
31.853250
 30
0.0
  0
SPLINE
  5
2bb
100
AcDbEntity
  8
0
 62
7
100
AcDbSpline
 70
8
 71
3
 72
8
 73
4
 74
0
 40
0
 40
0
 40
0
 40
0
 40
1
 40
1
 40
1
 40
1
 10
3.483000
 20
31.853250
 30
0.0
 10
-3.588750
 20
42.155250
 30
0.0
 10
6.662250
 20
55.275750
 30
0.0
 10
20.089500
 20
50.409750
 30
0.0
  0
SPLINE
  5
2bc
100
AcDbEntity
  8
0
 62
7
100
AcDbSpline
 70
8
 71
3
 72
8
 73
4
 74
0
 40
0
 40
0
 40
0
 40
0
 40
1
 40
1
 40
1
 40
1
 10
20.089500
 20
50.409750
 30
0.0
 10
24.353250
 20
48.864000
 30
0.0
 10
28.038000
 20
45.204000
 30
0.0
 10
32.303250
 20
43.650750
 30
0.0
  0
SPLINE
  5
2bd
100
AcDbEntity
  8
0
 62
7
100
AcDbSpline
 70
8
 71
3
 72
8
 73
4
 74
0
 40
0
 40
0
 40
0
 40
0
 40
1
 40
1
 40
1
 40
1
 10
37.056750
 20
36.002250
 30
0.0
 10
37.320000
 20
35.841750
 30
0.0
 10
37.537500
 20
35.589750
 30
0.0
 10
37.795500
 20
35.448750
 30
0.0
  0
SPLINE
  5
2be
100
AcDbEntity
  8
0
 62
7
100
AcDbSpline
 70
8
 71
3
 72
8
 73
4
 74
0
 40
0
 40
0
 40
0
 40
0
 40
1
 40
1
 40
1
 40
1
 10
37.795500
 20
35.448750
 30
0.0
 10
38.144250
 20
35.259000
 30
0.0
 10
40.489500
 20
34.963500
 30
0.0
 10
40.881000
 20
34.838250
 30
0.0
  0
SPLINE
  5
2bf
100
AcDbEntity
  8
0
 62
7
100
AcDbSpline
 70
8
 71
3
 72
8
 73
4
 74
0
 40
0
 40
0
 40
0
 40
0
 40
1
 40
1
 40
1
 40
1
 10
40.881000
 20
34.838250
 30
0.0
 10
40.948500
 20
34.734750
 30
0.0
 10
41.020500
 20
34.630500
 30
0.0
 10
41.097000
 20
34.524000
 30
0.0
  0
SPLINE
  5
2c0
100
AcDbEntity
  8
0
 62
7
100
AcDbSpline
 70
8
 71
3
 72
8
 73
4
 74
0
 40
0
 40
0
 40
0
 40
0
 40
1
 40
1
 40
1
 40
1
 10
28.781250
 20
37.552500
 30
0.0
 10
27.698250
 20
37.994250
 30
0.0
 10
26.726250
 20
38.522250
 30
0.0
 10
25.937250
 20
39.126750
 30
0.0
  0
SPLINE
  5
2c1
100
AcDbEntity
  8
0
 62
7
100
AcDbSpline
 70
8
 71
3
 72
8
 73
4
 74
0
 40
0
 40
0
 40
0
 40
0
 40
1
 40
1
 40
1
 40
1
 10
25.937250
 20
39.126750
 30
0.0
 10
23.682000
 20
40.853250
 30
0.0
 10
20.904750
 20
41.985750
 30
0.0
 10
17.884500
 20
43.013250
 30
0.0
  0
SPLINE
  5
2c2
100
AcDbEntity
  8
0
 62
7
100
AcDbSpline
 70
8
 71
3
 72
8
 73
4
 74
0
 40
0
 40
0
 40
0
 40
0
 40
1
 40
1
 40
1
 40
1
 10
17.884500
 20
43.013250
 30
0.0
 10
12.492750
 20
44.847750
 30
0.0
 10
6.985500
 20
40.797750
 30
0.0
 10
11.163750
 20
35.276250
 30
0.0
  0
SPLINE
  5
2c3
100
AcDbEntity
  8
0
 62
7
100
AcDbSpline
 70
8
 71
3
 72
8
 73
4
 74
0
 40
0
 40
0
 40
0
 40
0
 40
1
 40
1
 40
1
 40
1
 10
11.163750
 20
35.276250
 30
0.0
 10
12.684000
 20
33.267000
 30
0.0
 10
17.163750
 20
32.776500
 30
0.0
 10
21.491250
 20
34.221750
 30
0.0
  0
SPLINE
  5
2c4
100
AcDbEntity
  8
0
 62
7
100
AcDbSpline
 70
8
 71
3
 72
8
 73
4
 74
0
 40
0
 40
0
 40
0
 40
0
 40
1
 40
1
 40
1
 40
1
 10
21.491250
 20
34.221750
 30
0.0
 10
23.918250
 20
34.771500
 30
0.0
 10
22.824000
 20
36.434250
 30
0.0
 10
25.038750
 20
37.393500
 30
0.0
  0
SPLINE
  5
2c5
100
AcDbEntity
  8
0
 62
7
100
AcDbSpline
 70
8
 71
3
 72
8
 73
4
 74
0
 40
0
 40
0
 40
0
 40
0
 40
1
 40
1
 40
1
 40
1
 10
25.038750
 20
37.393500
 30
0.0
 10
25.700250
 20
37.575750
 30
0.0
 10
26.330250
 20
37.282500
 30
0.0
 10
26.928750
 20
37.306500
 30
0.0
  0
SPLINE
  5
2c6
100
AcDbEntity
  8
0
 62
7
100
AcDbSpline
 70
8
 71
3
 72
8
 73
4
 74
0
 40
0
 40
0
 40
0
 40
0
 40
1
 40
1
 40
1
 40
1
 10
26.928750
 20
37.306500
 30
0.0
 10
27.537000
 20
37.564500
 30
0.0
 10
28.173750
 20
37.594500
 30
0.0
 10
28.823250
 20
37.535250
 30
0.0
  0
SPLINE
  5
2c7
100
AcDbEntity
  8
0
 62
7
100
AcDbSpline
 70
8
 71
3
 72
8
 73
4
 74
0
 40
0
 40
0
 40
0
 40
0
 40
1
 40
1
 40
1
 40
1
 10
41.093250
 20
34.535250
 30
0.0
 10
43.007250
 20
35.291250
 30
0.0
 10
47.165250
 20
36.408000
 30
0.0
 10
47.847750
 20
37.063500
 30
0.0
  0
SPLINE
  5
2c8
100
AcDbEntity
  8
0
 62
7
100
AcDbSpline
 70
8
 71
3
 72
8
 73
4
 74
0
 40
0
 40
0
 40
0
 40
0
 40
1
 40
1
 40
1
 40
1
 10
47.847750
 20
37.063500
 30
0.0
 10
53.525250
 20
42.517500
 30
0.0
 10
54.365250
 20
49.745250
 30
0.0
 10
56.532750
 20
57.318000
 30
0.0
  0
SPLINE
  5
2c9
100
AcDbEntity
  8
0
 62
7
100
AcDbSpline
 70
8
 71
3
 72
8
 73
4
 74
0
 40
0
 40
0
 40
0
 40
0
 40
1
 40
1
 40
1
 40
1
 10
56.532750
 20
57.318000
 30
0.0
 10
56.442750
 20
57.336000
 30
0.0
 10
56.226000
 20
57.309750
 30
0.0
 10
56.071500
 20
57.247500
 30
0.0
  0
SPLINE
  5
2ca
100
AcDbEntity
  8
0
 62
7
100
AcDbSpline
 70
8
 71
3
 72
8
 73
4
 74
0
 40
0
 40
0
 40
0
 40
0
 40
1
 40
1
 40
1
 40
1
 10
56.071500
 20
57.247500
 30
0.0
 10
54.658500
 20
56.157000
 30
0.0
 10
55.137000
 20
56.604000
 30
0.0
 10
53.645250
 20
55.488750
 30
0.0
  0
SPLINE
  5
2cb
100
AcDbEntity
  8
0
 62
7
100
AcDbSpline
 70
8
 71
3
 72
8
 73
4
 74
0
 40
0
 40
0
 40
0
 40
0
 40
1
 40
1
 40
1
 40
1
 10
53.645250
 20
55.488750
 30
0.0
 10
53.087250
 20
46.989000
 30
0.0
 10
49.203750
 20
38.316750
 30
0.0
 10
40.413000
 20
36.336750
 30
0.0
  0
SPLINE
  5
2cc
100
AcDbEntity
  8
0
 62
7
100
AcDbSpline
 70
8
 71
3
 72
8
 73
4
 74
0
 40
0
 40
0
 40
0
 40
0
 40
1
 40
1
 40
1
 40
1
 10
40.413000
 20
36.336750
 30
0.0
 10
39.408000
 20
36.110250
 30
0.0
 10
38.279250
 20
35.998500
 30
0.0
 10
37.096500
 20
35.992500
 30
0.0
  0
SPLINE
  5
2cd
100
AcDbEntity
  8
0
 62
7
100
AcDbSpline
 70
8
 71
3
 72
8
 73
4
 74
0
 40
0
 40
0
 40
0
 40
0
 40
1
 40
1
 40
1
 40
1
 10
49.458000
 20
32.006250
 30
0.0
 10
48.752250
 20
32.002500
 30
0.0
 10
45.458250
 20
31.943250
 30
0.0
 10
43.145250
 20
32.160750
 30
0.0
  0
SPLINE
  5
2ce
100
AcDbEntity
  8
0
 62
7
100
AcDbSpline
 70
8
 71
3
 72
8
 73
4
 74
0
 40
0
 40
0
 40
0
 40
0
 40
1
 40
1
 40
1
 40
1
 10
64.357500
 20
51.249750
 30
0.0
 10
64.171500
 20
52.752750
 30
0.0
 10
63.988500
 20
54.270000
 30
0.0
 10
63.870000
 20
55.767000
 30
0.0
  0
SPLINE
  5
2cf
100
AcDbEntity
  8
0
 62
7
100
AcDbSpline
 70
8
 71
3
 72
8
 73
4
 74
0
 40
0
 40
0
 40
0
 40
0
 40
1
 40
1
 40
1
 40
1
 10
63.870000
 20
55.767000
 30
0.0
 10
63.793500
 20
55.761750
 30
0.0
 10
63.726000
 20
55.724250
 30
0.0
 10
63.657750
 20
55.686000
 30
0.0
  0
SPLINE
  5
2d0
100
AcDbEntity
  8
0
 62
7
100
AcDbSpline
 70
8
 71
3
 72
8
 73
4
 74
0
 40
0
 40
0
 40
0
 40
0
 40
1
 40
1
 40
1
 40
1
 10
63.657750
 20
55.686000
 30
0.0
 10
62.800500
 20
53.877750
 30
0.0
 10
62.188500
 20
51.958500
 30
0.0
 10
61.647000
 20
50.013750
 30
0.0
  0
LWPOLYLINE
  5
2d1
100
AcDbEntity
  8
0
 62
7
100
AcDbPolyline
 90
4
 70
0
 10
82.138500
 20
51.203250
 30
0.0
 10
82.263750
 20
50.927250
 30
0.0
 10
81.075750
 20
51.150000
 30
0.0
 10
81.075750
 20
51.150000
 30
0.0
  0
LWPOLYLINE
  5
2d2
100
AcDbEntity
  8
0
 62
7
100
AcDbPolyline
 90
3
 70
0
 10
0.750000
 20
144.770250
 30
0.0
 10
0.750000
 20
148.903500
 30
0.0
 10
4.712250
 20
148.903500
 30
0.0
  0
ENDSEC
  0
SECTION
  2
OBJECTS
  0
DICTIONARY
  5
C
330
0
100
AcDbDictionary
  3
ACAD_GROUP
350
D
  3
ACAD_MLINESTYLE
350
17
  0
DICTIONARY
  5
D
330
C
100
AcDbDictionary
  0
DICTIONARY
  5
1A
330
C
100
AcDbDictionary
  0
DICTIONARY
  5
17
330
C
100
AcDbDictionary
  3
STANDARD
350
18
  0
DICTIONARY
  5
19
330
C
100
AcDbDictionary
  0
ENDSEC
  0
EOF
